<?xml version="1.0" encoding="utf-8" standalone="no"?>
<!DOCTYPE svg PUBLIC "-//W3C//DTD SVG 1.1//EN"
  "http://www.w3.org/Graphics/SVG/1.1/DTD/svg11.dtd">
<svg xmlns:xlink="http://www.w3.org/1999/xlink" width="1521.029063pt" height="587.64pt" viewBox="0 0 1521.029063 587.64" xmlns="http://www.w3.org/2000/svg" version="1.1">
 <metadata>
  <rdf:RDF xmlns:dc="http://purl.org/dc/elements/1.1/" xmlns:cc="http://creativecommons.org/ns#" xmlns:rdf="http://www.w3.org/1999/02/22-rdf-syntax-ns#">
   <cc:Work>
    <dc:type rdf:resource="http://purl.org/dc/dcmitype/StillImage"/>
    <dc:date>2026-07-06T19:31:20.894932</dc:date>
    <dc:format>image/svg+xml</dc:format>
    <dc:creator>
     <cc:Agent>
      <dc:title>Matplotlib v3.11.0, https://matplotlib.org/</dc:title>
     </cc:Agent>
    </dc:creator>
   </cc:Work>
  </rdf:RDF>
 </metadata>
 <defs>
  <style type="text/css">*{stroke-linejoin: round; stroke-linecap: butt}</style>
 </defs>
 <g id="figure_1">
  <g id="patch_1">
   <path d="M 0 587.64 
L 1521.029063 587.64 
L 1521.029063 0 
L 0 0 
L 0 587.64 
z
" style="fill: none"/>
  </g>
  <g id="axes_1">
   <g id="patch_2">
    <path d="M 101.429062 166.56 
L 112.679062 155.31 
L 155.429062 155.31 
L 155.429062 177.81 
L 112.679062 177.81 
L 101.429062 166.56 
z
" clip-path="url(#p0b080fe472)" style="fill: none; stroke: #17242f; stroke-width: 2; stroke-linecap: round"/>
   </g>
   <g id="patch_3">
    <path d="M 225.629062 205.26 
L 234.629062 192.66 
L 243.629062 205.26 
L 225.629062 205.26 
z
" clip-path="url(#p0b080fe472)" style="fill: none; stroke: #17242f; stroke-width: 2; stroke-linecap: round"/>
   </g>
   <g id="patch_4">
    <path d="M 394.829062 171.96 
C 400.080084 171.96 405.116744 169.873747 408.829777 166.160714 
C 412.54281 162.447681 414.629062 157.411021 414.629062 152.16 
C 414.629062 146.908979 412.54281 141.872319 408.829777 138.159286 
C 405.116744 134.446253 400.080084 132.36 394.829062 132.36 
C 389.578041 132.36 384.541381 134.446253 380.828348 138.159286 
C 377.115315 141.872319 375.029062 146.908979 375.029062 152.16 
C 375.029062 157.411021 377.115315 162.447681 380.828348 166.160714 
C 384.541381 169.873747 389.578041 171.96 394.829062 171.96 
L 394.829062 171.96 
z
" clip-path="url(#p0b080fe472)" style="fill: none; stroke: #17242f; stroke-width: 2; stroke-linejoin: miter"/>
   </g>
   <g id="patch_5">
    <path d="M 402.089062 58.68 
L 390.839062 47.43 
L 390.839062 4.68 
L 413.339062 4.68 
L 413.339062 47.43 
L 402.089062 58.68 
z
" clip-path="url(#p0b080fe472)" style="fill: none; stroke: #17242f; stroke-width: 2; stroke-linecap: round"/>
   </g>
   <g id="patch_6">
    <path d="M 627.089062 371.76 
C 627.089062 376.532066 628.98678 381.113562 632.36114 384.487922 
C 635.735501 387.862282 640.316997 389.76 645.089062 389.76 
C 649.861128 389.76 654.442624 387.862282 657.816985 384.487922 
C 661.191345 381.113562 663.089062 376.532066 663.089062 371.76 
" clip-path="url(#p0b080fe472)" style="fill: none; stroke: #17242f; stroke-width: 2; stroke-linejoin: miter"/>
   </g>
   <g id="patch_7">
    <path d="M 925.889063 409.56 
C 931.140084 409.56 936.176744 407.473747 939.889777 403.760714 
C 943.60281 400.047681 945.689062 395.011021 945.689062 389.76 
C 945.689062 384.508979 943.60281 379.472319 939.889777 375.759286 
C 936.176744 372.046253 931.140084 369.96 925.889063 369.96 
C 920.638041 369.96 915.601381 372.046253 911.888348 375.759286 
C 908.175315 379.472319 906.089063 384.508979 906.089063 389.76 
C 906.089063 395.011021 908.175315 400.047681 911.888348 403.760714 
C 915.601381 407.473747 920.638041 409.56 925.889063 409.56 
L 925.889063 409.56 
z
" clip-path="url(#p0b080fe472)" style="fill: none; stroke: #17242f; stroke-width: 2; stroke-linejoin: miter"/>
   </g>
   <g id="patch_8">
    <path d="M 1102.349062 364.68 
L 1113.599062 353.43 
L 1156.349062 353.43 
L 1156.349062 375.93 
L 1113.599062 375.93 
L 1102.349062 364.68 
z
" clip-path="url(#p0b080fe472)" style="fill: none; stroke: #17242f; stroke-width: 2; stroke-linecap: round"/>
   </g>
   <g id="patch_9">
    <path d="M 1285.889062 409.56 
C 1291.140084 409.56 1296.176744 407.473747 1299.889777 403.760714 
C 1303.60281 400.047681 1305.689062 395.011021 1305.689062 389.76 
C 1305.689062 384.508979 1303.60281 379.472319 1299.889777 375.759286 
C 1296.176744 372.046253 1291.140084 369.96 1285.889062 369.96 
C 1280.638041 369.96 1275.601381 372.046253 1271.888348 375.759286 
C 1268.175315 379.472319 1266.089062 384.508979 1266.089062 389.76 
C 1266.089062 395.011021 1268.175315 400.047681 1271.888348 403.760714 
C 1275.601381 407.473747 1280.638041 409.56 1285.889062 409.56 
L 1285.889062 409.56 
z
" clip-path="url(#p0b080fe472)" style="fill: none; stroke: #17242f; stroke-width: 2; stroke-linejoin: miter"/>
   </g>
   <g id="patch_10">
    <path d="M 1462.349062 364.68 
L 1473.599062 353.43 
L 1516.349062 353.43 
L 1516.349062 375.93 
L 1473.599062 375.93 
L 1462.349062 364.68 
z
" clip-path="url(#p0b080fe472)" style="fill: none; stroke: #17242f; stroke-width: 2; stroke-linecap: round"/>
   </g>
   <g id="line2d_1">
    <path d="M 47.429062 144.96 
L 47.429062 227.76 
L 47.429062 310.56 
" clip-path="url(#p0b080fe472)" style="fill: none; stroke: #17242f; stroke-width: 2.4; stroke-linecap: round"/>
   </g>
   <g id="line2d_2">
    <path d="M 47.429062 166.56 
L 74.429062 166.56 
L 101.429062 166.56 
" clip-path="url(#p0b080fe472)" style="fill: none; stroke: #17242f; stroke-width: 2; stroke-linecap: round"/>
   </g>
   <g id="line2d_3">
    <path d="M 47.429062 227.76 
L 74.429062 227.76 
L 101.429062 227.76 
" clip-path="url(#p0b080fe472)" style="fill: none; stroke: #17242f; stroke-width: 2; stroke-linecap: round"/>
   </g>
   <g id="line2d_4">
    <path d="M 101.429062 227.76 
L 133.829063 227.76 
L 166.229062 227.76 
" clip-path="url(#p0b080fe472)" style="fill: none; stroke: #17242f; stroke-width: 2; stroke-linecap: round"/>
   </g>
   <g id="line2d_5">
    <path d="M 166.229062 227.76 
L 166.229062 189.96 
L 166.229062 152.16 
" clip-path="url(#p0b080fe472)" style="fill: none; stroke: #17242f; stroke-width: 2; stroke-linecap: round"/>
   </g>
   <g id="line2d_6">
    <path d="M 47.429062 288.96 
L 69.029063 288.96 
L 90.629062 288.96 
" clip-path="url(#p0b080fe472)" style="fill: none; stroke: #17242f; stroke-width: 2; stroke-linecap: round"/>
   </g>
   <g id="line2d_7">
    <path d="M 90.629062 288.96 
L 90.629062 303.36 
L 81.629062 303.36 
L 99.629062 303.36 
M 84.329062 307.68 
L 96.929062 307.68 
M 88.829062 312 
L 92.429062 312 
" clip-path="url(#p0b080fe472)" style="fill: none; stroke: #17242f; stroke-width: 2; stroke-linecap: round"/>
   </g>
   <g id="line2d_8">
    <path d="M 166.229062 152.16 
L 205.829063 152.16 
L 208.829063 143.16 
L 214.829063 161.16 
L 220.829062 143.16 
L 226.829063 161.16 
L 232.829063 143.16 
L 238.829062 161.16 
L 241.829063 152.16 
L 281.429062 152.16 
" clip-path="url(#p0b080fe472)" style="fill: none; stroke: #17242f; stroke-width: 2; stroke-linecap: round"/>
   </g>
   <g id="line2d_9">
    <path d="M 281.429062 152.16 
L 258.029062 152.16 
L 234.629062 152.16 
" clip-path="url(#p0b080fe472)" style="fill: none; stroke: #17242f; stroke-width: 2; stroke-linecap: round"/>
   </g>
   <g id="line2d_10">
    <path d="M 234.629062 152.16 
L 234.629062 192.66 
M 225.629062 192.66 
L 243.629062 192.66 
M 234.629062 205.26 
L 234.629062 245.76 
" clip-path="url(#p0b080fe472)" style="fill: none; stroke: #17242f; stroke-width: 2; stroke-linecap: round"/>
   </g>
   <g id="line2d_11">
    <path d="M 247.229062 189.06 
L 243.629062 192.66 
" clip-path="url(#p0b080fe472)" style="fill: none; stroke: #17242f; stroke-width: 2; stroke-linecap: round"/>
   </g>
   <g id="line2d_12">
    <path d="M 222.029062 196.26 
L 225.629062 192.66 
" clip-path="url(#p0b080fe472)" style="fill: none; stroke: #17242f; stroke-width: 2; stroke-linecap: round"/>
   </g>
   <g id="line2d_13">
    <path d="M 234.629062 245.76 
L 234.629062 260.16 
L 225.629062 260.16 
L 243.629062 260.16 
M 228.329062 264.48 
L 240.929062 264.48 
M 232.829062 268.8 
L 236.429062 268.8 
" clip-path="url(#p0b080fe472)" style="fill: none; stroke: #17242f; stroke-width: 2; stroke-linecap: round"/>
   </g>
   <g id="line2d_14">
    <path d="M 281.429062 152.16 
L 281.429062 195.72 
M 290.429062 195.72 
L 272.429062 195.72 
M 290.429062 202.2 
L 272.429062 202.2 
M 281.429062 202.2 
L 281.429062 245.76 
" clip-path="url(#p0b080fe472)" style="fill: none; stroke: #17242f; stroke-width: 2; stroke-linecap: round"/>
   </g>
   <g id="line2d_15">
    <path d="M 281.429062 245.76 
L 281.429062 260.16 
L 272.429062 260.16 
L 290.429062 260.16 
M 275.129062 264.48 
L 287.729062 264.48 
M 279.629062 268.8 
L 283.229062 268.8 
" clip-path="url(#p0b080fe472)" style="fill: none; stroke: #17242f; stroke-width: 2; stroke-linecap: round"/>
   </g>
   <g id="line2d_16">
    <path d="M 281.429062 152.16 
L 310.229062 152.16 
L 313.229062 143.16 
L 319.229062 161.16 
L 325.229062 143.16 
L 331.229062 161.16 
L 337.229062 143.16 
L 343.229062 161.16 
L 346.229062 152.16 
L 375.029063 152.16 
" clip-path="url(#p0b080fe472)" style="fill: none; stroke: #17242f; stroke-width: 2; stroke-linecap: round"/>
   </g>
   <g id="line2d_17">
    <path d="M 375.029063 152.16 
L 388.229062 152.16 
" clip-path="url(#p0b080fe472)" style="fill: none; stroke: #17242f; stroke-width: 2; stroke-linecap: round"/>
   </g>
   <g id="line2d_18">
    <path d="M 388.229062 138.96 
L 388.229062 165.36 
" clip-path="url(#p0b080fe472)" style="fill: none; stroke: #17242f; stroke-width: 2; stroke-linecap: round"/>
   </g>
   <g id="line2d_19">
    <path d="M 388.229062 145.56 
L 402.089062 133.68 
L 402.089062 127.08 
" clip-path="url(#p0b080fe472)" style="fill: none; stroke: #17242f; stroke-width: 2; stroke-linecap: round"/>
   </g>
   <g id="line2d_20">
    <path d="M 388.229062 158.76 
L 402.089062 170.64 
L 402.089062 177.24 
" clip-path="url(#p0b080fe472)" style="fill: none; stroke: #17242f; stroke-width: 2; stroke-linecap: round"/>
   </g>
   <g id="line2d_21">
    <path d="M 388.229062 158.76 
L 395.255753 164.782878 
" clip-path="url(#p0b080fe472)" style="fill: none; stroke: #17242f; stroke-width: 2; stroke-linecap: round"/>
   </g>
   <g id="patch_11">
    <path d="M 397.598602 162.049554 
L 402.089062 170.64 
L 392.912904 167.516201 
z
" clip-path="url(#p0b080fe472)" style="fill: #17242f"/>
   </g>
   <g id="line2d_22">
    <path d="M 402.089062 127.08 
L 402.089062 92.88 
L 402.089062 58.68 
" clip-path="url(#p0b080fe472)" style="fill: none; stroke: #17242f; stroke-width: 2; stroke-linecap: round"/>
   </g>
   <g id="line2d_23">
    <path d="M 402.089062 177.24 
L 402.089062 218.7 
L 402.089062 260.16 
" clip-path="url(#p0b080fe472)" style="fill: none; stroke: #17242f; stroke-width: 2; stroke-linecap: round"/>
   </g>
   <g id="line2d_24">
    <path d="M 402.089062 260.16 
L 830.489063 260.16 
L 1258.889062 260.16 
" clip-path="url(#p0b080fe472)" style="fill: none; stroke: #17242f; stroke-width: 3.2; stroke-linecap: round"/>
   </g>
   <g id="line2d_25">
    <path d="M 402.089062 260.16 
L 402.089062 245.76 
" clip-path="url(#p0b080fe472)" style="fill: none; stroke: #17242f; stroke-width: 2; stroke-linecap: round"/>
   </g>
   <g id="line2d_26">
    <path d="M 402.089062 245.76 
L 395.339062 245.76 
" clip-path="url(#p0b080fe472)" style="fill: none; stroke: #17242f; stroke-width: 2; stroke-linecap: round"/>
   </g>
   <g id="line2d_27">
    <path d="M 402.089062 245.76 
L 408.839062 245.76 
" clip-path="url(#p0b080fe472)" style="fill: none; stroke: #17242f; stroke-width: 2; stroke-linecap: round"/>
   </g>
   <g id="line2d_28">
    <path d="M 495.689062 260.16 
L 495.689062 303.72 
M 504.689062 303.72 
L 486.689062 303.72 
M 504.689062 310.2 
L 486.689062 310.2 
M 495.689062 310.2 
L 495.689062 353.76 
" clip-path="url(#p0b080fe472)" style="fill: none; stroke: #17242f; stroke-width: 2; stroke-linecap: round"/>
   </g>
   <g id="line2d_29">
    <path d="M 495.689062 353.76 
L 495.689062 368.16 
L 486.689062 368.16 
L 504.689062 368.16 
M 489.389062 372.48 
L 501.989062 372.48 
M 493.889062 376.8 
L 497.489062 376.8 
" clip-path="url(#p0b080fe472)" style="fill: none; stroke: #17242f; stroke-width: 2; stroke-linecap: round"/>
   </g>
   <g id="line2d_30">
    <path d="M 546.089062 260.16 
L 546.089062 303.72 
M 555.089062 303.72 
L 537.089062 303.72 
M 555.089062 310.2 
L 537.089062 310.2 
M 546.089062 310.2 
L 546.089062 353.76 
" clip-path="url(#p0b080fe472)" style="fill: none; stroke: #17242f; stroke-width: 2; stroke-linecap: round"/>
   </g>
   <g id="line2d_31">
    <path d="M 546.089062 353.76 
L 546.089062 368.16 
L 537.089062 368.16 
L 555.089062 368.16 
M 539.789062 372.48 
L 552.389062 372.48 
M 544.289062 376.8 
L 547.889062 376.8 
" clip-path="url(#p0b080fe472)" style="fill: none; stroke: #17242f; stroke-width: 2; stroke-linecap: round"/>
   </g>
   <g id="line2d_32">
    <path d="M 654.089062 260.16 
L 654.089062 306.96 
L 663.089062 309.96 
L 645.089062 315.96 
L 663.089062 321.96 
L 645.089062 327.96 
L 663.089062 333.96 
L 645.089062 339.96 
L 654.089062 342.96 
L 654.089062 389.76 
" clip-path="url(#p0b080fe472)" style="fill: none; stroke: #17242f; stroke-width: 2; stroke-linecap: round"/>
   </g>
   <g id="line2d_33">
    <path d="M 654.089062 389.76 
L 654.089062 398.76 
" clip-path="url(#p0b080fe472)" style="fill: none; stroke: #17242f; stroke-width: 2; stroke-linecap: round"/>
   </g>
   <g id="line2d_34">
    <path d="M 636.089062 389.76 
L 636.089062 398.76 
" clip-path="url(#p0b080fe472)" style="fill: none; stroke: #17242f; stroke-width: 2; stroke-linecap: round"/>
   </g>
   <g id="line2d_35">
    <path d="M 663.089062 371.76 
L 627.089062 371.76 
" clip-path="url(#p0b080fe472)" style="fill: none; stroke: #17242f; stroke-width: 2; stroke-linecap: round"/>
   </g>
   <g id="line2d_36">
    <path d="M 636.089062 389.76 
L 636.089062 404.16 
L 627.089062 404.16 
L 645.089062 404.16 
M 629.789062 408.48 
L 642.389063 408.48 
M 634.289062 412.8 
L 637.889063 412.8 
" clip-path="url(#p0b080fe472)" style="fill: none; stroke: #17242f; stroke-width: 2; stroke-linecap: round"/>
   </g>
   <g id="line2d_37">
    <path d="M 841.289062 260.16 
L 841.289062 306.96 
L 850.289062 309.96 
L 832.289062 315.96 
L 850.289062 321.96 
L 832.289062 327.96 
L 850.289062 333.96 
L 832.289062 339.96 
L 841.289062 342.96 
L 841.289062 389.76 
" clip-path="url(#p0b080fe472)" style="fill: none; stroke: #17242f; stroke-width: 2; stroke-linecap: round"/>
   </g>
   <g id="line2d_38">
    <path d="M 841.289062 389.76 
L 841.289062 440.16 
L 850.289062 443.16 
L 832.289062 449.16 
L 850.289062 455.16 
L 832.289062 461.16 
L 850.289062 467.16 
L 832.289062 473.16 
L 841.289062 476.16 
L 841.289062 526.56 
" clip-path="url(#p0b080fe472)" style="fill: none; stroke: #17242f; stroke-width: 2; stroke-linecap: round"/>
   </g>
   <g id="line2d_39">
    <path d="M 841.289062 526.56 
L 841.289062 540.96 
L 832.289062 540.96 
L 850.289062 540.96 
M 834.989062 545.28 
L 847.589062 545.28 
M 839.489062 549.6 
L 843.089062 549.6 
" clip-path="url(#p0b080fe472)" style="fill: none; stroke: #17242f; stroke-width: 2; stroke-linecap: round"/>
   </g>
   <g id="line2d_40">
    <path d="M 654.089062 389.76 
L 744.449062 389.76 
M 744.449062 380.76 
L 744.449062 398.76 
M 750.929062 380.76 
L 750.929062 398.76 
M 750.929062 389.76 
L 841.289062 389.76 
" clip-path="url(#p0b080fe472)" style="fill: none; stroke: #17242f; stroke-width: 2; stroke-linecap: round"/>
   </g>
   <g id="line2d_41">
    <path d="M 841.289062 389.76 
L 873.689062 389.76 
L 906.089062 389.76 
" clip-path="url(#p0b080fe472)" style="fill: none; stroke: #17242f; stroke-width: 2; stroke-linecap: round"/>
   </g>
   <g id="line2d_42">
    <path d="M 906.089062 389.76 
L 919.289062 389.76 
" clip-path="url(#p0b080fe472)" style="fill: none; stroke: #17242f; stroke-width: 2; stroke-linecap: round"/>
   </g>
   <g id="line2d_43">
    <path d="M 919.289062 376.56 
L 919.289062 402.96 
" clip-path="url(#p0b080fe472)" style="fill: none; stroke: #17242f; stroke-width: 2; stroke-linecap: round"/>
   </g>
   <g id="line2d_44">
    <path d="M 919.289062 383.16 
L 933.149063 371.28 
L 933.149063 364.68 
" clip-path="url(#p0b080fe472)" style="fill: none; stroke: #17242f; stroke-width: 2; stroke-linecap: round"/>
   </g>
   <g id="line2d_45">
    <path d="M 919.289062 396.36 
L 933.149063 408.24 
L 933.149063 414.84 
" clip-path="url(#p0b080fe472)" style="fill: none; stroke: #17242f; stroke-width: 2; stroke-linecap: round"/>
   </g>
   <g id="line2d_46">
    <path d="M 933.149063 371.28 
L 926.122372 377.302878 
" clip-path="url(#p0b080fe472)" style="fill: none; stroke: #17242f; stroke-width: 2; stroke-linecap: round"/>
   </g>
   <g id="patch_12">
    <path d="M 928.465221 380.036201 
L 919.289062 383.16 
L 923.779523 374.569554 
z
" clip-path="url(#p0b080fe472)" style="fill: #17242f"/>
   </g>
   <g id="line2d_47">
    <path d="M 933.149063 414.84 
L 933.149063 470.7 
L 933.149063 526.56 
" clip-path="url(#p0b080fe472)" style="fill: none; stroke: #17242f; stroke-width: 2; stroke-linecap: round"/>
   </g>
   <g id="line2d_48">
    <path d="M 933.149063 526.56 
L 933.149063 540.96 
L 924.149063 540.96 
L 942.149063 540.96 
M 926.849062 545.28 
L 939.449063 545.28 
M 931.349062 549.6 
L 934.949063 549.6 
" clip-path="url(#p0b080fe472)" style="fill: none; stroke: #17242f; stroke-width: 2; stroke-linecap: round"/>
   </g>
   <g id="line2d_49">
    <path d="M 933.149063 364.68 
L 942.149063 364.68 
L 951.149063 364.68 
" clip-path="url(#p0b080fe472)" style="fill: none; stroke: #17242f; stroke-width: 2; stroke-linecap: round"/>
   </g>
   <g id="line2d_50">
    <path d="M 951.149063 364.68 
L 979.949063 364.68 
L 982.949062 355.68 
L 988.949063 373.68 
L 994.949062 355.68 
L 1000.949062 373.68 
L 1006.949063 355.68 
L 1012.949062 373.68 
L 1015.949063 364.68 
L 1044.749063 364.68 
" clip-path="url(#p0b080fe472)" style="fill: none; stroke: #17242f; stroke-width: 2; stroke-linecap: round"/>
   </g>
   <g id="line2d_51">
    <path d="M 1044.749063 364.68 
L 1073.549062 364.68 
L 1102.349062 364.68 
" clip-path="url(#p0b080fe472)" style="fill: none; stroke: #17242f; stroke-width: 2; stroke-linecap: round"/>
   </g>
   <g id="line2d_52">
    <path d="M 951.149063 364.68 
L 951.149063 398.88 
L 951.149063 433.08 
" clip-path="url(#p0b080fe472)" style="fill: none; stroke: #17242f; stroke-width: 2; stroke-linecap: round"/>
   </g>
   <g id="line2d_53">
    <path d="M 951.149063 433.08 
L 985.709063 433.08 
M 985.709063 424.08 
L 985.709063 442.08 
M 992.189063 424.08 
L 992.189063 442.08 
M 992.189063 433.08 
L 1026.749063 433.08 
" clip-path="url(#p0b080fe472)" style="fill: none; stroke: #17242f; stroke-width: 2; stroke-linecap: round"/>
   </g>
   <g id="line2d_54">
    <path d="M 1026.749063 433.08 
L 1046.549062 433.08 
L 1049.549062 424.08 
L 1055.549062 442.08 
L 1061.549062 424.08 
L 1067.549062 442.08 
L 1073.549062 424.08 
L 1079.549062 442.08 
L 1082.549062 433.08 
L 1102.349062 433.08 
" clip-path="url(#p0b080fe472)" style="fill: none; stroke: #17242f; stroke-width: 2; stroke-linecap: round"/>
   </g>
   <g id="line2d_55">
    <path d="M 1102.349062 433.08 
L 1102.349062 398.88 
L 1102.349062 364.68 
" clip-path="url(#p0b080fe472)" style="fill: none; stroke: #17242f; stroke-width: 2; stroke-linecap: round"/>
   </g>
   <g id="line2d_56">
    <path d="M 1201.289062 260.16 
L 1201.289062 306.96 
L 1210.289062 309.96 
L 1192.289062 315.96 
L 1210.289062 321.96 
L 1192.289062 327.96 
L 1210.289062 333.96 
L 1192.289062 339.96 
L 1201.289062 342.96 
L 1201.289062 389.76 
" clip-path="url(#p0b080fe472)" style="fill: none; stroke: #17242f; stroke-width: 2; stroke-linecap: round"/>
   </g>
   <g id="line2d_57">
    <path d="M 1201.289062 389.76 
L 1201.289062 440.16 
L 1210.289062 443.16 
L 1192.289062 449.16 
L 1210.289062 455.16 
L 1192.289062 461.16 
L 1210.289062 467.16 
L 1192.289062 473.16 
L 1201.289062 476.16 
L 1201.289062 526.56 
" clip-path="url(#p0b080fe472)" style="fill: none; stroke: #17242f; stroke-width: 2; stroke-linecap: round"/>
   </g>
   <g id="line2d_58">
    <path d="M 1201.289062 526.56 
L 1201.289062 540.96 
L 1192.289062 540.96 
L 1210.289062 540.96 
M 1194.989062 545.28 
L 1207.589062 545.28 
M 1199.489062 549.6 
L 1203.089062 549.6 
" clip-path="url(#p0b080fe472)" style="fill: none; stroke: #17242f; stroke-width: 2; stroke-linecap: round"/>
   </g>
   <g id="line2d_59">
    <path d="M 1201.289062 389.76 
L 1167.089062 389.76 
L 1132.889062 389.76 
" clip-path="url(#p0b080fe472)" style="fill: none; stroke: #17242f; stroke-width: 2; stroke-linecap: round"/>
   </g>
   <g id="line2d_60">
    <path d="M 1132.889062 389.76 
L 1132.889062 454.92 
M 1141.889062 454.92 
L 1123.889062 454.92 
M 1141.889062 461.4 
L 1123.889062 461.4 
M 1132.889062 461.4 
L 1132.889062 526.56 
" clip-path="url(#p0b080fe472)" style="fill: none; stroke: #17242f; stroke-width: 2; stroke-linecap: round"/>
   </g>
   <g id="line2d_61">
    <path d="M 1132.889062 526.56 
L 1132.889062 540.96 
L 1123.889062 540.96 
L 1141.889062 540.96 
M 1126.589062 545.28 
L 1139.189063 545.28 
M 1131.089062 549.6 
L 1134.689063 549.6 
" clip-path="url(#p0b080fe472)" style="fill: none; stroke: #17242f; stroke-width: 2; stroke-linecap: round"/>
   </g>
   <g id="line2d_62">
    <path d="M 1201.289062 389.76 
L 1233.689062 389.76 
L 1266.089062 389.76 
" clip-path="url(#p0b080fe472)" style="fill: none; stroke: #17242f; stroke-width: 2; stroke-linecap: round"/>
   </g>
   <g id="line2d_63">
    <path d="M 1266.089062 389.76 
L 1279.289062 389.76 
" clip-path="url(#p0b080fe472)" style="fill: none; stroke: #17242f; stroke-width: 2; stroke-linecap: round"/>
   </g>
   <g id="line2d_64">
    <path d="M 1279.289062 376.56 
L 1279.289062 402.96 
" clip-path="url(#p0b080fe472)" style="fill: none; stroke: #17242f; stroke-width: 2; stroke-linecap: round"/>
   </g>
   <g id="line2d_65">
    <path d="M 1279.289062 383.16 
L 1293.149062 371.28 
L 1293.149062 364.68 
" clip-path="url(#p0b080fe472)" style="fill: none; stroke: #17242f; stroke-width: 2; stroke-linecap: round"/>
   </g>
   <g id="line2d_66">
    <path d="M 1279.289062 396.36 
L 1293.149062 408.24 
L 1293.149062 414.84 
" clip-path="url(#p0b080fe472)" style="fill: none; stroke: #17242f; stroke-width: 2; stroke-linecap: round"/>
   </g>
   <g id="line2d_67">
    <path d="M 1293.149062 371.28 
L 1286.122372 377.302878 
" clip-path="url(#p0b080fe472)" style="fill: none; stroke: #17242f; stroke-width: 2; stroke-linecap: round"/>
   </g>
   <g id="patch_13">
    <path d="M 1288.465221 380.036201 
L 1279.289062 383.16 
L 1283.779523 374.569554 
z
" clip-path="url(#p0b080fe472)" style="fill: #17242f"/>
   </g>
   <g id="line2d_68">
    <path d="M 1293.149062 414.84 
L 1293.149062 470.7 
L 1293.149062 526.56 
" clip-path="url(#p0b080fe472)" style="fill: none; stroke: #17242f; stroke-width: 2; stroke-linecap: round"/>
   </g>
   <g id="line2d_69">
    <path d="M 1293.149062 526.56 
L 1293.149062 540.96 
L 1284.149062 540.96 
L 1302.149062 540.96 
M 1286.849062 545.28 
L 1299.449062 545.28 
M 1291.349062 549.6 
L 1294.949062 549.6 
" clip-path="url(#p0b080fe472)" style="fill: none; stroke: #17242f; stroke-width: 2; stroke-linecap: round"/>
   </g>
   <g id="line2d_70">
    <path d="M 1293.149062 364.68 
L 1302.149062 364.68 
L 1311.149062 364.68 
" clip-path="url(#p0b080fe472)" style="fill: none; stroke: #17242f; stroke-width: 2; stroke-linecap: round"/>
   </g>
   <g id="line2d_71">
    <path d="M 1311.149062 364.68 
L 1339.949062 364.68 
L 1342.949062 355.68 
L 1348.949062 373.68 
L 1354.949062 355.68 
L 1360.949062 373.68 
L 1366.949062 355.68 
L 1372.949062 373.68 
L 1375.949062 364.68 
L 1404.749063 364.68 
" clip-path="url(#p0b080fe472)" style="fill: none; stroke: #17242f; stroke-width: 2; stroke-linecap: round"/>
   </g>
   <g id="line2d_72">
    <path d="M 1404.749063 364.68 
L 1433.549062 364.68 
L 1462.349062 364.68 
" clip-path="url(#p0b080fe472)" style="fill: none; stroke: #17242f; stroke-width: 2; stroke-linecap: round"/>
   </g>
   <g id="line2d_73">
    <path d="M 1311.149062 364.68 
L 1311.149062 398.88 
L 1311.149062 433.08 
" clip-path="url(#p0b080fe472)" style="fill: none; stroke: #17242f; stroke-width: 2; stroke-linecap: round"/>
   </g>
   <g id="line2d_74">
    <path d="M 1311.149062 433.08 
L 1345.709063 433.08 
M 1345.709063 424.08 
L 1345.709063 442.08 
M 1352.189063 424.08 
L 1352.189063 442.08 
M 1352.189063 433.08 
L 1386.749063 433.08 
" clip-path="url(#p0b080fe472)" style="fill: none; stroke: #17242f; stroke-width: 2; stroke-linecap: round"/>
   </g>
   <g id="line2d_75">
    <path d="M 1386.749063 433.08 
L 1406.549062 433.08 
L 1409.549062 424.08 
L 1415.549062 442.08 
L 1421.549062 424.08 
L 1427.549062 442.08 
L 1433.549062 424.08 
L 1439.549063 442.08 
L 1442.549062 433.08 
L 1462.349062 433.08 
" clip-path="url(#p0b080fe472)" style="fill: none; stroke: #17242f; stroke-width: 2; stroke-linecap: round"/>
   </g>
   <g id="line2d_76">
    <path d="M 1462.349062 433.08 
L 1462.349062 398.88 
L 1462.349062 364.68 
" clip-path="url(#p0b080fe472)" style="fill: none; stroke: #17242f; stroke-width: 2; stroke-linecap: round"/>
   </g>
   <g id="text_1">
    <!-- J1 -->
    <g style="fill: #5b6672" transform="translate(28.122812 126.797891) scale(0.13 -0.13)">
     <defs>
      <path id="DejaVuSans-2d" d="M 628 4666 
L 1259 4666 
L 1259 325 
Q 1259 -519 939 -900 
Q 619 -1281 -91 -1281 
L -331 -1281 
L -331 -750 
L -134 -750 
Q 284 -750 456 -515 
Q 628 -281 628 325 
L 628 4666 
z
" transform="scale(0.015625)"/>
      <path id="DejaVuSans-14" d="M 794 531 
L 1825 531 
L 1825 4091 
L 703 3866 
L 703 4441 
L 1819 4666 
L 2450 4666 
L 2450 531 
L 3481 531 
L 3481 0 
L 794 0 
L 794 531 
z
" transform="scale(0.015625)"/>
     </defs>
     <use xlink:href="#DejaVuSans-2d"/>
     <use xlink:href="#DejaVuSans-14" transform="translate(29.5 0)"/>
    </g>
   </g>
   <g id="text_2">
    <!-- Neutrik -->
    <g style="fill: #5b6672" transform="translate(-0 156.260937) scale(0.11 -0.11)">
     <defs>
      <path id="DejaVuSans-31" d="M 628 4666 
L 1478 4666 
L 3547 763 
L 3547 4666 
L 4159 4666 
L 4159 0 
L 3309 0 
L 1241 3903 
L 1241 0 
L 628 0 
L 628 4666 
z
" transform="scale(0.015625)"/>
      <path id="DejaVuSans-48" d="M 3597 1894 
L 3597 1613 
L 953 1613 
Q 991 1019 1311 708 
Q 1631 397 2203 397 
Q 2534 397 2845 478 
Q 3156 559 3463 722 
L 3463 178 
Q 3153 47 2828 -22 
Q 2503 -91 2169 -91 
Q 1331 -91 842 396 
Q 353 884 353 1716 
Q 353 2575 817 3079 
Q 1281 3584 2069 3584 
Q 2775 3584 3186 3129 
Q 3597 2675 3597 1894 
z
M 3022 2063 
Q 3016 2534 2758 2815 
Q 2500 3097 2075 3097 
Q 1594 3097 1305 2825 
Q 1016 2553 972 2059 
L 3022 2063 
z
" transform="scale(0.015625)"/>
      <path id="DejaVuSans-58" d="M 544 1381 
L 544 3500 
L 1119 3500 
L 1119 1403 
Q 1119 906 1312 657 
Q 1506 409 1894 409 
Q 2359 409 2629 706 
Q 2900 1003 2900 1516 
L 2900 3500 
L 3475 3500 
L 3475 0 
L 2900 0 
L 2900 538 
Q 2691 219 2414 64 
Q 2138 -91 1772 -91 
Q 1169 -91 856 284 
Q 544 659 544 1381 
z
M 1991 3584 
L 1991 3584 
z
" transform="scale(0.015625)"/>
      <path id="DejaVuSans-57" d="M 1172 4494 
L 1172 3500 
L 2356 3500 
L 2356 3053 
L 1172 3053 
L 1172 1153 
Q 1172 725 1289 603 
Q 1406 481 1766 481 
L 2356 481 
L 2356 0 
L 1766 0 
Q 1100 0 847 248 
Q 594 497 594 1153 
L 594 3053 
L 172 3053 
L 172 3500 
L 594 3500 
L 594 4494 
L 1172 4494 
z
" transform="scale(0.015625)"/>
      <path id="DejaVuSans-55" d="M 2631 2963 
Q 2534 3019 2420 3045 
Q 2306 3072 2169 3072 
Q 1681 3072 1420 2755 
Q 1159 2438 1159 1844 
L 1159 0 
L 581 0 
L 581 3500 
L 1159 3500 
L 1159 2956 
Q 1341 3275 1631 3429 
Q 1922 3584 2338 3584 
Q 2397 3584 2469 3576 
Q 2541 3569 2628 3553 
L 2631 2963 
z
" transform="scale(0.015625)"/>
      <path id="DejaVuSans-4c" d="M 603 3500 
L 1178 3500 
L 1178 0 
L 603 0 
L 603 3500 
z
M 603 4863 
L 1178 4863 
L 1178 4134 
L 603 4134 
L 603 4863 
z
" transform="scale(0.015625)"/>
      <path id="DejaVuSans-4e" d="M 581 4863 
L 1159 4863 
L 1159 1991 
L 2875 3500 
L 3609 3500 
L 1753 1863 
L 3688 0 
L 2938 0 
L 1159 1709 
L 1159 0 
L 581 0 
L 581 4863 
z
" transform="scale(0.015625)"/>
     </defs>
     <use xlink:href="#DejaVuSans-31"/>
     <use xlink:href="#DejaVuSans-48" transform="translate(74.8125 0)"/>
     <use xlink:href="#DejaVuSans-58" transform="translate(136.34375 0)"/>
     <use xlink:href="#DejaVuSans-57" transform="translate(199.71875 0)"/>
     <use xlink:href="#DejaVuSans-55" transform="translate(238.921875 0)"/>
     <use xlink:href="#DejaVuSans-4c" transform="translate(280.03125 0)"/>
     <use xlink:href="#DejaVuSans-4e" transform="translate(307.8125 0)"/>
    </g>
   </g>
   <g id="text_3">
    <!-- XLR3 -->
    <g style="fill: #5b6672" transform="translate(11.922969 177.763828) scale(0.11 -0.11)">
     <defs>
      <path id="DejaVuSans-3b" d="M 403 4666 
L 1081 4666 
L 2241 2931 
L 3406 4666 
L 4084 4666 
L 2584 2425 
L 4184 0 
L 3506 0 
L 2194 1984 
L 872 0 
L 191 0 
L 1856 2491 
L 403 4666 
z
" transform="scale(0.015625)"/>
      <path id="DejaVuSans-2f" d="M 628 4666 
L 1259 4666 
L 1259 531 
L 3531 531 
L 3531 0 
L 628 0 
L 628 4666 
z
" transform="scale(0.015625)"/>
      <path id="DejaVuSans-35" d="M 2841 2188 
Q 3044 2119 3236 1894 
Q 3428 1669 3622 1275 
L 4263 0 
L 3584 0 
L 2988 1197 
Q 2756 1666 2539 1819 
Q 2322 1972 1947 1972 
L 1259 1972 
L 1259 0 
L 628 0 
L 628 4666 
L 2053 4666 
Q 2853 4666 3247 4331 
Q 3641 3997 3641 3322 
Q 3641 2881 3436 2590 
Q 3231 2300 2841 2188 
z
M 1259 4147 
L 1259 2491 
L 2053 2491 
Q 2509 2491 2742 2702 
Q 2975 2913 2975 3322 
Q 2975 3731 2742 3939 
Q 2509 4147 2053 4147 
L 1259 4147 
z
" transform="scale(0.015625)"/>
      <path id="DejaVuSans-16" d="M 2597 2516 
Q 3050 2419 3304 2112 
Q 3559 1806 3559 1356 
Q 3559 666 3084 287 
Q 2609 -91 1734 -91 
Q 1441 -91 1130 -33 
Q 819 25 488 141 
L 488 750 
Q 750 597 1062 519 
Q 1375 441 1716 441 
Q 2309 441 2620 675 
Q 2931 909 2931 1356 
Q 2931 1769 2642 2001 
Q 2353 2234 1838 2234 
L 1294 2234 
L 1294 2753 
L 1863 2753 
Q 2328 2753 2575 2939 
Q 2822 3125 2822 3475 
Q 2822 3834 2567 4026 
Q 2313 4219 1838 4219 
Q 1578 4219 1281 4162 
Q 984 4106 628 3988 
L 628 4550 
Q 988 4650 1302 4700 
Q 1616 4750 1894 4750 
Q 2613 4750 3031 4423 
Q 3450 4097 3450 3541 
Q 3450 3153 3228 2886 
Q 3006 2619 2597 2516 
z
" transform="scale(0.015625)"/>
     </defs>
     <use xlink:href="#DejaVuSans-3b"/>
     <use xlink:href="#DejaVuSans-2f" transform="translate(68.5 0)"/>
     <use xlink:href="#DejaVuSans-35" transform="translate(124.21875 0)"/>
     <use xlink:href="#DejaVuSans-16" transform="translate(193.703125 0)"/>
    </g>
   </g>
   <g id="text_4">
    <!-- 2 -->
    <g style="fill: #17242f" transform="translate(70.929687 161.542031) scale(0.11 -0.11)">
     <defs>
      <path id="DejaVuSans-15" d="M 1228 531 
L 3431 531 
L 3431 0 
L 469 0 
L 469 531 
Q 828 903 1448 1529 
Q 2069 2156 2228 2338 
Q 2531 2678 2651 2914 
Q 2772 3150 2772 3378 
Q 2772 3750 2511 3984 
Q 2250 4219 1831 4219 
Q 1534 4219 1204 4116 
Q 875 4013 500 3803 
L 500 4441 
Q 881 4594 1212 4672 
Q 1544 4750 1819 4750 
Q 2544 4750 2975 4387 
Q 3406 4025 3406 3419 
Q 3406 3131 3298 2873 
Q 3191 2616 2906 2266 
Q 2828 2175 2409 1742 
Q 1991 1309 1228 531 
z
" transform="scale(0.015625)"/>
     </defs>
     <use xlink:href="#DejaVuSans-15"/>
    </g>
   </g>
   <g id="text_5">
    <!-- P2 -->
    <g style="fill: #8a1c1c" transform="translate(120.99375 171.013125) scale(0.12 -0.12)">
     <defs>
      <path id="DejaVuSans-33" d="M 1259 4147 
L 1259 2394 
L 2053 2394 
Q 2494 2394 2734 2622 
Q 2975 2850 2975 3272 
Q 2975 3691 2734 3919 
Q 2494 4147 2053 4147 
L 1259 4147 
z
M 628 4666 
L 2053 4666 
Q 2838 4666 3239 4311 
Q 3641 3956 3641 3272 
Q 3641 2581 3239 2228 
Q 2838 1875 2053 1875 
L 1259 1875 
L 1259 0 
L 628 0 
L 628 4666 
z
" transform="scale(0.015625)"/>
     </defs>
     <use xlink:href="#DejaVuSans-33"/>
     <use xlink:href="#DejaVuSans-15" transform="translate(60.296875 0)"/>
    </g>
   </g>
   <g id="text_6">
    <!-- 3 -->
    <g style="fill: #17242f" transform="translate(70.929687 222.663828) scale(0.11 -0.11)">
     <use xlink:href="#DejaVuSans-16"/>
    </g>
   </g>
   <g id="text_7">
    <!-- 1 -->
    <g style="fill: #17242f" transform="translate(65.529688 302.069844) scale(0.11 -0.11)">
     <use xlink:href="#DejaVuSans-14"/>
    </g>
   </g>
   <g id="text_8">
    <!-- R9 -->
    <g style="fill: #17242f" transform="translate(215.176953 124.791797) scale(0.13 -0.13)">
     <defs>
      <path id="DejaVuSans-1c" d="M 703 97 
L 703 672 
Q 941 559 1184 500 
Q 1428 441 1663 441 
Q 2288 441 2617 861 
Q 2947 1281 2994 2138 
Q 2813 1869 2534 1725 
Q 2256 1581 1919 1581 
Q 1219 1581 811 2004 
Q 403 2428 403 3163 
Q 403 3881 828 4315 
Q 1253 4750 1959 4750 
Q 2769 4750 3195 4129 
Q 3622 3509 3622 2328 
Q 3622 1225 3098 567 
Q 2575 -91 1691 -91 
Q 1453 -91 1209 -44 
Q 966 3 703 97 
z
M 1959 2075 
Q 2384 2075 2632 2365 
Q 2881 2656 2881 3163 
Q 2881 3666 2632 3958 
Q 2384 4250 1959 4250 
Q 1534 4250 1286 3958 
Q 1038 3666 1038 3163 
Q 1038 2656 1286 2365 
Q 1534 2075 1959 2075 
z
" transform="scale(0.015625)"/>
     </defs>
     <use xlink:href="#DejaVuSans-35"/>
     <use xlink:href="#DejaVuSans-1c" transform="translate(69.484375 0)"/>
    </g>
    <!-- 47k -->
    <g style="fill: #17242f" transform="translate(211.793906 137.998984) scale(0.13 -0.13)">
     <defs>
      <path id="DejaVuSans-17" d="M 2419 4116 
L 825 1625 
L 2419 1625 
L 2419 4116 
z
M 2253 4666 
L 3047 4666 
L 3047 1625 
L 3713 1625 
L 3713 1100 
L 3047 1100 
L 3047 0 
L 2419 0 
L 2419 1100 
L 313 1100 
L 313 1709 
L 2253 4666 
z
" transform="scale(0.015625)"/>
      <path id="DejaVuSans-1a" d="M 525 4666 
L 3525 4666 
L 3525 4397 
L 1831 0 
L 1172 0 
L 2766 4134 
L 525 4134 
L 525 4666 
z
" transform="scale(0.015625)"/>
     </defs>
     <use xlink:href="#DejaVuSans-17"/>
     <use xlink:href="#DejaVuSans-1a" transform="translate(63.625 0)"/>
     <use xlink:href="#DejaVuSans-4e" transform="translate(127.25 0)"/>
    </g>
   </g>
   <g id="text_9">
    <!-- VREF -->
    <g style="fill: #8a1c1c" transform="translate(264.113437 98.934375) scale(0.12 -0.12)">
     <defs>
      <path id="DejaVuSans-39" d="M 1831 0 
L 50 4666 
L 709 4666 
L 2188 738 
L 3669 4666 
L 4325 4666 
L 2547 0 
L 1831 0 
z
" transform="scale(0.015625)"/>
      <path id="DejaVuSans-28" d="M 628 4666 
L 3578 4666 
L 3578 4134 
L 1259 4134 
L 1259 2753 
L 3481 2753 
L 3481 2222 
L 1259 2222 
L 1259 531 
L 3634 531 
L 3634 0 
L 628 0 
L 628 4666 
z
" transform="scale(0.015625)"/>
      <path id="DejaVuSans-29" d="M 628 4666 
L 3309 4666 
L 3309 4134 
L 1259 4134 
L 1259 2759 
L 3109 2759 
L 3109 2228 
L 1259 2228 
L 1259 0 
L 628 0 
L 628 4666 
z
" transform="scale(0.015625)"/>
     </defs>
     <use xlink:href="#DejaVuSans-39"/>
     <use xlink:href="#DejaVuSans-35" transform="translate(68.40625 0)"/>
     <use xlink:href="#DejaVuSans-28" transform="translate(137.890625 0)"/>
     <use xlink:href="#DejaVuSans-29" transform="translate(201.078125 0)"/>
    </g>
   </g>
   <g id="text_10">
    <!-- D1 -->
    <g style="fill: #17242f" transform="translate(225.488437 262.398906) scale(0.13 -0.13)">
     <defs>
      <path id="DejaVuSans-27" d="M 1259 4147 
L 1259 519 
L 2022 519 
Q 2988 519 3436 956 
Q 3884 1394 3884 2338 
Q 3884 3275 3436 3711 
Q 2988 4147 2022 4147 
L 1259 4147 
z
M 628 4666 
L 1925 4666 
Q 3281 4666 3915 4102 
Q 4550 3538 4550 2338 
Q 4550 1131 3912 565 
Q 3275 0 1925 0 
L 628 0 
L 628 4666 
z
" transform="scale(0.015625)"/>
     </defs>
     <use xlink:href="#DejaVuSans-27"/>
     <use xlink:href="#DejaVuSans-14" transform="translate(77 0)"/>
    </g>
    <!-- 8.2V -->
    <g style="fill: #17242f" transform="translate(219.845625 275.391797) scale(0.13 -0.13)">
     <defs>
      <path id="DejaVuSans-1b" d="M 2034 2216 
Q 1584 2216 1326 1975 
Q 1069 1734 1069 1313 
Q 1069 891 1326 650 
Q 1584 409 2034 409 
Q 2484 409 2743 651 
Q 3003 894 3003 1313 
Q 3003 1734 2745 1975 
Q 2488 2216 2034 2216 
z
M 1403 2484 
Q 997 2584 770 2862 
Q 544 3141 544 3541 
Q 544 4100 942 4425 
Q 1341 4750 2034 4750 
Q 2731 4750 3128 4425 
Q 3525 4100 3525 3541 
Q 3525 3141 3298 2862 
Q 3072 2584 2669 2484 
Q 3125 2378 3379 2068 
Q 3634 1759 3634 1313 
Q 3634 634 3220 271 
Q 2806 -91 2034 -91 
Q 1263 -91 848 271 
Q 434 634 434 1313 
Q 434 1759 690 2068 
Q 947 2378 1403 2484 
z
M 1172 3481 
Q 1172 3119 1398 2916 
Q 1625 2713 2034 2713 
Q 2441 2713 2670 2916 
Q 2900 3119 2900 3481 
Q 2900 3844 2670 4047 
Q 2441 4250 2034 4250 
Q 1625 4250 1398 4047 
Q 1172 3844 1172 3481 
z
" transform="scale(0.015625)"/>
      <path id="DejaVuSans-11" d="M 684 794 
L 1344 794 
L 1344 0 
L 684 0 
L 684 794 
z
" transform="scale(0.015625)"/>
     </defs>
     <use xlink:href="#DejaVuSans-1b"/>
     <use xlink:href="#DejaVuSans-11" transform="translate(63.625 0)"/>
     <use xlink:href="#DejaVuSans-15" transform="translate(95.40625 0)"/>
     <use xlink:href="#DejaVuSans-39" transform="translate(159.03125 0)"/>
    </g>
   </g>
   <g id="text_11">
    <!-- C4 -->
    <g style="fill: #17242f" transform="translate(272.754609 130.191797) scale(0.13 -0.13)">
     <defs>
      <path id="DejaVuSans-26" d="M 4122 4306 
L 4122 3641 
Q 3803 3938 3442 4084 
Q 3081 4231 2675 4231 
Q 1875 4231 1450 3742 
Q 1025 3253 1025 2328 
Q 1025 1406 1450 917 
Q 1875 428 2675 428 
Q 3081 428 3442 575 
Q 3803 722 4122 1019 
L 4122 359 
Q 3791 134 3420 21 
Q 3050 -91 2638 -91 
Q 1578 -91 968 557 
Q 359 1206 359 2328 
Q 359 3453 968 4101 
Q 1578 4750 2638 4750 
Q 3056 4750 3426 4639 
Q 3797 4528 4122 4306 
z
" transform="scale(0.015625)"/>
     </defs>
     <use xlink:href="#DejaVuSans-26"/>
     <use xlink:href="#DejaVuSans-17" transform="translate(69.828125 0)"/>
    </g>
    <!-- 47µF -->
    <g style="fill: #17242f" transform="translate(265.283672 141.847109) scale(0.13 -0.13)">
     <defs>
      <path id="DejaVuSans-77" d="M 544 -1331 
L 544 3500 
L 1119 3500 
L 1119 1325 
Q 1119 872 1334 640 
Q 1550 409 1972 409 
Q 2434 409 2667 671 
Q 2900 934 2900 1459 
L 2900 3500 
L 3475 3500 
L 3475 806 
Q 3475 619 3529 530 
Q 3584 441 3700 441 
Q 3728 441 3778 458 
Q 3828 475 3916 513 
L 3916 50 
Q 3788 -22 3673 -56 
Q 3559 -91 3450 -91 
Q 3234 -91 3106 31 
Q 2978 153 2931 403 
Q 2775 156 2548 32 
Q 2322 -91 2016 -91 
Q 1697 -91 1473 31 
Q 1250 153 1119 397 
L 1119 -1331 
L 544 -1331 
z
" transform="scale(0.015625)"/>
     </defs>
     <use xlink:href="#DejaVuSans-17"/>
     <use xlink:href="#DejaVuSans-1a" transform="translate(63.625 0)"/>
     <use xlink:href="#DejaVuSans-77" transform="translate(127.25 0)"/>
     <use xlink:href="#DejaVuSans-29" transform="translate(190.875 0)"/>
    </g>
   </g>
   <g id="text_12">
    <!-- R8 -->
    <g style="fill: #17242f" transform="translate(319.576953 124.791797) scale(0.13 -0.13)">
     <use xlink:href="#DejaVuSans-35"/>
     <use xlink:href="#DejaVuSans-1b" transform="translate(69.484375 0)"/>
    </g>
    <!-- 1k -->
    <g style="fill: #17242f" transform="translate(320.329531 137.998984) scale(0.13 -0.13)">
     <use xlink:href="#DejaVuSans-14"/>
     <use xlink:href="#DejaVuSans-4e" transform="translate(63.625 0)"/>
    </g>
   </g>
   <g id="text_13">
    <!-- Q1  MMBT3904 -->
    <g style="fill: #17242f" transform="translate(459.689062 145.346328) scale(0.13 -0.13)">
     <defs>
      <path id="DejaVuSans-34" d="M 2522 4238 
Q 1834 4238 1429 3725 
Q 1025 3213 1025 2328 
Q 1025 1447 1429 934 
Q 1834 422 2522 422 
Q 3209 422 3611 934 
Q 4013 1447 4013 2328 
Q 4013 3213 3611 3725 
Q 3209 4238 2522 4238 
z
M 3406 84 
L 4238 -825 
L 3475 -825 
L 2784 -78 
Q 2681 -84 2626 -87 
Q 2572 -91 2522 -91 
Q 1538 -91 948 567 
Q 359 1225 359 2328 
Q 359 3434 948 4092 
Q 1538 4750 2522 4750 
Q 3503 4750 4090 4092 
Q 4678 3434 4678 2328 
Q 4678 1516 4351 937 
Q 4025 359 3406 84 
z
" transform="scale(0.015625)"/>
      <path id="DejaVuSans-3" transform="scale(0.015625)"/>
      <path id="DejaVuSans-30" d="M 628 4666 
L 1569 4666 
L 2759 1491 
L 3956 4666 
L 4897 4666 
L 4897 0 
L 4281 0 
L 4281 4097 
L 3078 897 
L 2444 897 
L 1241 4097 
L 1241 0 
L 628 0 
L 628 4666 
z
" transform="scale(0.015625)"/>
      <path id="DejaVuSans-25" d="M 1259 2228 
L 1259 519 
L 2272 519 
Q 2781 519 3026 730 
Q 3272 941 3272 1375 
Q 3272 1813 3026 2020 
Q 2781 2228 2272 2228 
L 1259 2228 
z
M 1259 4147 
L 1259 2741 
L 2194 2741 
Q 2656 2741 2882 2914 
Q 3109 3088 3109 3444 
Q 3109 3797 2882 3972 
Q 2656 4147 2194 4147 
L 1259 4147 
z
M 628 4666 
L 2241 4666 
Q 2963 4666 3353 4366 
Q 3744 4066 3744 3513 
Q 3744 3084 3544 2831 
Q 3344 2578 2956 2516 
Q 3422 2416 3680 2098 
Q 3938 1781 3938 1306 
Q 3938 681 3513 340 
Q 3088 0 2303 0 
L 628 0 
L 628 4666 
z
" transform="scale(0.015625)"/>
      <path id="DejaVuSans-37" d="M -19 4666 
L 3928 4666 
L 3928 4134 
L 2272 4134 
L 2272 0 
L 1638 0 
L 1638 4134 
L -19 4134 
L -19 4666 
z
" transform="scale(0.015625)"/>
      <path id="DejaVuSans-13" d="M 2034 4250 
Q 1547 4250 1301 3770 
Q 1056 3291 1056 2328 
Q 1056 1369 1301 889 
Q 1547 409 2034 409 
Q 2525 409 2770 889 
Q 3016 1369 3016 2328 
Q 3016 3291 2770 3770 
Q 2525 4250 2034 4250 
z
M 2034 4750 
Q 2819 4750 3233 4129 
Q 3647 3509 3647 2328 
Q 3647 1150 3233 529 
Q 2819 -91 2034 -91 
Q 1250 -91 836 529 
Q 422 1150 422 2328 
Q 422 3509 836 4129 
Q 1250 4750 2034 4750 
z
" transform="scale(0.015625)"/>
     </defs>
     <use xlink:href="#DejaVuSans-34"/>
     <use xlink:href="#DejaVuSans-14" transform="translate(78.71875 0)"/>
     <use xlink:href="#DejaVuSans-3" transform="translate(142.34375 0)"/>
     <use xlink:href="#DejaVuSans-3" transform="translate(174.125 0)"/>
     <use xlink:href="#DejaVuSans-30" transform="translate(205.90625 0)"/>
     <use xlink:href="#DejaVuSans-30" transform="translate(292.1875 0)"/>
     <use xlink:href="#DejaVuSans-25" transform="translate(378.46875 0)"/>
     <use xlink:href="#DejaVuSans-37" transform="translate(447.078125 0)"/>
     <use xlink:href="#DejaVuSans-16" transform="translate(508.15625 0)"/>
     <use xlink:href="#DejaVuSans-1c" transform="translate(571.78125 0)"/>
     <use xlink:href="#DejaVuSans-13" transform="translate(635.40625 0)"/>
     <use xlink:href="#DejaVuSans-17" transform="translate(699.03125 0)"/>
    </g>
   </g>
   <g id="text_14">
    <!-- P3 -->
    <g style="fill: #8a1c1c" transform="translate(394.65375 36.047812) scale(0.12 -0.12)">
     <use xlink:href="#DejaVuSans-33"/>
     <use xlink:href="#DejaVuSans-16" transform="translate(60.296875 0)"/>
    </g>
   </g>
   <g id="text_15">
    <!-- VPIP -->
    <g style="fill: #8a1c1c" transform="translate(387.886562 240.398906) scale(0.13 -0.13)">
     <defs>
      <path id="DejaVuSans-2c" d="M 628 4666 
L 1259 4666 
L 1259 0 
L 628 0 
L 628 4666 
z
" transform="scale(0.015625)"/>
     </defs>
     <use xlink:href="#DejaVuSans-39"/>
     <use xlink:href="#DejaVuSans-33" transform="translate(68.40625 0)"/>
     <use xlink:href="#DejaVuSans-2c" transform="translate(128.703125 0)"/>
     <use xlink:href="#DejaVuSans-33" transform="translate(158.203125 0)"/>
    </g>
   </g>
   <g id="text_16">
    <!-- C1 -->
    <g style="fill: #17242f" transform="translate(487.014609 372.191797) scale(0.13 -0.13)">
     <use xlink:href="#DejaVuSans-26"/>
     <use xlink:href="#DejaVuSans-14" transform="translate(69.828125 0)"/>
    </g>
    <!-- 22µF -->
    <g style="fill: #17242f" transform="translate(479.543672 383.932422) scale(0.13 -0.13)">
     <use xlink:href="#DejaVuSans-15"/>
     <use xlink:href="#DejaVuSans-15" transform="translate(63.625 0)"/>
     <use xlink:href="#DejaVuSans-77" transform="translate(127.25 0)"/>
     <use xlink:href="#DejaVuSans-29" transform="translate(190.875 0)"/>
    </g>
   </g>
   <g id="text_17">
    <!-- C5 -->
    <g style="fill: #17242f" transform="translate(537.414609 372.191797) scale(0.13 -0.13)">
     <defs>
      <path id="DejaVuSans-18" d="M 691 4666 
L 3169 4666 
L 3169 4134 
L 1269 4134 
L 1269 2991 
Q 1406 3038 1543 3061 
Q 1681 3084 1819 3084 
Q 2600 3084 3056 2656 
Q 3513 2228 3513 1497 
Q 3513 744 3044 326 
Q 2575 -91 1722 -91 
Q 1428 -91 1123 -41 
Q 819 9 494 109 
L 494 744 
Q 775 591 1075 516 
Q 1375 441 1709 441 
Q 2250 441 2565 725 
Q 2881 1009 2881 1497 
Q 2881 1984 2565 2268 
Q 2250 2553 1709 2553 
Q 1456 2553 1204 2497 
Q 953 2441 691 2322 
L 691 4666 
z
" transform="scale(0.015625)"/>
     </defs>
     <use xlink:href="#DejaVuSans-26"/>
     <use xlink:href="#DejaVuSans-18" transform="translate(69.828125 0)"/>
    </g>
    <!-- 10µF -->
    <g style="fill: #17242f" transform="translate(529.943672 383.932422) scale(0.13 -0.13)">
     <use xlink:href="#DejaVuSans-14"/>
     <use xlink:href="#DejaVuSans-13" transform="translate(63.625 0)"/>
     <use xlink:href="#DejaVuSans-77" transform="translate(127.25 0)"/>
     <use xlink:href="#DejaVuSans-29" transform="translate(190.875 0)"/>
    </g>
   </g>
   <g id="text_18">
    <!-- R10 -->
    <g style="fill: #17242f" transform="translate(641.301328 238.191797) scale(0.13 -0.13)">
     <use xlink:href="#DejaVuSans-35"/>
     <use xlink:href="#DejaVuSans-14" transform="translate(69.484375 0)"/>
     <use xlink:href="#DejaVuSans-13" transform="translate(133.109375 0)"/>
    </g>
    <!-- 6.8k -->
    <g style="fill: #17242f" transform="translate(639.988125 251.306562) scale(0.13 -0.13)">
     <defs>
      <path id="DejaVuSans-19" d="M 2113 2584 
Q 1688 2584 1439 2293 
Q 1191 2003 1191 1497 
Q 1191 994 1439 701 
Q 1688 409 2113 409 
Q 2538 409 2786 701 
Q 3034 994 3034 1497 
Q 3034 2003 2786 2293 
Q 2538 2584 2113 2584 
z
M 3366 4563 
L 3366 3988 
Q 3128 4100 2886 4159 
Q 2644 4219 2406 4219 
Q 1781 4219 1451 3797 
Q 1122 3375 1075 2522 
Q 1259 2794 1537 2939 
Q 1816 3084 2150 3084 
Q 2853 3084 3261 2657 
Q 3669 2231 3669 1497 
Q 3669 778 3244 343 
Q 2819 -91 2113 -91 
Q 1303 -91 875 529 
Q 447 1150 447 2328 
Q 447 3434 972 4092 
Q 1497 4750 2381 4750 
Q 2619 4750 2861 4703 
Q 3103 4656 3366 4563 
z
" transform="scale(0.015625)"/>
     </defs>
     <use xlink:href="#DejaVuSans-19"/>
     <use xlink:href="#DejaVuSans-11" transform="translate(63.625 0)"/>
     <use xlink:href="#DejaVuSans-1b" transform="translate(95.40625 0)"/>
     <use xlink:href="#DejaVuSans-4e" transform="translate(159.03125 0)"/>
    </g>
   </g>
   <g id="text_19">
    <!-- MICOUT -->
    <g style="fill: #8a1c1c" transform="translate(559.457813 395.927812) scale(0.12 -0.12)">
     <defs>
      <path id="DejaVuSans-32" d="M 2522 4238 
Q 1834 4238 1429 3725 
Q 1025 3213 1025 2328 
Q 1025 1447 1429 934 
Q 1834 422 2522 422 
Q 3209 422 3611 934 
Q 4013 1447 4013 2328 
Q 4013 3213 3611 3725 
Q 3209 4238 2522 4238 
z
M 2522 4750 
Q 3503 4750 4090 4092 
Q 4678 3434 4678 2328 
Q 4678 1225 4090 567 
Q 3503 -91 2522 -91 
Q 1538 -91 948 565 
Q 359 1222 359 2328 
Q 359 3434 948 4092 
Q 1538 4750 2522 4750 
z
" transform="scale(0.015625)"/>
      <path id="DejaVuSans-38" d="M 556 4666 
L 1191 4666 
L 1191 1831 
Q 1191 1081 1462 751 
Q 1734 422 2344 422 
Q 2950 422 3222 751 
Q 3494 1081 3494 1831 
L 3494 4666 
L 4128 4666 
L 4128 1753 
Q 4128 841 3676 375 
Q 3225 -91 2344 -91 
Q 1459 -91 1007 375 
Q 556 841 556 1753 
L 556 4666 
z
" transform="scale(0.015625)"/>
     </defs>
     <use xlink:href="#DejaVuSans-30"/>
     <use xlink:href="#DejaVuSans-2c" transform="translate(86.28125 0)"/>
     <use xlink:href="#DejaVuSans-26" transform="translate(115.78125 0)"/>
     <use xlink:href="#DejaVuSans-32" transform="translate(185.609375 0)"/>
     <use xlink:href="#DejaVuSans-38" transform="translate(264.328125 0)"/>
     <use xlink:href="#DejaVuSans-37" transform="translate(337.515625 0)"/>
    </g>
   </g>
   <g id="text_20">
    <!-- MIC1 -->
    <g style="fill: #17242f" transform="translate(579.180937 469.727812) scale(0.12 -0.12)">
     <use xlink:href="#DejaVuSans-30"/>
     <use xlink:href="#DejaVuSans-2c" transform="translate(86.28125 0)"/>
     <use xlink:href="#DejaVuSans-26" transform="translate(115.78125 0)"/>
     <use xlink:href="#DejaVuSans-14" transform="translate(185.609375 0)"/>
    </g>
   </g>
   <g id="text_21">
    <!-- AOM-5024 -->
    <g style="fill: #17242f" transform="translate(551.643281 492.763828) scale(0.11 -0.11)">
     <defs>
      <path id="DejaVuSans-24" d="M 2188 4044 
L 1331 1722 
L 3047 1722 
L 2188 4044 
z
M 1831 4666 
L 2547 4666 
L 4325 0 
L 3669 0 
L 3244 1197 
L 1141 1197 
L 716 0 
L 50 0 
L 1831 4666 
z
" transform="scale(0.015625)"/>
      <path id="DejaVuSans-10" d="M 313 2009 
L 1997 2009 
L 1997 1497 
L 313 1497 
L 313 2009 
z
" transform="scale(0.015625)"/>
     </defs>
     <use xlink:href="#DejaVuSans-24"/>
     <use xlink:href="#DejaVuSans-32" transform="translate(66.65625 0)"/>
     <use xlink:href="#DejaVuSans-30" transform="translate(145.375 0)"/>
     <use xlink:href="#DejaVuSans-10" transform="translate(231.65625 0)"/>
     <use xlink:href="#DejaVuSans-18" transform="translate(267.734375 0)"/>
     <use xlink:href="#DejaVuSans-13" transform="translate(331.359375 0)"/>
     <use xlink:href="#DejaVuSans-15" transform="translate(394.984375 0)"/>
     <use xlink:href="#DejaVuSans-17" transform="translate(458.609375 0)"/>
    </g>
   </g>
   <g id="text_22">
    <!-- R3 -->
    <g style="fill: #17242f" transform="translate(832.636953 406.391797) scale(0.13 -0.13)">
     <use xlink:href="#DejaVuSans-35"/>
     <use xlink:href="#DejaVuSans-16" transform="translate(69.484375 0)"/>
    </g>
    <!-- 100k -->
    <g style="fill: #17242f" transform="translate(825.118281 419.506562) scale(0.13 -0.13)">
     <use xlink:href="#DejaVuSans-14"/>
     <use xlink:href="#DejaVuSans-13" transform="translate(63.625 0)"/>
     <use xlink:href="#DejaVuSans-13" transform="translate(127.25 0)"/>
     <use xlink:href="#DejaVuSans-4e" transform="translate(190.875 0)"/>
    </g>
   </g>
   <g id="text_23">
    <!-- R4 -->
    <g style="fill: #17242f" transform="translate(832.636953 543.198906) scale(0.13 -0.13)">
     <use xlink:href="#DejaVuSans-35"/>
     <use xlink:href="#DejaVuSans-17" transform="translate(69.484375 0)"/>
    </g>
    <!-- 100k -->
    <g style="fill: #17242f" transform="translate(825.118281 556.306562) scale(0.13 -0.13)">
     <use xlink:href="#DejaVuSans-14"/>
     <use xlink:href="#DejaVuSans-13" transform="translate(63.625 0)"/>
     <use xlink:href="#DejaVuSans-13" transform="translate(127.25 0)"/>
     <use xlink:href="#DejaVuSans-4e" transform="translate(190.875 0)"/>
    </g>
   </g>
   <g id="text_24">
    <!-- C2 -->
    <g style="fill: #17242f" transform="translate(739.014609 358.791797) scale(0.13 -0.13)">
     <use xlink:href="#DejaVuSans-26"/>
     <use xlink:href="#DejaVuSans-15" transform="translate(69.828125 0)"/>
    </g>
    <!-- 22µF -->
    <g style="fill: #17242f" transform="translate(731.543672 370.532422) scale(0.13 -0.13)">
     <use xlink:href="#DejaVuSans-15"/>
     <use xlink:href="#DejaVuSans-15" transform="translate(63.625 0)"/>
     <use xlink:href="#DejaVuSans-77" transform="translate(127.25 0)"/>
     <use xlink:href="#DejaVuSans-29" transform="translate(190.875 0)"/>
    </g>
   </g>
   <g id="text_25">
    <!-- Q2  MMBT3906 -->
    <g style="fill: #17242f" transform="translate(887.176406 321.746328) scale(0.13 -0.13)">
     <use xlink:href="#DejaVuSans-34"/>
     <use xlink:href="#DejaVuSans-15" transform="translate(78.71875 0)"/>
     <use xlink:href="#DejaVuSans-3" transform="translate(142.34375 0)"/>
     <use xlink:href="#DejaVuSans-3" transform="translate(174.125 0)"/>
     <use xlink:href="#DejaVuSans-30" transform="translate(205.90625 0)"/>
     <use xlink:href="#DejaVuSans-30" transform="translate(292.1875 0)"/>
     <use xlink:href="#DejaVuSans-25" transform="translate(378.46875 0)"/>
     <use xlink:href="#DejaVuSans-37" transform="translate(447.078125 0)"/>
     <use xlink:href="#DejaVuSans-16" transform="translate(508.15625 0)"/>
     <use xlink:href="#DejaVuSans-1c" transform="translate(571.78125 0)"/>
     <use xlink:href="#DejaVuSans-13" transform="translate(635.40625 0)"/>
     <use xlink:href="#DejaVuSans-19" transform="translate(699.03125 0)"/>
    </g>
   </g>
   <g id="text_26">
    <!-- R1 -->
    <g style="fill: #17242f" transform="translate(989.296953 335.518906) scale(0.13 -0.13)">
     <use xlink:href="#DejaVuSans-35"/>
     <use xlink:href="#DejaVuSans-14" transform="translate(69.484375 0)"/>
    </g>
    <!-- 7.5k -->
    <g style="fill: #17242f" transform="translate(983.848125 348.626562) scale(0.13 -0.13)">
     <use xlink:href="#DejaVuSans-1a"/>
     <use xlink:href="#DejaVuSans-11" transform="translate(63.625 0)"/>
     <use xlink:href="#DejaVuSans-18" transform="translate(95.40625 0)"/>
     <use xlink:href="#DejaVuSans-4e" transform="translate(159.03125 0)"/>
    </g>
   </g>
   <g id="text_27">
    <!-- P2 -->
    <g style="fill: #8a1c1c" transform="translate(1121.91375 369.133125) scale(0.12 -0.12)">
     <use xlink:href="#DejaVuSans-33"/>
     <use xlink:href="#DejaVuSans-15" transform="translate(60.296875 0)"/>
    </g>
   </g>
   <g id="text_28">
    <!-- CB2 -->
    <g style="fill: #17242f" transform="translate(975.815 460.511797) scale(0.13 -0.13)">
     <use xlink:href="#DejaVuSans-26"/>
     <use xlink:href="#DejaVuSans-25" transform="translate(69.828125 0)"/>
     <use xlink:href="#DejaVuSans-15" transform="translate(138.4375 0)"/>
    </g>
    <!-- 22µF -->
    <g style="fill: #17242f" transform="translate(972.803672 472.252422) scale(0.13 -0.13)">
     <use xlink:href="#DejaVuSans-15"/>
     <use xlink:href="#DejaVuSans-15" transform="translate(63.625 0)"/>
     <use xlink:href="#DejaVuSans-77" transform="translate(127.25 0)"/>
     <use xlink:href="#DejaVuSans-29" transform="translate(190.875 0)"/>
    </g>
   </g>
   <g id="text_29">
    <!-- NB2 -->
    <g style="fill: #8a1c1c" transform="translate(1019.996719 452.990937) scale(0.1 -0.1)">
     <use xlink:href="#DejaVuSans-31"/>
     <use xlink:href="#DejaVuSans-25" transform="translate(74.8125 0)"/>
     <use xlink:href="#DejaVuSans-15" transform="translate(143.421875 0)"/>
    </g>
   </g>
   <g id="text_30">
    <!-- RB2 -->
    <g style="fill: #17242f" transform="translate(1051.437344 460.604219) scale(0.13 -0.13)">
     <use xlink:href="#DejaVuSans-35"/>
     <use xlink:href="#DejaVuSans-25" transform="translate(69.484375 0)"/>
     <use xlink:href="#DejaVuSans-15" transform="translate(138.09375 0)"/>
    </g>
    <!-- 47Ω -->
    <g style="fill: #17242f" transform="translate(1051.310391 473.575781) scale(0.13 -0.13)">
     <defs>
      <path id="DejaVuSans-33d" d="M 4647 556 
L 4647 0 
L 2772 0 
L 2772 556 
Q 3325 859 3634 1378 
Q 3944 1897 3944 2528 
Q 3944 3278 3531 3731 
Q 3119 4184 2444 4184 
Q 1769 4184 1355 3729 
Q 941 3275 941 2528 
Q 941 1897 1250 1378 
Q 1563 859 2119 556 
L 2119 0 
L 244 0 
L 244 556 
L 1241 556 
Q 747 991 519 1456 
Q 294 1922 294 2497 
Q 294 3491 894 4106 
Q 1491 4722 2444 4722 
Q 3391 4722 3994 4106 
Q 4594 3494 4594 2528 
Q 4594 1922 4372 1459 
Q 4150 997 3647 556 
L 4647 556 
z
" transform="scale(0.015625)"/>
     </defs>
     <use xlink:href="#DejaVuSans-17"/>
     <use xlink:href="#DejaVuSans-1a" transform="translate(63.625 0)"/>
     <use xlink:href="#DejaVuSans-33d" transform="translate(127.25 0)"/>
    </g>
   </g>
   <g id="text_31">
    <!-- R6 -->
    <g style="fill: #17242f" transform="translate(1192.636953 406.391797) scale(0.13 -0.13)">
     <use xlink:href="#DejaVuSans-35"/>
     <use xlink:href="#DejaVuSans-19" transform="translate(69.484375 0)"/>
    </g>
    <!-- 100k -->
    <g style="fill: #17242f" transform="translate(1185.118281 419.506562) scale(0.13 -0.13)">
     <use xlink:href="#DejaVuSans-14"/>
     <use xlink:href="#DejaVuSans-13" transform="translate(63.625 0)"/>
     <use xlink:href="#DejaVuSans-13" transform="translate(127.25 0)"/>
     <use xlink:href="#DejaVuSans-4e" transform="translate(190.875 0)"/>
    </g>
   </g>
   <g id="text_32">
    <!-- R7 -->
    <g style="fill: #17242f" transform="translate(1192.636953 543.198906) scale(0.13 -0.13)">
     <use xlink:href="#DejaVuSans-35"/>
     <use xlink:href="#DejaVuSans-1a" transform="translate(69.484375 0)"/>
    </g>
    <!-- 100k -->
    <g style="fill: #17242f" transform="translate(1185.118281 556.306562) scale(0.13 -0.13)">
     <use xlink:href="#DejaVuSans-14"/>
     <use xlink:href="#DejaVuSans-13" transform="translate(63.625 0)"/>
     <use xlink:href="#DejaVuSans-13" transform="translate(127.25 0)"/>
     <use xlink:href="#DejaVuSans-4e" transform="translate(190.875 0)"/>
    </g>
   </g>
   <g id="text_33">
    <!-- C3 -->
    <g style="fill: #17242f" transform="translate(1124.214609 544.991797) scale(0.13 -0.13)">
     <use xlink:href="#DejaVuSans-26"/>
     <use xlink:href="#DejaVuSans-16" transform="translate(69.828125 0)"/>
    </g>
    <!-- 22µF -->
    <g style="fill: #17242f" transform="translate(1116.743672 556.732422) scale(0.13 -0.13)">
     <use xlink:href="#DejaVuSans-15"/>
     <use xlink:href="#DejaVuSans-15" transform="translate(63.625 0)"/>
     <use xlink:href="#DejaVuSans-77" transform="translate(127.25 0)"/>
     <use xlink:href="#DejaVuSans-29" transform="translate(190.875 0)"/>
    </g>
   </g>
   <g id="text_34">
    <!-- Q3  MMBT3906 -->
    <g style="fill: #17242f" transform="translate(1247.176406 321.746328) scale(0.13 -0.13)">
     <use xlink:href="#DejaVuSans-34"/>
     <use xlink:href="#DejaVuSans-16" transform="translate(78.71875 0)"/>
     <use xlink:href="#DejaVuSans-3" transform="translate(142.34375 0)"/>
     <use xlink:href="#DejaVuSans-3" transform="translate(174.125 0)"/>
     <use xlink:href="#DejaVuSans-30" transform="translate(205.90625 0)"/>
     <use xlink:href="#DejaVuSans-30" transform="translate(292.1875 0)"/>
     <use xlink:href="#DejaVuSans-25" transform="translate(378.46875 0)"/>
     <use xlink:href="#DejaVuSans-37" transform="translate(447.078125 0)"/>
     <use xlink:href="#DejaVuSans-16" transform="translate(508.15625 0)"/>
     <use xlink:href="#DejaVuSans-1c" transform="translate(571.78125 0)"/>
     <use xlink:href="#DejaVuSans-13" transform="translate(635.40625 0)"/>
     <use xlink:href="#DejaVuSans-19" transform="translate(699.03125 0)"/>
    </g>
   </g>
   <g id="text_35">
    <!-- R2 -->
    <g style="fill: #17242f" transform="translate(1349.296953 335.604219) scale(0.13 -0.13)">
     <use xlink:href="#DejaVuSans-35"/>
     <use xlink:href="#DejaVuSans-15" transform="translate(69.484375 0)"/>
    </g>
    <!-- 10k -->
    <g style="fill: #17242f" transform="translate(1345.913906 348.626562) scale(0.13 -0.13)">
     <use xlink:href="#DejaVuSans-14"/>
     <use xlink:href="#DejaVuSans-13" transform="translate(63.625 0)"/>
     <use xlink:href="#DejaVuSans-4e" transform="translate(127.25 0)"/>
    </g>
   </g>
   <g id="text_36">
    <!-- P3 -->
    <g style="fill: #8a1c1c" transform="translate(1481.91375 369.047812) scale(0.12 -0.12)">
     <use xlink:href="#DejaVuSans-33"/>
     <use xlink:href="#DejaVuSans-16" transform="translate(60.296875 0)"/>
    </g>
   </g>
   <g id="text_37">
    <!-- CB3 -->
    <g style="fill: #17242f" transform="translate(1335.815 460.511797) scale(0.13 -0.13)">
     <use xlink:href="#DejaVuSans-26"/>
     <use xlink:href="#DejaVuSans-25" transform="translate(69.828125 0)"/>
     <use xlink:href="#DejaVuSans-16" transform="translate(138.4375 0)"/>
    </g>
    <!-- 22µF -->
    <g style="fill: #17242f" transform="translate(1332.803672 472.252422) scale(0.13 -0.13)">
     <use xlink:href="#DejaVuSans-15"/>
     <use xlink:href="#DejaVuSans-15" transform="translate(63.625 0)"/>
     <use xlink:href="#DejaVuSans-77" transform="translate(127.25 0)"/>
     <use xlink:href="#DejaVuSans-29" transform="translate(190.875 0)"/>
    </g>
   </g>
   <g id="text_38">
    <!-- NB3 -->
    <g style="fill: #8a1c1c" transform="translate(1379.996719 452.919844) scale(0.1 -0.1)">
     <use xlink:href="#DejaVuSans-31"/>
     <use xlink:href="#DejaVuSans-25" transform="translate(74.8125 0)"/>
     <use xlink:href="#DejaVuSans-16" transform="translate(143.421875 0)"/>
    </g>
   </g>
   <g id="text_39">
    <!-- RB3 -->
    <g style="fill: #17242f" transform="translate(1411.437344 460.511797) scale(0.13 -0.13)">
     <use xlink:href="#DejaVuSans-35"/>
     <use xlink:href="#DejaVuSans-25" transform="translate(69.484375 0)"/>
     <use xlink:href="#DejaVuSans-16" transform="translate(138.09375 0)"/>
    </g>
    <!-- 47Ω -->
    <g style="fill: #17242f" transform="translate(1411.310391 473.575781) scale(0.13 -0.13)">
     <use xlink:href="#DejaVuSans-17"/>
     <use xlink:href="#DejaVuSans-1a" transform="translate(63.625 0)"/>
     <use xlink:href="#DejaVuSans-33d" transform="translate(127.25 0)"/>
    </g>
   </g>
   <g id="text_40">
    <!-- P48 → 8 V PIP adapter   ·   impedance-balanced two-transistor buffer   ·   nets per netlist.py -->
    <g style="fill: #5b6672" transform="translate(552.770625 580.27125) scale(0.12 -0.12)">
     <defs>
      <path id="DejaVuSans-c1c" d="M 5050 2147 
L 5050 1866 
L 3822 638 
L 3447 1013 
L 4175 1741 
L 366 1741 
L 366 2272 
L 4175 2272 
L 3447 3000 
L 3822 3375 
L 5050 2147 
z
" transform="scale(0.015625)"/>
      <path id="DejaVuSans-44" d="M 2194 1759 
Q 1497 1759 1228 1600 
Q 959 1441 959 1056 
Q 959 750 1161 570 
Q 1363 391 1709 391 
Q 2188 391 2477 730 
Q 2766 1069 2766 1631 
L 2766 1759 
L 2194 1759 
z
M 3341 1997 
L 3341 0 
L 2766 0 
L 2766 531 
Q 2569 213 2275 61 
Q 1981 -91 1556 -91 
Q 1019 -91 701 211 
Q 384 513 384 1019 
Q 384 1609 779 1909 
Q 1175 2209 1959 2209 
L 2766 2209 
L 2766 2266 
Q 2766 2663 2505 2880 
Q 2244 3097 1772 3097 
Q 1472 3097 1187 3025 
Q 903 2953 641 2809 
L 641 3341 
Q 956 3463 1253 3523 
Q 1550 3584 1831 3584 
Q 2591 3584 2966 3190 
Q 3341 2797 3341 1997 
z
" transform="scale(0.015625)"/>
      <path id="DejaVuSans-47" d="M 2906 2969 
L 2906 4863 
L 3481 4863 
L 3481 0 
L 2906 0 
L 2906 525 
Q 2725 213 2448 61 
Q 2172 -91 1784 -91 
Q 1150 -91 751 415 
Q 353 922 353 1747 
Q 353 2572 751 3078 
Q 1150 3584 1784 3584 
Q 2172 3584 2448 3432 
Q 2725 3281 2906 2969 
z
M 947 1747 
Q 947 1113 1208 752 
Q 1469 391 1925 391 
Q 2381 391 2643 752 
Q 2906 1113 2906 1747 
Q 2906 2381 2643 2742 
Q 2381 3103 1925 3103 
Q 1469 3103 1208 2742 
Q 947 2381 947 1747 
z
" transform="scale(0.015625)"/>
      <path id="DejaVuSans-53" d="M 1159 525 
L 1159 -1331 
L 581 -1331 
L 581 3500 
L 1159 3500 
L 1159 2969 
Q 1341 3281 1617 3432 
Q 1894 3584 2278 3584 
Q 2916 3584 3314 3078 
Q 3713 2572 3713 1747 
Q 3713 922 3314 415 
Q 2916 -91 2278 -91 
Q 1894 -91 1617 61 
Q 1341 213 1159 525 
z
M 3116 1747 
Q 3116 2381 2855 2742 
Q 2594 3103 2138 3103 
Q 1681 3103 1420 2742 
Q 1159 2381 1159 1747 
Q 1159 1113 1420 752 
Q 1681 391 2138 391 
Q 2594 391 2855 752 
Q 3116 1113 3116 1747 
z
" transform="scale(0.015625)"/>
      <path id="DejaVuSans-79" d="M 684 2619 
L 1344 2619 
L 1344 1825 
L 684 1825 
L 684 2619 
z
" transform="scale(0.015625)"/>
      <path id="DejaVuSans-50" d="M 3328 2828 
Q 3544 3216 3844 3400 
Q 4144 3584 4550 3584 
Q 5097 3584 5394 3201 
Q 5691 2819 5691 2113 
L 5691 0 
L 5113 0 
L 5113 2094 
Q 5113 2597 4934 2840 
Q 4756 3084 4391 3084 
Q 3944 3084 3684 2787 
Q 3425 2491 3425 1978 
L 3425 0 
L 2847 0 
L 2847 2094 
Q 2847 2600 2669 2842 
Q 2491 3084 2119 3084 
Q 1678 3084 1418 2786 
Q 1159 2488 1159 1978 
L 1159 0 
L 581 0 
L 581 3500 
L 1159 3500 
L 1159 2956 
Q 1356 3278 1631 3431 
Q 1906 3584 2284 3584 
Q 2666 3584 2933 3390 
Q 3200 3197 3328 2828 
z
" transform="scale(0.015625)"/>
      <path id="DejaVuSans-51" d="M 3513 2113 
L 3513 0 
L 2938 0 
L 2938 2094 
Q 2938 2591 2744 2837 
Q 2550 3084 2163 3084 
Q 1697 3084 1428 2787 
Q 1159 2491 1159 1978 
L 1159 0 
L 581 0 
L 581 3500 
L 1159 3500 
L 1159 2956 
Q 1366 3272 1645 3428 
Q 1925 3584 2291 3584 
Q 2894 3584 3203 3211 
Q 3513 2838 3513 2113 
z
" transform="scale(0.015625)"/>
      <path id="DejaVuSans-46" d="M 3122 3366 
L 3122 2828 
Q 2878 2963 2633 3030 
Q 2388 3097 2138 3097 
Q 1578 3097 1268 2742 
Q 959 2388 959 1747 
Q 959 1106 1268 751 
Q 1578 397 2138 397 
Q 2388 397 2633 464 
Q 2878 531 3122 666 
L 3122 134 
Q 2881 22 2623 -34 
Q 2366 -91 2075 -91 
Q 1284 -91 818 406 
Q 353 903 353 1747 
Q 353 2603 823 3093 
Q 1294 3584 2113 3584 
Q 2378 3584 2631 3529 
Q 2884 3475 3122 3366 
z
" transform="scale(0.015625)"/>
      <path id="DejaVuSans-45" d="M 3116 1747 
Q 3116 2381 2855 2742 
Q 2594 3103 2138 3103 
Q 1681 3103 1420 2742 
Q 1159 2381 1159 1747 
Q 1159 1113 1420 752 
Q 1681 391 2138 391 
Q 2594 391 2855 752 
Q 3116 1113 3116 1747 
z
M 1159 2969 
Q 1341 3281 1617 3432 
Q 1894 3584 2278 3584 
Q 2916 3584 3314 3078 
Q 3713 2572 3713 1747 
Q 3713 922 3314 415 
Q 2916 -91 2278 -91 
Q 1894 -91 1617 61 
Q 1341 213 1159 525 
L 1159 0 
L 581 0 
L 581 4863 
L 1159 4863 
L 1159 2969 
z
" transform="scale(0.015625)"/>
      <path id="DejaVuSans-4f" d="M 603 4863 
L 1178 4863 
L 1178 0 
L 603 0 
L 603 4863 
z
" transform="scale(0.015625)"/>
      <path id="DejaVuSans-5a" d="M 269 3500 
L 844 3500 
L 1563 769 
L 2278 3500 
L 2956 3500 
L 3675 769 
L 4391 3500 
L 4966 3500 
L 4050 0 
L 3372 0 
L 2619 2869 
L 1863 0 
L 1184 0 
L 269 3500 
z
" transform="scale(0.015625)"/>
      <path id="DejaVuSans-52" d="M 1959 3097 
Q 1497 3097 1228 2736 
Q 959 2375 959 1747 
Q 959 1119 1226 758 
Q 1494 397 1959 397 
Q 2419 397 2687 759 
Q 2956 1122 2956 1747 
Q 2956 2369 2687 2733 
Q 2419 3097 1959 3097 
z
M 1959 3584 
Q 2709 3584 3137 3096 
Q 3566 2609 3566 1747 
Q 3566 888 3137 398 
Q 2709 -91 1959 -91 
Q 1206 -91 779 398 
Q 353 888 353 1747 
Q 353 2609 779 3096 
Q 1206 3584 1959 3584 
z
" transform="scale(0.015625)"/>
      <path id="DejaVuSans-56" d="M 2834 3397 
L 2834 2853 
Q 2591 2978 2328 3040 
Q 2066 3103 1784 3103 
Q 1356 3103 1142 2972 
Q 928 2841 928 2578 
Q 928 2378 1081 2264 
Q 1234 2150 1697 2047 
L 1894 2003 
Q 2506 1872 2764 1633 
Q 3022 1394 3022 966 
Q 3022 478 2636 193 
Q 2250 -91 1575 -91 
Q 1294 -91 989 -36 
Q 684 19 347 128 
L 347 722 
Q 666 556 975 473 
Q 1284 391 1588 391 
Q 1994 391 2212 530 
Q 2431 669 2431 922 
Q 2431 1156 2273 1281 
Q 2116 1406 1581 1522 
L 1381 1569 
Q 847 1681 609 1914 
Q 372 2147 372 2553 
Q 372 3047 722 3315 
Q 1072 3584 1716 3584 
Q 2034 3584 2315 3537 
Q 2597 3491 2834 3397 
z
" transform="scale(0.015625)"/>
      <path id="DejaVuSans-13ae" d="M 4531 4863 
L 4531 4384 
L 3981 4384 
Q 3672 4384 3551 4259 
Q 3431 4134 3431 3809 
L 3431 3500 
L 4378 3500 
L 4378 3053 
L 3431 3053 
L 3431 0 
L 2853 0 
L 2853 3053 
L 1275 3053 
L 1275 0 
L 697 0 
L 697 3053 
L 147 3053 
L 147 3500 
L 697 3500 
L 697 3744 
Q 697 4328 969 4595 
Q 1241 4863 1831 4863 
L 2375 4863 
L 2375 4384 
L 1825 4384 
Q 1516 4384 1394 4259 
Q 1275 4134 1275 3809 
L 1275 3500 
L 2853 3500 
L 2853 3744 
Q 2853 4328 3125 4595 
Q 3397 4863 3988 4863 
L 4531 4863 
z
" transform="scale(0.015625)"/>
      <path id="DejaVuSans-5c" d="M 2059 -325 
Q 1816 -950 1584 -1140 
Q 1353 -1331 966 -1331 
L 506 -1331 
L 506 -850 
L 844 -850 
Q 1081 -850 1212 -737 
Q 1344 -625 1503 -206 
L 1606 56 
L 191 3500 
L 800 3500 
L 1894 763 
L 2988 3500 
L 3597 3500 
L 2059 -325 
z
" transform="scale(0.015625)"/>
     </defs>
     <use xlink:href="#DejaVuSans-33"/>
     <use xlink:href="#DejaVuSans-17" transform="translate(60.296875 0)"/>
     <use xlink:href="#DejaVuSans-1b" transform="translate(123.921875 0)"/>
     <use xlink:href="#DejaVuSans-3" transform="translate(187.546875 0)"/>
     <use xlink:href="#DejaVuSans-c1c" transform="translate(219.328125 0)"/>
     <use xlink:href="#DejaVuSans-3" transform="translate(303.125 0)"/>
     <use xlink:href="#DejaVuSans-1b" transform="translate(334.90625 0)"/>
     <use xlink:href="#DejaVuSans-3" transform="translate(398.53125 0)"/>
     <use xlink:href="#DejaVuSans-39" transform="translate(430.3125 0)"/>
     <use xlink:href="#DejaVuSans-3" transform="translate(498.71875 0)"/>
     <use xlink:href="#DejaVuSans-33" transform="translate(530.5 0)"/>
     <use xlink:href="#DejaVuSans-2c" transform="translate(590.796875 0)"/>
     <use xlink:href="#DejaVuSans-33" transform="translate(620.296875 0)"/>
     <use xlink:href="#DejaVuSans-3" transform="translate(680.59375 0)"/>
     <use xlink:href="#DejaVuSans-44" transform="translate(712.375 0)"/>
     <use xlink:href="#DejaVuSans-47" transform="translate(773.65625 0)"/>
     <use xlink:href="#DejaVuSans-44" transform="translate(837.140625 0)"/>
     <use xlink:href="#DejaVuSans-53" transform="translate(898.421875 0)"/>
     <use xlink:href="#DejaVuSans-57" transform="translate(961.90625 0)"/>
     <use xlink:href="#DejaVuSans-48" transform="translate(1001.109375 0)"/>
     <use xlink:href="#DejaVuSans-55" transform="translate(1062.640625 0)"/>
     <use xlink:href="#DejaVuSans-3" transform="translate(1103.75 0)"/>
     <use xlink:href="#DejaVuSans-3" transform="translate(1135.53125 0)"/>
     <use xlink:href="#DejaVuSans-3" transform="translate(1167.3125 0)"/>
     <use xlink:href="#DejaVuSans-79" transform="translate(1199.09375 0)"/>
     <use xlink:href="#DejaVuSans-3" transform="translate(1230.875 0)"/>
     <use xlink:href="#DejaVuSans-3" transform="translate(1262.65625 0)"/>
     <use xlink:href="#DejaVuSans-3" transform="translate(1294.4375 0)"/>
     <use xlink:href="#DejaVuSans-4c" transform="translate(1326.21875 0)"/>
     <use xlink:href="#DejaVuSans-50" transform="translate(1354 0)"/>
     <use xlink:href="#DejaVuSans-53" transform="translate(1451.40625 0)"/>
     <use xlink:href="#DejaVuSans-48" transform="translate(1514.890625 0)"/>
     <use xlink:href="#DejaVuSans-47" transform="translate(1576.421875 0)"/>
     <use xlink:href="#DejaVuSans-44" transform="translate(1639.90625 0)"/>
     <use xlink:href="#DejaVuSans-51" transform="translate(1701.1875 0)"/>
     <use xlink:href="#DejaVuSans-46" transform="translate(1764.5625 0)"/>
     <use xlink:href="#DejaVuSans-48" transform="translate(1819.546875 0)"/>
     <use xlink:href="#DejaVuSans-10" transform="translate(1881.078125 0)"/>
     <use xlink:href="#DejaVuSans-45" transform="translate(1917.15625 0)"/>
     <use xlink:href="#DejaVuSans-44" transform="translate(1980.640625 0)"/>
     <use xlink:href="#DejaVuSans-4f" transform="translate(2041.921875 0)"/>
     <use xlink:href="#DejaVuSans-44" transform="translate(2069.703125 0)"/>
     <use xlink:href="#DejaVuSans-51" transform="translate(2130.984375 0)"/>
     <use xlink:href="#DejaVuSans-46" transform="translate(2194.359375 0)"/>
     <use xlink:href="#DejaVuSans-48" transform="translate(2249.34375 0)"/>
     <use xlink:href="#DejaVuSans-47" transform="translate(2310.875 0)"/>
     <use xlink:href="#DejaVuSans-3" transform="translate(2374.359375 0)"/>
     <use xlink:href="#DejaVuSans-57" transform="translate(2406.140625 0)"/>
     <use xlink:href="#DejaVuSans-5a" transform="translate(2445.34375 0)"/>
     <use xlink:href="#DejaVuSans-52" transform="translate(2527.125 0)"/>
     <use xlink:href="#DejaVuSans-10" transform="translate(2590.171875 0)"/>
     <use xlink:href="#DejaVuSans-57" transform="translate(2626.25 0)"/>
     <use xlink:href="#DejaVuSans-55" transform="translate(2665.453125 0)"/>
     <use xlink:href="#DejaVuSans-44" transform="translate(2706.5625 0)"/>
     <use xlink:href="#DejaVuSans-51" transform="translate(2767.84375 0)"/>
     <use xlink:href="#DejaVuSans-56" transform="translate(2831.21875 0)"/>
     <use xlink:href="#DejaVuSans-4c" transform="translate(2883.3125 0)"/>
     <use xlink:href="#DejaVuSans-56" transform="translate(2911.09375 0)"/>
     <use xlink:href="#DejaVuSans-57" transform="translate(2963.1875 0)"/>
     <use xlink:href="#DejaVuSans-52" transform="translate(3002.390625 0)"/>
     <use xlink:href="#DejaVuSans-55" transform="translate(3063.578125 0)"/>
     <use xlink:href="#DejaVuSans-3" transform="translate(3104.6875 0)"/>
     <use xlink:href="#DejaVuSans-45" transform="translate(3136.46875 0)"/>
     <use xlink:href="#DejaVuSans-58" transform="translate(3199.953125 0)"/>
     <use xlink:href="#DejaVuSans-13ae" transform="translate(3263.328125 0)"/>
     <use xlink:href="#DejaVuSans-48" transform="translate(3332.21875 0)"/>
     <use xlink:href="#DejaVuSans-55" transform="translate(3393.75 0)"/>
     <use xlink:href="#DejaVuSans-3" transform="translate(3434.859375 0)"/>
     <use xlink:href="#DejaVuSans-3" transform="translate(3466.640625 0)"/>
     <use xlink:href="#DejaVuSans-3" transform="translate(3498.421875 0)"/>
     <use xlink:href="#DejaVuSans-79" transform="translate(3530.203125 0)"/>
     <use xlink:href="#DejaVuSans-3" transform="translate(3561.984375 0)"/>
     <use xlink:href="#DejaVuSans-3" transform="translate(3593.765625 0)"/>
     <use xlink:href="#DejaVuSans-3" transform="translate(3625.546875 0)"/>
     <use xlink:href="#DejaVuSans-51" transform="translate(3657.328125 0)"/>
     <use xlink:href="#DejaVuSans-48" transform="translate(3720.703125 0)"/>
     <use xlink:href="#DejaVuSans-57" transform="translate(3782.234375 0)"/>
     <use xlink:href="#DejaVuSans-56" transform="translate(3821.4375 0)"/>
     <use xlink:href="#DejaVuSans-3" transform="translate(3873.53125 0)"/>
     <use xlink:href="#DejaVuSans-53" transform="translate(3905.3125 0)"/>
     <use xlink:href="#DejaVuSans-48" transform="translate(3968.796875 0)"/>
     <use xlink:href="#DejaVuSans-55" transform="translate(4030.328125 0)"/>
     <use xlink:href="#DejaVuSans-3" transform="translate(4071.4375 0)"/>
     <use xlink:href="#DejaVuSans-51" transform="translate(4103.21875 0)"/>
     <use xlink:href="#DejaVuSans-48" transform="translate(4166.59375 0)"/>
     <use xlink:href="#DejaVuSans-57" transform="translate(4228.125 0)"/>
     <use xlink:href="#DejaVuSans-4f" transform="translate(4267.328125 0)"/>
     <use xlink:href="#DejaVuSans-4c" transform="translate(4295.109375 0)"/>
     <use xlink:href="#DejaVuSans-56" transform="translate(4322.890625 0)"/>
     <use xlink:href="#DejaVuSans-57" transform="translate(4374.984375 0)"/>
     <use xlink:href="#DejaVuSans-11" transform="translate(4414.1875 0)"/>
     <use xlink:href="#DejaVuSans-53" transform="translate(4445.96875 0)"/>
     <use xlink:href="#DejaVuSans-5c" transform="translate(4509.453125 0)"/>
    </g>
   </g>
   <g id="patch_14">
    <path d="M 47.429062 169.26 
C 48.145111 169.26 48.831928 168.975511 49.338251 168.469188 
C 49.844573 167.962866 50.129062 167.276048 50.129062 166.56 
C 50.129062 165.843952 49.844573 165.157134 49.338251 164.650812 
C 48.831928 164.144489 48.145111 163.86 47.429062 163.86 
C 46.713014 163.86 46.026197 164.144489 45.519874 164.650812 
C 45.013552 165.157134 44.729062 165.843952 44.729062 166.56 
C 44.729062 167.276048 45.013552 167.962866 45.519874 168.469188 
C 46.026197 168.975511 46.713014 169.26 47.429062 169.26 
z
" clip-path="url(#p0b080fe472)" style="fill: #17242f; stroke: #17242f; stroke-width: 2; stroke-linejoin: miter"/>
   </g>
   <g id="patch_15">
    <path d="M 47.429062 230.46 
C 48.145111 230.46 48.831928 230.175511 49.338251 229.669188 
C 49.844573 229.162866 50.129062 228.476048 50.129062 227.76 
C 50.129062 227.043952 49.844573 226.357134 49.338251 225.850812 
C 48.831928 225.344489 48.145111 225.06 47.429062 225.06 
C 46.713014 225.06 46.026197 225.344489 45.519874 225.850812 
C 45.013552 226.357134 44.729062 227.043952 44.729062 227.76 
C 44.729062 228.476048 45.013552 229.162866 45.519874 229.669188 
C 46.026197 230.175511 46.713014 230.46 47.429062 230.46 
z
" clip-path="url(#p0b080fe472)" style="fill: #17242f; stroke: #17242f; stroke-width: 2; stroke-linejoin: miter"/>
   </g>
   <g id="patch_16">
    <path d="M 166.229062 154.86 
C 166.945111 154.86 167.631928 154.575511 168.138251 154.069188 
C 168.644573 153.562866 168.929062 152.876048 168.929062 152.16 
C 168.929062 151.443952 168.644573 150.757134 168.138251 150.250812 
C 167.631928 149.744489 166.945111 149.46 166.229062 149.46 
C 165.513014 149.46 164.826197 149.744489 164.319874 150.250812 
C 163.813552 150.757134 163.529063 151.443952 163.529063 152.16 
C 163.529063 152.876048 163.813552 153.562866 164.319874 154.069188 
C 164.826197 154.575511 165.513014 154.86 166.229062 154.86 
z
" clip-path="url(#p0b080fe472)" style="fill: #17242f; stroke: #17242f; stroke-width: 2; stroke-linejoin: miter"/>
   </g>
   <g id="patch_17">
    <path d="M 47.429062 291.66 
C 48.145111 291.66 48.831928 291.375511 49.338251 290.869188 
C 49.844573 290.362866 50.129062 289.676048 50.129062 288.96 
C 50.129062 288.243952 49.844573 287.557134 49.338251 287.050812 
C 48.831928 286.544489 48.145111 286.26 47.429062 286.26 
C 46.713014 286.26 46.026197 286.544489 45.519874 287.050812 
C 45.013552 287.557134 44.729062 288.243952 44.729062 288.96 
C 44.729062 289.676048 45.013552 290.362866 45.519874 290.869188 
C 46.026197 291.375511 46.713014 291.66 47.429062 291.66 
z
" clip-path="url(#p0b080fe472)" style="fill: #17242f; stroke: #17242f; stroke-width: 2; stroke-linejoin: miter"/>
   </g>
   <g id="patch_18">
    <path d="M 281.429062 154.86 
C 282.145111 154.86 282.831928 154.575511 283.338251 154.069188 
C 283.844573 153.562866 284.129062 152.876048 284.129062 152.16 
C 284.129062 151.443952 283.844573 150.757134 283.338251 150.250812 
C 282.831928 149.744489 282.145111 149.46 281.429062 149.46 
C 280.713014 149.46 280.026197 149.744489 279.519874 150.250812 
C 279.013552 150.757134 278.729062 151.443952 278.729062 152.16 
C 278.729062 152.876048 279.013552 153.562866 279.519874 154.069188 
C 280.026197 154.575511 280.713014 154.86 281.429062 154.86 
z
" clip-path="url(#p0b080fe472)" style="fill: #17242f; stroke: #17242f; stroke-width: 2; stroke-linejoin: miter"/>
   </g>
   <g id="patch_19">
    <path d="M 402.089062 262.86 
C 402.805111 262.86 403.491928 262.575511 403.998251 262.069188 
C 404.504573 261.562866 404.789062 260.876048 404.789062 260.16 
C 404.789062 259.443952 404.504573 258.757134 403.998251 258.250812 
C 403.491928 257.744489 402.805111 257.46 402.089062 257.46 
C 401.373014 257.46 400.686197 257.744489 400.179874 258.250812 
C 399.673552 258.757134 399.389062 259.443952 399.389062 260.16 
C 399.389062 260.876048 399.673552 261.562866 400.179874 262.069188 
C 400.686197 262.575511 401.373014 262.86 402.089062 262.86 
z
" clip-path="url(#p0b080fe472)" style="fill: #17242f; stroke: #17242f; stroke-width: 2; stroke-linejoin: miter"/>
   </g>
   <g id="patch_20">
    <path d="M 495.689062 262.86 
C 496.405111 262.86 497.091928 262.575511 497.598251 262.069188 
C 498.104573 261.562866 498.389062 260.876048 498.389062 260.16 
C 498.389062 259.443952 498.104573 258.757134 497.598251 258.250812 
C 497.091928 257.744489 496.405111 257.46 495.689062 257.46 
C 494.973014 257.46 494.286197 257.744489 493.779874 258.250812 
C 493.273552 258.757134 492.989062 259.443952 492.989062 260.16 
C 492.989062 260.876048 493.273552 261.562866 493.779874 262.069188 
C 494.286197 262.575511 494.973014 262.86 495.689062 262.86 
z
" clip-path="url(#p0b080fe472)" style="fill: #17242f; stroke: #17242f; stroke-width: 2; stroke-linejoin: miter"/>
   </g>
   <g id="patch_21">
    <path d="M 546.089062 262.86 
C 546.805111 262.86 547.491928 262.575511 547.998251 262.069188 
C 548.504573 261.562866 548.789062 260.876048 548.789062 260.16 
C 548.789062 259.443952 548.504573 258.757134 547.998251 258.250812 
C 547.491928 257.744489 546.805111 257.46 546.089062 257.46 
C 545.373014 257.46 544.686197 257.744489 544.179874 258.250812 
C 543.673552 258.757134 543.389062 259.443952 543.389062 260.16 
C 543.389062 260.876048 543.673552 261.562866 544.179874 262.069188 
C 544.686197 262.575511 545.373014 262.86 546.089062 262.86 
z
" clip-path="url(#p0b080fe472)" style="fill: #17242f; stroke: #17242f; stroke-width: 2; stroke-linejoin: miter"/>
   </g>
   <g id="patch_22">
    <path d="M 654.089062 262.86 
C 654.805111 262.86 655.491928 262.575511 655.998251 262.069188 
C 656.504573 261.562866 656.789062 260.876048 656.789062 260.16 
C 656.789062 259.443952 656.504573 258.757134 655.998251 258.250812 
C 655.491928 257.744489 654.805111 257.46 654.089062 257.46 
C 653.373014 257.46 652.686197 257.744489 652.179874 258.250812 
C 651.673552 258.757134 651.389062 259.443952 651.389062 260.16 
C 651.389062 260.876048 651.673552 261.562866 652.179874 262.069188 
C 652.686197 262.575511 653.373014 262.86 654.089062 262.86 
z
" clip-path="url(#p0b080fe472)" style="fill: #17242f; stroke: #17242f; stroke-width: 2; stroke-linejoin: miter"/>
   </g>
   <g id="patch_23">
    <path d="M 654.089062 392.46 
C 654.805111 392.46 655.491928 392.175511 655.998251 391.669188 
C 656.504573 391.162866 656.789062 390.476048 656.789062 389.76 
C 656.789062 389.043952 656.504573 388.357134 655.998251 387.850812 
C 655.491928 387.344489 654.805111 387.06 654.089062 387.06 
C 653.373014 387.06 652.686197 387.344489 652.179874 387.850812 
C 651.673552 388.357134 651.389062 389.043952 651.389062 389.76 
C 651.389062 390.476048 651.673552 391.162866 652.179874 391.669188 
C 652.686197 392.175511 653.373014 392.46 654.089062 392.46 
z
" clip-path="url(#p0b080fe472)" style="fill: #17242f; stroke: #17242f; stroke-width: 2; stroke-linejoin: miter"/>
   </g>
   <g id="patch_24">
    <path d="M 841.289062 392.46 
C 842.005111 392.46 842.691928 392.175511 843.198251 391.669188 
C 843.704573 391.162866 843.989063 390.476048 843.989063 389.76 
C 843.989063 389.043952 843.704573 388.357134 843.198251 387.850812 
C 842.691928 387.344489 842.005111 387.06 841.289062 387.06 
C 840.573014 387.06 839.886197 387.344489 839.379874 387.850812 
C 838.873552 388.357134 838.589062 389.043952 838.589062 389.76 
C 838.589062 390.476048 838.873552 391.162866 839.379874 391.669188 
C 839.886197 392.175511 840.573014 392.46 841.289062 392.46 
z
" clip-path="url(#p0b080fe472)" style="fill: #17242f; stroke: #17242f; stroke-width: 2; stroke-linejoin: miter"/>
   </g>
   <g id="patch_25">
    <path d="M 841.289062 262.86 
C 842.005111 262.86 842.691928 262.575511 843.198251 262.069188 
C 843.704573 261.562866 843.989063 260.876048 843.989063 260.16 
C 843.989063 259.443952 843.704573 258.757134 843.198251 258.250812 
C 842.691928 257.744489 842.005111 257.46 841.289062 257.46 
C 840.573014 257.46 839.886197 257.744489 839.379874 258.250812 
C 838.873552 258.757134 838.589062 259.443952 838.589062 260.16 
C 838.589062 260.876048 838.873552 261.562866 839.379874 262.069188 
C 839.886197 262.575511 840.573014 262.86 841.289062 262.86 
z
" clip-path="url(#p0b080fe472)" style="fill: #17242f; stroke: #17242f; stroke-width: 2; stroke-linejoin: miter"/>
   </g>
   <g id="patch_26">
    <path d="M 951.149063 367.38 
C 951.865111 367.38 952.551928 367.095511 953.058251 366.589188 
C 953.564573 366.082866 953.849063 365.396048 953.849063 364.68 
C 953.849063 363.963952 953.564573 363.277134 953.058251 362.770812 
C 952.551928 362.264489 951.865111 361.98 951.149063 361.98 
C 950.433014 361.98 949.746197 362.264489 949.239874 362.770812 
C 948.733552 363.277134 948.449062 363.963952 948.449062 364.68 
C 948.449062 365.396048 948.733552 366.082866 949.239874 366.589188 
C 949.746197 367.095511 950.433014 367.38 951.149063 367.38 
z
" clip-path="url(#p0b080fe472)" style="fill: #17242f; stroke: #17242f; stroke-width: 2; stroke-linejoin: miter"/>
   </g>
   <g id="patch_27">
    <path d="M 1102.349062 367.38 
C 1103.065111 367.38 1103.751928 367.095511 1104.258251 366.589188 
C 1104.764573 366.082866 1105.049062 365.396048 1105.049062 364.68 
C 1105.049062 363.963952 1104.764573 363.277134 1104.258251 362.770812 
C 1103.751928 362.264489 1103.065111 361.98 1102.349062 361.98 
C 1101.633014 361.98 1100.946197 362.264489 1100.439874 362.770812 
C 1099.933552 363.277134 1099.649062 363.963952 1099.649062 364.68 
C 1099.649062 365.396048 1099.933552 366.082866 1100.439874 366.589188 
C 1100.946197 367.095511 1101.633014 367.38 1102.349062 367.38 
z
" clip-path="url(#p0b080fe472)" style="fill: #17242f; stroke: #17242f; stroke-width: 2; stroke-linejoin: miter"/>
   </g>
   <g id="patch_28">
    <path d="M 1026.749063 435.78 
C 1027.465111 435.78 1028.151928 435.495511 1028.658251 434.989188 
C 1029.164573 434.482866 1029.449063 433.796048 1029.449063 433.08 
C 1029.449063 432.363952 1029.164573 431.677134 1028.658251 431.170812 
C 1028.151928 430.664489 1027.465111 430.38 1026.749063 430.38 
C 1026.033014 430.38 1025.346197 430.664489 1024.839874 431.170812 
C 1024.333552 431.677134 1024.049062 432.363952 1024.049062 433.08 
C 1024.049062 433.796048 1024.333552 434.482866 1024.839874 434.989188 
C 1025.346197 435.495511 1026.033014 435.78 1026.749063 435.78 
z
" clip-path="url(#p0b080fe472)" style="fill: #17242f; stroke: #17242f; stroke-width: 2; stroke-linejoin: miter"/>
   </g>
   <g id="patch_29">
    <path d="M 1201.289062 392.46 
C 1202.005111 392.46 1202.691928 392.175511 1203.198251 391.669188 
C 1203.704573 391.162866 1203.989063 390.476048 1203.989063 389.76 
C 1203.989063 389.043952 1203.704573 388.357134 1203.198251 387.850812 
C 1202.691928 387.344489 1202.005111 387.06 1201.289062 387.06 
C 1200.573014 387.06 1199.886197 387.344489 1199.379874 387.850812 
C 1198.873552 388.357134 1198.589062 389.043952 1198.589062 389.76 
C 1198.589062 390.476048 1198.873552 391.162866 1199.379874 391.669188 
C 1199.886197 392.175511 1200.573014 392.46 1201.289062 392.46 
z
" clip-path="url(#p0b080fe472)" style="fill: #17242f; stroke: #17242f; stroke-width: 2; stroke-linejoin: miter"/>
   </g>
   <g id="patch_30">
    <path d="M 1201.289062 262.86 
C 1202.005111 262.86 1202.691928 262.575511 1203.198251 262.069188 
C 1203.704573 261.562866 1203.989063 260.876048 1203.989063 260.16 
C 1203.989063 259.443952 1203.704573 258.757134 1203.198251 258.250812 
C 1202.691928 257.744489 1202.005111 257.46 1201.289062 257.46 
C 1200.573014 257.46 1199.886197 257.744489 1199.379874 258.250812 
C 1198.873552 258.757134 1198.589062 259.443952 1198.589062 260.16 
C 1198.589062 260.876048 1198.873552 261.562866 1199.379874 262.069188 
C 1199.886197 262.575511 1200.573014 262.86 1201.289062 262.86 
z
" clip-path="url(#p0b080fe472)" style="fill: #17242f; stroke: #17242f; stroke-width: 2; stroke-linejoin: miter"/>
   </g>
   <g id="patch_31">
    <path d="M 1311.149062 367.38 
C 1311.865111 367.38 1312.551928 367.095511 1313.058251 366.589188 
C 1313.564573 366.082866 1313.849062 365.396048 1313.849062 364.68 
C 1313.849062 363.963952 1313.564573 363.277134 1313.058251 362.770812 
C 1312.551928 362.264489 1311.865111 361.98 1311.149062 361.98 
C 1310.433014 361.98 1309.746197 362.264489 1309.239874 362.770812 
C 1308.733552 363.277134 1308.449062 363.963952 1308.449062 364.68 
C 1308.449062 365.396048 1308.733552 366.082866 1309.239874 366.589188 
C 1309.746197 367.095511 1310.433014 367.38 1311.149062 367.38 
z
" clip-path="url(#p0b080fe472)" style="fill: #17242f; stroke: #17242f; stroke-width: 2; stroke-linejoin: miter"/>
   </g>
   <g id="patch_32">
    <path d="M 1462.349062 367.38 
C 1463.065111 367.38 1463.751928 367.095511 1464.258251 366.589188 
C 1464.764573 366.082866 1465.049062 365.396048 1465.049062 364.68 
C 1465.049062 363.963952 1464.764573 363.277134 1464.258251 362.770812 
C 1463.751928 362.264489 1463.065111 361.98 1462.349062 361.98 
C 1461.633014 361.98 1460.946197 362.264489 1460.439874 362.770812 
C 1459.933552 363.277134 1459.649062 363.963952 1459.649062 364.68 
C 1459.649062 365.396048 1459.933552 366.082866 1460.439874 366.589188 
C 1460.946197 367.095511 1461.633014 367.38 1462.349062 367.38 
z
" clip-path="url(#p0b080fe472)" style="fill: #17242f; stroke: #17242f; stroke-width: 2; stroke-linejoin: miter"/>
   </g>
   <g id="patch_33">
    <path d="M 1386.749063 435.78 
C 1387.465111 435.78 1388.151928 435.495511 1388.658251 434.989188 
C 1389.164573 434.482866 1389.449063 433.796048 1389.449063 433.08 
C 1389.449063 432.363952 1389.164573 431.677134 1388.658251 431.170812 
C 1388.151928 430.664489 1387.465111 430.38 1386.749063 430.38 
C 1386.033014 430.38 1385.346197 430.664489 1384.839874 431.170812 
C 1384.333552 431.677134 1384.049062 432.363952 1384.049062 433.08 
C 1384.049062 433.796048 1384.333552 434.482866 1384.839874 434.989188 
C 1385.346197 435.495511 1386.033014 435.78 1386.749063 435.78 
z
" clip-path="url(#p0b080fe472)" style="fill: #17242f; stroke: #17242f; stroke-width: 2; stroke-linejoin: miter"/>
   </g>
  </g>
 </g>
 <defs>
  <clipPath id="p0b080fe472">
   <rect x="0.305062" y="-0" width="1520.724" height="587.64"/>
  </clipPath>
 </defs>
</svg>
