<svg xmlns="http://www.w3.org/2000/svg" xmlns:xlink="http://www.w3.org/1999/xlink" xml:lang="en" height="587.48pt" width="1380.164pt" viewBox="-605.044 -260.08 1380.164 587.48"><polygon points="-504,-93.6 -492.75,-104.85 -450,-104.85 -450,-82.35 -492.75,-82.35 " style="stroke:#17242f;fill:none;stroke-width:2.0;stroke-dasharray:-;stroke-linecap:round;stroke-linejoin:round;" /><polygon points="-379.8,-54.9 -370.8,-67.5 -361.8,-54.9 " style="stroke:#17242f;fill:none;stroke-width:2.0;stroke-dasharray:-;stroke-linecap:round;stroke-linejoin:round;" /><circle cx="-210.6" cy="-108" r="19.8" style="stroke:#17242f;fill:none;stroke-width:2.0;stroke-dasharray:-;" /><polygon points="-203.34,-201.48 -214.59,-212.73 -214.59,-255.48 -192.09,-255.48 -192.09,-212.73 " style="stroke:#17242f;fill:none;stroke-width:2.0;stroke-dasharray:-;stroke-linecap:round;stroke-linejoin:round;" /><path d="M 57.66 111.6 a 18 18 -270 1 1 -36 0" style="stroke:#17242f;fill:none;stroke-width:2.0;stroke-dasharray:-;" /><circle cx="320.46" cy="129.6" r="19.8" style="stroke:#17242f;fill:none;stroke-width:2.0;stroke-dasharray:-;" /><polygon points="442.92,104.52 454.17,93.27 496.92,93.27 496.92,115.77 454.17,115.77 " style="stroke:#17242f;fill:none;stroke-width:2.0;stroke-dasharray:-;stroke-linecap:round;stroke-linejoin:round;" /><circle cx="594.06" cy="129.6" r="19.8" style="stroke:#17242f;fill:none;stroke-width:2.0;stroke-dasharray:-;" /><polygon points="716.52,104.52 727.77,93.27 770.52,93.27 770.52,115.77 727.77,115.77 " style="stroke:#17242f;fill:none;stroke-width:2.0;stroke-dasharray:-;stroke-linecap:round;stroke-linejoin:round;" /><path d="M -558.0,-115.2 L -558,-32.4 L -558,50.4" style="stroke:#17242f;fill:none;stroke-width:2.4;stroke-dasharray:-;stroke-linecap:round;stroke-linejoin:round;" /><path d="M -558.0,-93.60000000000001 L -531,-93.6 L -504,-93.6" style="stroke:#17242f;fill:none;stroke-width:2.0;stroke-dasharray:-;stroke-linecap:round;stroke-linejoin:round;" /><path d="M -558.0,-32.4 L -531,-32.4 L -504,-32.4" style="stroke:#17242f;fill:none;stroke-width:2.0;stroke-dasharray:-;stroke-linecap:round;stroke-linejoin:round;" /><path d="M -504.0,-32.4 L -471.6,-32.4 L -439.2,-32.4" style="stroke:#17242f;fill:none;stroke-width:2.0;stroke-dasharray:-;stroke-linecap:round;stroke-linejoin:round;" /><path d="M -439.2,-32.4 L -439.2,-70.2 L -439.2,-108" style="stroke:#17242f;fill:none;stroke-width:2.0;stroke-dasharray:-;stroke-linecap:round;stroke-linejoin:round;" /><path d="M -558.0,28.8 L -536.4,28.8 L -514.8,28.8" style="stroke:#17242f;fill:none;stroke-width:2.0;stroke-dasharray:-;stroke-linecap:round;stroke-linejoin:round;" /><path d="M -514.8000000000001,28.8 L -514.8,43.2 L -523.8,43.2 L -505.8,43.2 M -521.1,47.52 L -508.5,47.52 M -516.6,51.84 L -513,51.84" style="stroke:#17242f;fill:none;stroke-width:2.0;stroke-dasharray:-;stroke-linecap:round;stroke-linejoin:round;" /><path d="M -439.2,-108.0 L -399.6,-108 L -396.6,-117 L -390.6,-99 L -384.6,-117 L -378.6,-99 L -372.6,-117 L -366.6,-99 L -363.6,-108 L -324,-108" style="stroke:#17242f;fill:none;stroke-width:2.0;stroke-dasharray:-;stroke-linecap:round;stroke-linejoin:round;" /><path d="M -324.0,-108.0 L -347.4,-108 L -370.8,-108" style="stroke:#17242f;fill:none;stroke-width:2.0;stroke-dasharray:-;stroke-linecap:round;stroke-linejoin:round;" /><path d="M -370.8,-108.0 L -370.8,-67.5 M -379.8,-67.5 L -361.8,-67.5 M -370.8,-54.9 L -370.8,-14.4" style="stroke:#17242f;fill:none;stroke-width:2.0;stroke-dasharray:-;stroke-linecap:round;stroke-linejoin:round;" /><path d="M -358.20000000000005,-71.10000000000001 L -361.8,-67.5" style="stroke:#17242f;fill:none;stroke-width:2.0;stroke-dasharray:-;stroke-linecap:round;stroke-linejoin:round;" /><path d="M -383.40000000000003,-63.900000000000006 L -379.8,-67.5" style="stroke:#17242f;fill:none;stroke-width:2.0;stroke-dasharray:-;stroke-linecap:round;stroke-linejoin:round;" /><path d="M -370.8,-14.400000000000013 L -370.8,-0 L -379.8,-0 L -361.8,-0 M -377.1,4.32 L -364.5,4.32 M -372.6,8.64 L -369,8.64" style="stroke:#17242f;fill:none;stroke-width:2.0;stroke-dasharray:-;stroke-linecap:round;stroke-linejoin:round;" /><path d="M -324.0,-108.0 L -324,-64.44 M -315,-64.44 L -333,-64.44 M -315,-57.96 L -333,-57.96 M -324,-57.96 L -324,-14.4" style="stroke:#17242f;fill:none;stroke-width:2.0;stroke-dasharray:-;stroke-linecap:round;stroke-linejoin:round;" /><path d="M -324.0,-14.400000000000013 L -324,-0 L -333,-0 L -315,-0 M -330.3,4.32 L -317.7,4.32 M -325.8,8.64 L -322.2,8.64" style="stroke:#17242f;fill:none;stroke-width:2.0;stroke-dasharray:-;stroke-linecap:round;stroke-linejoin:round;" /><path d="M -324.0,-108.0 L -295.2,-108 L -292.2,-117 L -286.2,-99 L -280.2,-117 L -274.2,-99 L -268.2,-117 L -262.2,-99 L -259.2,-108 L -230.4,-108" style="stroke:#17242f;fill:none;stroke-width:2.0;stroke-dasharray:-;stroke-linecap:round;stroke-linejoin:round;" /><path d="M -230.4,-108.0 L -217.2,-108" style="stroke:#17242f;fill:none;stroke-width:2.0;stroke-dasharray:-;stroke-linecap:round;stroke-linejoin:round;" /><path d="M -217.20000000000002,-121.2 L -217.2,-94.8" style="stroke:#17242f;fill:none;stroke-width:2.0;stroke-dasharray:-;stroke-linecap:round;stroke-linejoin:round;" /><path d="M -217.20000000000002,-114.6 L -203.34,-126.48 L -203.34,-133.08" style="stroke:#17242f;fill:none;stroke-width:2.0;stroke-dasharray:-;stroke-linecap:round;stroke-linejoin:round;" /><path d="M -217.20000000000002,-101.4 L -203.34,-89.52 L -203.34,-82.92" style="stroke:#17242f;fill:none;stroke-width:2.0;stroke-dasharray:-;stroke-linecap:round;stroke-linejoin:round;" /><path d="M -217.20000000000002,-101.4 L -210.173,-95.377" style="stroke:#17242f;fill:none;stroke-width:2.0;stroke-dasharray:-;stroke-linecap:round;stroke-linejoin:round;" /><path d="M -204.859 -90.822 L -212.516 -92.644 L -207.83 -98.11 Z" style="stroke:#17242f;fill:#17242f;stroke-linecap:butt;stroke-linejoin:miter;" /><path d="M -203.34,-133.08 L -203.34,-167.28 L -203.34,-201.48" style="stroke:#17242f;fill:none;stroke-width:2.0;stroke-dasharray:-;stroke-linecap:round;stroke-linejoin:round;" /><path d="M -203.34,-82.92 L -203.34,-41.46 L -203.34,-0" style="stroke:#17242f;fill:none;stroke-width:2.0;stroke-dasharray:-;stroke-linecap:round;stroke-linejoin:round;" /><path d="M -203.34,-0.0 L 181.86,-0 L 567.06,-0" style="stroke:#17242f;fill:none;stroke-width:3.2;stroke-dasharray:-;stroke-linecap:round;stroke-linejoin:round;" /><path d="M -203.34,-0.0 L -203.34,-14.4" style="stroke:#17242f;fill:none;stroke-width:2.0;stroke-dasharray:-;stroke-linecap:round;stroke-linejoin:round;" /><path d="M -203.34,-14.4 L -210.09,-14.4" style="stroke:#17242f;fill:none;stroke-width:2.0;stroke-dasharray:-;stroke-linecap:round;stroke-linejoin:round;" /><path d="M -203.34,-14.4 L -196.59,-14.4" style="stroke:#17242f;fill:none;stroke-width:2.0;stroke-dasharray:-;stroke-linecap:round;stroke-linejoin:round;" /><path d="M -109.74,-0.0 L -109.74,43.56 M -100.74,43.56 L -118.74,43.56 M -100.74,50.04 L -118.74,50.04 M -109.74,50.04 L -109.74,93.6" style="stroke:#17242f;fill:none;stroke-width:2.0;stroke-dasharray:-;stroke-linecap:round;stroke-linejoin:round;" /><path d="M -109.74000000000001,93.6 L -109.74,108 L -118.74,108 L -100.74,108 M -116.04,112.32 L -103.44,112.32 M -111.54,116.64 L -107.94,116.64" style="stroke:#17242f;fill:none;stroke-width:2.0;stroke-dasharray:-;stroke-linecap:round;stroke-linejoin:round;" /><path d="M -59.34,-0.0 L -59.34,43.56 M -50.34,43.56 L -68.34,43.56 M -50.34,50.04 L -68.34,50.04 M -59.34,50.04 L -59.34,93.6" style="stroke:#17242f;fill:none;stroke-width:2.0;stroke-dasharray:-;stroke-linecap:round;stroke-linejoin:round;" /><path d="M -59.34000000000002,93.6 L -59.34,108 L -68.34,108 L -50.34,108 M -65.64,112.32 L -53.04,112.32 M -61.14,116.64 L -57.54,116.64" style="stroke:#17242f;fill:none;stroke-width:2.0;stroke-dasharray:-;stroke-linecap:round;stroke-linejoin:round;" /><path d="M 48.66,-0.0 L 48.66,46.8 L 57.66,49.8 L 39.66,55.8 L 57.66,61.8 L 39.66,67.8 L 57.66,73.8 L 39.66,79.8 L 48.66,82.8 L 48.66,129.6" style="stroke:#17242f;fill:none;stroke-width:2.0;stroke-dasharray:-;stroke-linecap:round;stroke-linejoin:round;" /><path d="M 48.66,129.6 L 48.66,138.6" style="stroke:#17242f;fill:none;stroke-width:2.0;stroke-dasharray:-;stroke-linecap:round;stroke-linejoin:round;" /><path d="M 30.659999999999997,129.6 L 30.66,138.6" style="stroke:#17242f;fill:none;stroke-width:2.0;stroke-dasharray:-;stroke-linecap:round;stroke-linejoin:round;" /><path d="M 57.66,111.60000000000001 L 21.66,111.6" style="stroke:#17242f;fill:none;stroke-width:2.0;stroke-dasharray:-;stroke-linecap:round;stroke-linejoin:round;" /><path d="M 30.659999999999997,129.6 L 30.66,144 L 21.66,144 L 39.66,144 M 24.36,148.32 L 36.96,148.32 M 28.86,152.64 L 32.46,152.64" style="stroke:#17242f;fill:none;stroke-width:2.0;stroke-dasharray:-;stroke-linecap:round;stroke-linejoin:round;" /><path d="M 235.86,-0.0 L 235.86,46.8 L 244.86,49.8 L 226.86,55.8 L 244.86,61.8 L 226.86,67.8 L 244.86,73.8 L 226.86,79.8 L 235.86,82.8 L 235.86,129.6" style="stroke:#17242f;fill:none;stroke-width:2.0;stroke-dasharray:-;stroke-linecap:round;stroke-linejoin:round;" /><path d="M 235.86,129.6 L 235.86,180 L 244.86,183 L 226.86,189 L 244.86,195 L 226.86,201 L 244.86,207 L 226.86,213 L 235.86,216 L 235.86,266.4" style="stroke:#17242f;fill:none;stroke-width:2.0;stroke-dasharray:-;stroke-linecap:round;stroke-linejoin:round;" /><path d="M 235.85999999999996,266.40000000000003 L 235.86,280.8 L 226.86,280.8 L 244.86,280.8 M 229.56,285.12 L 242.16,285.12 M 234.06,289.44 L 237.66,289.44" style="stroke:#17242f;fill:none;stroke-width:2.0;stroke-dasharray:-;stroke-linecap:round;stroke-linejoin:round;" /><path d="M 48.66,129.6 L 139.02,129.6 M 139.02,120.6 L 139.02,138.6 M 145.5,120.6 L 145.5,138.6 M 145.5,129.6 L 235.86,129.6" style="stroke:#17242f;fill:none;stroke-width:2.0;stroke-dasharray:-;stroke-linecap:round;stroke-linejoin:round;" /><path d="M 235.86,129.6 L 268.26,129.6 L 300.66,129.6" style="stroke:#17242f;fill:none;stroke-width:2.0;stroke-dasharray:-;stroke-linecap:round;stroke-linejoin:round;" /><path d="M 300.65999999999997,129.6 L 313.86,129.6" style="stroke:#17242f;fill:none;stroke-width:2.0;stroke-dasharray:-;stroke-linecap:round;stroke-linejoin:round;" /><path d="M 313.86,116.4 L 313.86,142.8" style="stroke:#17242f;fill:none;stroke-width:2.0;stroke-dasharray:-;stroke-linecap:round;stroke-linejoin:round;" /><path d="M 313.86,123.00000000000001 L 327.72,111.12 L 327.72,104.52" style="stroke:#17242f;fill:none;stroke-width:2.0;stroke-dasharray:-;stroke-linecap:round;stroke-linejoin:round;" /><path d="M 313.86,136.2 L 327.72,148.08 L 327.72,154.68" style="stroke:#17242f;fill:none;stroke-width:2.0;stroke-dasharray:-;stroke-linecap:round;stroke-linejoin:round;" /><path d="M 327.72,111.12 L 320.693,117.143" style="stroke:#17242f;fill:none;stroke-width:2.0;stroke-dasharray:-;stroke-linecap:round;stroke-linejoin:round;" /><path d="M 315.379 121.698 L 318.35 114.41 L 323.036 119.876 Z" style="stroke:#17242f;fill:#17242f;stroke-linecap:butt;stroke-linejoin:miter;" /><path d="M 327.72,154.68 L 327.72,210.54 L 327.72,266.4" style="stroke:#17242f;fill:none;stroke-width:2.0;stroke-dasharray:-;stroke-linecap:round;stroke-linejoin:round;" /><path d="M 327.72,266.40000000000003 L 327.72,280.8 L 318.72,280.8 L 336.72,280.8 M 321.42,285.12 L 334.02,285.12 M 325.92,289.44 L 329.52,289.44" style="stroke:#17242f;fill:none;stroke-width:2.0;stroke-dasharray:-;stroke-linecap:round;stroke-linejoin:round;" /><path d="M 327.72,104.52 L 338.52,104.52 L 349.32,104.52" style="stroke:#17242f;fill:none;stroke-width:2.0;stroke-dasharray:-;stroke-linecap:round;stroke-linejoin:round;" /><path d="M 349.32,104.52 L 378.12,104.52 L 381.12,95.52 L 387.12,113.52 L 393.12,95.52 L 399.12,113.52 L 405.12,95.52 L 411.12,113.52 L 414.12,104.52 L 442.92,104.52" style="stroke:#17242f;fill:none;stroke-width:2.0;stroke-dasharray:-;stroke-linecap:round;stroke-linejoin:round;" /><path d="M 509.46000000000004,-0.0 L 509.46,46.8 L 518.46,49.8 L 500.46,55.8 L 518.46,61.8 L 500.46,67.8 L 518.46,73.8 L 500.46,79.8 L 509.46,82.8 L 509.46,129.6" style="stroke:#17242f;fill:none;stroke-width:2.0;stroke-dasharray:-;stroke-linecap:round;stroke-linejoin:round;" /><path d="M 509.46000000000004,129.6 L 509.46,180 L 518.46,183 L 500.46,189 L 518.46,195 L 500.46,201 L 518.46,207 L 500.46,213 L 509.46,216 L 509.46,266.4" style="stroke:#17242f;fill:none;stroke-width:2.0;stroke-dasharray:-;stroke-linecap:round;stroke-linejoin:round;" /><path d="M 509.46000000000004,266.40000000000003 L 509.46,280.8 L 500.46,280.8 L 518.46,280.8 M 503.16,285.12 L 515.76,285.12 M 507.66,289.44 L 511.26,289.44" style="stroke:#17242f;fill:none;stroke-width:2.0;stroke-dasharray:-;stroke-linecap:round;stroke-linejoin:round;" /><path d="M 509.46000000000004,129.6 L 475.26,129.6 L 441.06,129.6" style="stroke:#17242f;fill:none;stroke-width:2.0;stroke-dasharray:-;stroke-linecap:round;stroke-linejoin:round;" /><path d="M 441.06,129.6 L 441.06,194.76 M 450.06,194.76 L 432.06,194.76 M 450.06,201.24 L 432.06,201.24 M 441.06,201.24 L 441.06,266.4" style="stroke:#17242f;fill:none;stroke-width:2.0;stroke-dasharray:-;stroke-linecap:round;stroke-linejoin:round;" /><path d="M 441.06,266.40000000000003 L 441.06,280.8 L 432.06,280.8 L 450.06,280.8 M 434.76,285.12 L 447.36,285.12 M 439.26,289.44 L 442.86,289.44" style="stroke:#17242f;fill:none;stroke-width:2.0;stroke-dasharray:-;stroke-linecap:round;stroke-linejoin:round;" /><path d="M 509.46000000000004,129.6 L 541.86,129.6 L 574.26,129.6" style="stroke:#17242f;fill:none;stroke-width:2.0;stroke-dasharray:-;stroke-linecap:round;stroke-linejoin:round;" /><path d="M 574.26,129.6 L 587.46,129.6" style="stroke:#17242f;fill:none;stroke-width:2.0;stroke-dasharray:-;stroke-linecap:round;stroke-linejoin:round;" /><path d="M 587.46,116.4 L 587.46,142.8" style="stroke:#17242f;fill:none;stroke-width:2.0;stroke-dasharray:-;stroke-linecap:round;stroke-linejoin:round;" /><path d="M 587.46,123.00000000000001 L 601.32,111.12 L 601.32,104.52" style="stroke:#17242f;fill:none;stroke-width:2.0;stroke-dasharray:-;stroke-linecap:round;stroke-linejoin:round;" /><path d="M 587.46,136.2 L 601.32,148.08 L 601.32,154.68" style="stroke:#17242f;fill:none;stroke-width:2.0;stroke-dasharray:-;stroke-linecap:round;stroke-linejoin:round;" /><path d="M 601.3199999999999,111.12 L 594.293,117.143" style="stroke:#17242f;fill:none;stroke-width:2.0;stroke-dasharray:-;stroke-linecap:round;stroke-linejoin:round;" /><path d="M 588.979 121.698 L 591.95 114.41 L 596.636 119.876 Z" style="stroke:#17242f;fill:#17242f;stroke-linecap:butt;stroke-linejoin:miter;" /><path d="M 601.3199999999999,154.68 L 601.32,210.54 L 601.32,266.4" style="stroke:#17242f;fill:none;stroke-width:2.0;stroke-dasharray:-;stroke-linecap:round;stroke-linejoin:round;" /><path d="M 601.3199999999999,266.40000000000003 L 601.32,280.8 L 592.32,280.8 L 610.32,280.8 M 595.02,285.12 L 607.62,285.12 M 599.52,289.44 L 603.12,289.44" style="stroke:#17242f;fill:none;stroke-width:2.0;stroke-dasharray:-;stroke-linecap:round;stroke-linejoin:round;" /><path d="M 601.3199999999999,104.52 L 612.12,104.52 L 622.92,104.52" style="stroke:#17242f;fill:none;stroke-width:2.0;stroke-dasharray:-;stroke-linecap:round;stroke-linejoin:round;" /><path d="M 622.9200000000001,104.52 L 651.72,104.52 L 654.72,95.52 L 660.72,113.52 L 666.72,95.52 L 672.72,113.52 L 678.72,95.52 L 684.72,113.52 L 687.72,104.52 L 716.52,104.52" style="stroke:#17242f;fill:none;stroke-width:2.0;stroke-dasharray:-;stroke-linecap:round;stroke-linejoin:round;" /><text x="-565.2" y="-149.79999999999998" dominant-baseline="central" fill="#5b6672" font-size="13" font-family="sans" text-anchor="end"><tspan x="-565.2" dy="13">J1</tspan></text><text x="-565.2" y="-119.0" dominant-baseline="central" fill="#5b6672" font-size="11" font-family="sans" text-anchor="end"><tspan x="-565.2" dy="11">Neutrik</tspan></text><text x="-565.2" y="-97.39999999999999" dominant-baseline="central" fill="#5b6672" font-size="11" font-family="sans" text-anchor="end"><tspan x="-565.2" dy="11">XLR3</tspan></text><text x="-531.0" y="-108.2" dominant-baseline="ideographic" fill="#17242f" font-size="11" font-family="sans" text-anchor="middle"><tspan x="-531.0" dy="11">2</tspan></text><text x="-477.0" y="-105.60000000000001" dominant-baseline="central" fill="#8a1c1c" font-size="12" font-family="sans" text-anchor="middle"><tspan x="-477.0" dy="12">P2</tspan></text><text x="-531.0" y="-47.0" dominant-baseline="ideographic" fill="#17242f" font-size="11" font-family="sans" text-anchor="middle"><tspan x="-531.0" dy="11">3</tspan></text><text x="-536.4" y="21.4" dominant-baseline="hanging" fill="#17242f" font-size="11" font-family="sans" text-anchor="middle"><tspan x="-536.4" dy="11">1</tspan></text><text x="-381.59999999999997" y="-146.60000000000002" dominant-baseline="ideographic" fill="#17242f" font-size="13" font-family="sans" text-anchor="middle"><tspan x="-381.59999999999997" dy="13">R9</tspan><tspan x="-381.59999999999997" dy="13">100k</tspan></text><text x="-325.8" y="-177.6" dominant-baseline="central" fill="#8a1c1c" font-size="12" font-family="sans" text-anchor="middle"><tspan x="-325.8" dy="12">VREF</tspan></text><text x="-370.8" y="-22.0" dominant-baseline="hanging" fill="#17242f" font-size="13" font-family="sans" text-anchor="middle"><tspan x="-370.8" dy="13">D1</tspan><tspan x="-370.8" dy="13">8.2V</tspan></text><text x="-324.0" y="-141.2" dominant-baseline="ideographic" fill="#17242f" font-size="13" font-family="sans" text-anchor="middle"><tspan x="-324.0" dy="13">C4</tspan><tspan x="-324.0" dy="13">22µF</tspan></text><text x="-277.2" y="-146.60000000000002" dominant-baseline="ideographic" fill="#17242f" font-size="13" font-family="sans" text-anchor="middle"><tspan x="-277.2" dy="13">R8</tspan><tspan x="-277.2" dy="13">10k</tspan></text><text x="-145.74" y="-131.8" dominant-baseline="central" fill="#17242f" font-size="13" font-family="sans" text-anchor="start"><tspan x="-145.74" dy="13">Q1  MMBT3904</tspan></text><text x="-203.34" y="-240.48" dominant-baseline="central" fill="#8a1c1c" font-size="12" font-family="sans" text-anchor="middle"><tspan x="-203.34" dy="12">P3</tspan></text><text x="-203.34" y="-31.0" dominant-baseline="ideographic" fill="#8a1c1c" font-size="13" font-family="sans" text-anchor="middle"><tspan x="-203.34" dy="13">VPIP</tspan></text><text x="-109.74000000000001" y="87.8" dominant-baseline="hanging" fill="#17242f" font-size="13" font-family="sans" text-anchor="middle"><tspan x="-109.74000000000001" dy="13">C1</tspan><tspan x="-109.74000000000001" dy="13">22µF</tspan></text><text x="-59.34000000000002" y="87.8" dominant-baseline="hanging" fill="#17242f" font-size="13" font-family="sans" text-anchor="middle"><tspan x="-59.34000000000002" dy="13">C5</tspan><tspan x="-59.34000000000002" dy="13">10µF</tspan></text><text x="48.66" y="-33.199999999999996" dominant-baseline="ideographic" fill="#17242f" font-size="13" font-family="sans" text-anchor="middle"><tspan x="48.66" dy="13">R10</tspan><tspan x="48.66" dy="13">6.8k</tspan></text><text x="1.8599999999999994" y="119.4" dominant-baseline="central" fill="#8a1c1c" font-size="12" font-family="sans" text-anchor="end"><tspan x="1.8599999999999994" dy="12">MICOUT</tspan></text><text x="3.659999999999993" y="193.2" dominant-baseline="central" fill="#17242f" font-size="12" font-family="sans" text-anchor="end"><tspan x="3.659999999999993" dy="12">MIC1</tspan></text><text x="3.659999999999993" y="217.6" dominant-baseline="central" fill="#17242f" font-size="11" font-family="sans" text-anchor="end"><tspan x="3.659999999999993" dy="11">AOM-5024</tspan></text><text x="235.85999999999996" y="122.0" dominant-baseline="hanging" fill="#17242f" font-size="13" font-family="sans" text-anchor="middle"><tspan x="235.85999999999996" dy="13">R3</tspan><tspan x="235.85999999999996" dy="13">100k</tspan></text><text x="235.85999999999996" y="258.8" dominant-baseline="hanging" fill="#17242f" font-size="13" font-family="sans" text-anchor="middle"><tspan x="235.85999999999996" dy="13">R4</tspan><tspan x="235.85999999999996" dy="13">100k</tspan></text><text x="142.26000000000002" y="87.39999999999999" dominant-baseline="ideographic" fill="#17242f" font-size="13" font-family="sans" text-anchor="middle"><tspan x="142.26000000000002" dy="13">C2</tspan><tspan x="142.26000000000002" dy="13">22µF</tspan></text><text x="331.32" y="44.6" dominant-baseline="central" fill="#17242f" font-size="13" font-family="sans" text-anchor="middle"><tspan x="331.32" dy="13">Q2  MMBT3906</tspan></text><text x="396.12" y="64.12" dominant-baseline="ideographic" fill="#17242f" font-size="13" font-family="sans" text-anchor="middle"><tspan x="396.12" dy="13">R1</tspan><tspan x="396.12" dy="13">10k</tspan></text><text x="469.91999999999996" y="92.52" dominant-baseline="central" fill="#8a1c1c" font-size="12" font-family="sans" text-anchor="middle"><tspan x="469.91999999999996" dy="12">P2</tspan></text><text x="509.46000000000004" y="122.0" dominant-baseline="hanging" fill="#17242f" font-size="13" font-family="sans" text-anchor="middle"><tspan x="509.46000000000004" dy="13">R6</tspan><tspan x="509.46000000000004" dy="13">100k</tspan></text><text x="509.46000000000004" y="258.8" dominant-baseline="hanging" fill="#17242f" font-size="13" font-family="sans" text-anchor="middle"><tspan x="509.46000000000004" dy="13">R7</tspan><tspan x="509.46000000000004" dy="13">100k</tspan></text><text x="441.06" y="260.6" dominant-baseline="hanging" fill="#17242f" font-size="13" font-family="sans" text-anchor="middle"><tspan x="441.06" dy="13">C3</tspan><tspan x="441.06" dy="13">22µF</tspan></text><text x="604.9200000000001" y="44.6" dominant-baseline="central" fill="#17242f" font-size="13" font-family="sans" text-anchor="middle"><tspan x="604.9200000000001" dy="13">Q3  MMBT3906</tspan></text><text x="669.72" y="64.12" dominant-baseline="ideographic" fill="#17242f" font-size="13" font-family="sans" text-anchor="middle"><tspan x="669.72" dy="13">R2</tspan><tspan x="669.72" dy="13">10k</tspan></text><text x="743.5200000000001" y="92.52" dominant-baseline="central" fill="#8a1c1c" font-size="12" font-family="sans" text-anchor="middle"><tspan x="743.5200000000001" dy="12">P3</tspan></text><text x="185.45999999999998" y="304.8" dominant-baseline="central" fill="#5b6672" font-size="12" font-family="sans" text-anchor="middle"><tspan x="185.45999999999998" dy="12">P48 → 8 V PIP adapter   ·   impedance-balanced two-transistor buffer   ·   nets per netlist.py</tspan></text><circle cx="-558" cy="-93.6" r="2.7" style="stroke:#17242f;fill:#17242f;stroke-width:2.0;stroke-dasharray:-;" /><circle cx="-558" cy="-32.4" r="2.7" style="stroke:#17242f;fill:#17242f;stroke-width:2.0;stroke-dasharray:-;" /><circle cx="-439.2" cy="-108" r="2.7" style="stroke:#17242f;fill:#17242f;stroke-width:2.0;stroke-dasharray:-;" /><circle cx="-558" cy="28.8" r="2.7" style="stroke:#17242f;fill:#17242f;stroke-width:2.0;stroke-dasharray:-;" /><circle cx="-324" cy="-108" r="2.7" style="stroke:#17242f;fill:#17242f;stroke-width:2.0;stroke-dasharray:-;" /><circle cx="-203.34" cy="-0" r="2.7" style="stroke:#17242f;fill:#17242f;stroke-width:2.0;stroke-dasharray:-;" /><circle cx="-109.74" cy="-0" r="2.7" style="stroke:#17242f;fill:#17242f;stroke-width:2.0;stroke-dasharray:-;" /><circle cx="-59.34" cy="-0" r="2.7" style="stroke:#17242f;fill:#17242f;stroke-width:2.0;stroke-dasharray:-;" /><circle cx="48.66" cy="-0" r="2.7" style="stroke:#17242f;fill:#17242f;stroke-width:2.0;stroke-dasharray:-;" /><circle cx="48.66" cy="129.6" r="2.7" style="stroke:#17242f;fill:#17242f;stroke-width:2.0;stroke-dasharray:-;" /><circle cx="235.86" cy="129.6" r="2.7" style="stroke:#17242f;fill:#17242f;stroke-width:2.0;stroke-dasharray:-;" /><circle cx="235.86" cy="-0" r="2.7" style="stroke:#17242f;fill:#17242f;stroke-width:2.0;stroke-dasharray:-;" /><circle cx="509.46" cy="129.6" r="2.7" style="stroke:#17242f;fill:#17242f;stroke-width:2.0;stroke-dasharray:-;" /><circle cx="509.46" cy="-0" r="2.7" style="stroke:#17242f;fill:#17242f;stroke-width:2.0;stroke-dasharray:-;" /></svg>