<svg xmlns="http://www.w3.org/2000/svg" xmlns:xlink="http://www.w3.org/1999/xlink" xml:lang="en" height="565.88pt" width="1258.088pt" viewBox="-454.168 -256.48 1258.088 565.88"><polygon points="-363.6,-86.4 -352.35,-97.65 -309.6,-97.65 -309.6,-75.15 -352.35,-75.15 " style="stroke:#16232e;fill:none;stroke-width:2.0;stroke-dasharray:-;stroke-linecap:round;stroke-linejoin:round;" /><polygon points="-363.6,-28.8 -352.35,-40.05 -309.6,-40.05 -309.6,-17.55 -352.35,-17.55 " style="stroke:#16232e;fill:none;stroke-width:2.0;stroke-dasharray:-;stroke-linecap:round;stroke-linejoin:round;" /><polygon points="-324,-108 -335.25,-96.75 -378,-96.75 -378,-119.25 -335.25,-119.25 " style="stroke:#16232e;fill:none;stroke-width:2.0;stroke-dasharray:-;stroke-linecap:round;stroke-linejoin:round;" /><polygon points="-261,-54.9 -252,-67.5 -243,-54.9 " style="stroke:#16232e;fill:none;stroke-width:2.0;stroke-dasharray:-;stroke-linecap:round;stroke-linejoin:round;" /><circle cx="-95.4" cy="-108" r="19.8" style="stroke:#16232e;fill:none;stroke-width:2.0;stroke-dasharray:-;" /><polygon points="-88.14,-197.88 -99.39,-209.13 -99.39,-251.88 -76.89,-251.88 -76.89,-209.13 " style="stroke:#16232e;fill:none;stroke-width:2.0;stroke-dasharray:-;stroke-linecap:round;stroke-linejoin:round;" /><path d="M 108.06 104.4 a 18 18 -270 1 1 -36 0" style="stroke:#16232e;fill:none;stroke-width:2.0;stroke-dasharray:-;" /><circle cx="316.86" cy="122.4" r="19.8" style="stroke:#16232e;fill:none;stroke-width:2.0;stroke-dasharray:-;" /><polygon points="435.72,97.32 446.97,86.07 489.72,86.07 489.72,108.57 446.97,108.57 " style="stroke:#16232e;fill:none;stroke-width:2.0;stroke-dasharray:-;stroke-linecap:round;stroke-linejoin:round;" /><circle cx="626.46" cy="122.4" r="19.8" style="stroke:#16232e;fill:none;stroke-width:2.0;stroke-dasharray:-;" /><polygon points="745.32,97.32 756.57,86.07 799.32,86.07 799.32,108.57 756.57,108.57 " style="stroke:#16232e;fill:none;stroke-width:2.0;stroke-dasharray:-;stroke-linecap:round;stroke-linejoin:round;" /><path d="M -414.0,-86.39999999999999 L -388.8,-86.4 L -363.6,-86.4" style="stroke:#16232e;fill:none;stroke-width:2.0;stroke-dasharray:-;stroke-linecap:round;stroke-linejoin:round;" /><path d="M -414.0,-28.8 L -388.8,-28.8 L -363.6,-28.8" style="stroke:#16232e;fill:none;stroke-width:2.0;stroke-dasharray:-;stroke-linecap:round;stroke-linejoin:round;" /><path d="M -414.0,32.4 L -394.2,32.4 L -374.4,32.4" style="stroke:#16232e;fill:none;stroke-width:2.0;stroke-dasharray:-;stroke-linecap:round;stroke-linejoin:round;" /><path d="M -374.40000000000003,32.4 L -374.4,46.8 L -383.4,46.8 L -365.4,46.8 M -380.7,51.12 L -368.1,51.12 M -376.2,55.44 L -372.6,55.44" style="stroke:#16232e;fill:none;stroke-width:2.0;stroke-dasharray:-;stroke-linecap:round;stroke-linejoin:round;" /><path d="M -324.0,-108.0 L -284.4,-108 L -281.4,-117 L -275.4,-99 L -269.4,-117 L -263.4,-99 L -257.4,-117 L -251.4,-99 L -248.4,-108 L -208.8,-108" style="stroke:#16232e;fill:none;stroke-width:2.0;stroke-dasharray:-;stroke-linecap:round;stroke-linejoin:round;" /><path d="M -208.79999999999998,-108.0 L -230.4,-108 L -252,-108" style="stroke:#16232e;fill:none;stroke-width:2.0;stroke-dasharray:-;stroke-linecap:round;stroke-linejoin:round;" /><path d="M -252.0,-108.0 L -252,-67.5 M -261,-67.5 L -243,-67.5 M -252,-54.9 L -252,-14.4" style="stroke:#16232e;fill:none;stroke-width:2.0;stroke-dasharray:-;stroke-linecap:round;stroke-linejoin:round;" /><path d="M -239.4,-71.10000000000001 L -243,-67.5" style="stroke:#16232e;fill:none;stroke-width:2.0;stroke-dasharray:-;stroke-linecap:round;stroke-linejoin:round;" /><path d="M -264.6,-63.900000000000006 L -261,-67.5" style="stroke:#16232e;fill:none;stroke-width:2.0;stroke-dasharray:-;stroke-linecap:round;stroke-linejoin:round;" /><path d="M -252.00000000000003,-14.400000000000013 L -252,-0 L -261,-0 L -243,-0 M -258.3,4.32 L -245.7,4.32 M -253.8,8.64 L -250.2,8.64" style="stroke:#16232e;fill:none;stroke-width:2.0;stroke-dasharray:-;stroke-linecap:round;stroke-linejoin:round;" /><path d="M -208.79999999999998,-108.0 L -208.8,-64.44 M -199.8,-64.44 L -217.8,-64.44 M -199.8,-57.96 L -217.8,-57.96 M -208.8,-57.96 L -208.8,-14.4" style="stroke:#16232e;fill:none;stroke-width:2.0;stroke-dasharray:-;stroke-linecap:round;stroke-linejoin:round;" /><path d="M -208.8,-14.400000000000013 L -208.8,-0 L -217.8,-0 L -199.8,-0 M -215.1,4.32 L -202.5,4.32 M -210.6,8.64 L -207,8.64" style="stroke:#16232e;fill:none;stroke-width:2.0;stroke-dasharray:-;stroke-linecap:round;stroke-linejoin:round;" /><path d="M -208.79999999999998,-108.0 L -180,-108 L -177,-117 L -171,-99 L -165,-117 L -159,-99 L -153,-117 L -147,-99 L -144,-108 L -115.2,-108" style="stroke:#16232e;fill:none;stroke-width:2.0;stroke-dasharray:-;stroke-linecap:round;stroke-linejoin:round;" /><path d="M -115.19999999999999,-108.0 L -102,-108" style="stroke:#16232e;fill:none;stroke-width:2.0;stroke-dasharray:-;stroke-linecap:round;stroke-linejoin:round;" /><path d="M -101.99999999999999,-121.2 L -102,-94.8" style="stroke:#16232e;fill:none;stroke-width:2.0;stroke-dasharray:-;stroke-linecap:round;stroke-linejoin:round;" /><path d="M -101.99999999999999,-114.6 L -88.14,-126.48 L -88.14,-133.08" style="stroke:#16232e;fill:none;stroke-width:2.0;stroke-dasharray:-;stroke-linecap:round;stroke-linejoin:round;" /><path d="M -101.99999999999999,-101.4 L -88.14,-89.52 L -88.14,-82.92" style="stroke:#16232e;fill:none;stroke-width:2.0;stroke-dasharray:-;stroke-linecap:round;stroke-linejoin:round;" /><path d="M -101.99999999999999,-101.4 L -94.973,-95.377" style="stroke:#16232e;fill:none;stroke-width:2.0;stroke-dasharray:-;stroke-linecap:round;stroke-linejoin:round;" /><path d="M -89.659 -90.822 L -97.316 -92.644 L -92.63 -98.11 Z" style="stroke:#16232e;fill:#16232e;stroke-linecap:butt;stroke-linejoin:miter;" /><path d="M -88.14,-133.08 L -88.14,-165.48 L -88.14,-197.88" style="stroke:#16232e;fill:none;stroke-width:2.0;stroke-dasharray:-;stroke-linecap:round;stroke-linejoin:round;" /><path d="M -88.14,-82.92 L -88.14,-41.46 L -88.14,-0" style="stroke:#16232e;fill:none;stroke-width:2.0;stroke-dasharray:-;stroke-linecap:round;stroke-linejoin:round;" /><path d="M -88.14,-0.0 L 253.86,-0 L 595.86,-0" style="stroke:#16232e;fill:none;stroke-width:3.2;stroke-dasharray:-;stroke-linecap:round;stroke-linejoin:round;" /><path d="M -88.14,-0.0 L -88.14,-14.4" style="stroke:#16232e;fill:none;stroke-width:2.0;stroke-dasharray:-;stroke-linecap:round;stroke-linejoin:round;" /><path d="M -88.14,-14.4 L -94.89,-14.4" style="stroke:#16232e;fill:none;stroke-width:2.0;stroke-dasharray:-;stroke-linecap:round;stroke-linejoin:round;" /><path d="M -88.14,-14.4 L -81.39,-14.4" style="stroke:#16232e;fill:none;stroke-width:2.0;stroke-dasharray:-;stroke-linecap:round;stroke-linejoin:round;" /><path d="M -34.14,-0.0 L -34.14,43.56 M -25.14,43.56 L -43.14,43.56 M -25.14,50.04 L -43.14,50.04 M -34.14,50.04 L -34.14,93.6" style="stroke:#16232e;fill:none;stroke-width:2.0;stroke-dasharray:-;stroke-linecap:round;stroke-linejoin:round;" /><path d="M -34.140000000000015,93.6 L -34.14,108 L -43.14,108 L -25.14,108 M -40.44,112.32 L -27.84,112.32 M -35.94,116.64 L -32.34,116.64" style="stroke:#16232e;fill:none;stroke-width:2.0;stroke-dasharray:-;stroke-linecap:round;stroke-linejoin:round;" /><path d="M 19.860000000000003,-0.0 L 19.86,43.56 M 28.86,43.56 L 10.86,43.56 M 28.86,50.04 L 10.86,50.04 M 19.86,50.04 L 19.86,93.6" style="stroke:#16232e;fill:none;stroke-width:2.0;stroke-dasharray:-;stroke-linecap:round;stroke-linejoin:round;" /><path d="M 19.859999999999985,93.6 L 19.86,108 L 10.86,108 L 28.86,108 M 13.56,112.32 L 26.16,112.32 M 18.06,116.64 L 21.66,116.64" style="stroke:#16232e;fill:none;stroke-width:2.0;stroke-dasharray:-;stroke-linecap:round;stroke-linejoin:round;" /><path d="M 99.06,-0.0 L 99.06,43.2 L 108.06,46.2 L 90.06,52.2 L 108.06,58.2 L 90.06,64.2 L 108.06,70.2 L 90.06,76.2 L 99.06,79.2 L 99.06,122.4" style="stroke:#16232e;fill:none;stroke-width:2.0;stroke-dasharray:-;stroke-linecap:round;stroke-linejoin:round;" /><path d="M 99.06,122.39999999999999 L 99.06,131.4" style="stroke:#16232e;fill:none;stroke-width:2.0;stroke-dasharray:-;stroke-linecap:round;stroke-linejoin:round;" /><path d="M 81.06,122.39999999999999 L 81.06,131.4" style="stroke:#16232e;fill:none;stroke-width:2.0;stroke-dasharray:-;stroke-linecap:round;stroke-linejoin:round;" /><path d="M 108.06,104.39999999999999 L 72.06,104.4" style="stroke:#16232e;fill:none;stroke-width:2.0;stroke-dasharray:-;stroke-linecap:round;stroke-linejoin:round;" /><path d="M 81.06,122.39999999999999 L 81.06,136.8 L 72.06,136.8 L 90.06,136.8 M 74.76,141.12 L 87.36,141.12 M 79.26,145.44 L 82.86,145.44" style="stroke:#16232e;fill:none;stroke-width:2.0;stroke-dasharray:-;stroke-linecap:round;stroke-linejoin:round;" /><path d="M 99.06,122.39999999999999 L 164.22,122.4 M 164.22,113.4 L 164.22,131.4 M 170.7,113.4 L 170.7,131.4 M 170.7,122.4 L 235.86,122.4" style="stroke:#16232e;fill:none;stroke-width:2.0;stroke-dasharray:-;stroke-linecap:round;stroke-linejoin:round;" /><path d="M 235.86,-0.0 L 235.86,43.2 L 244.86,46.2 L 226.86,52.2 L 244.86,58.2 L 226.86,64.2 L 244.86,70.2 L 226.86,76.2 L 235.86,79.2 L 235.86,122.4" style="stroke:#16232e;fill:none;stroke-width:2.0;stroke-dasharray:-;stroke-linecap:round;stroke-linejoin:round;" /><path d="M 235.86,122.39999999999999 L 235.86,169.2 L 244.86,172.2 L 226.86,178.2 L 244.86,184.2 L 226.86,190.2 L 244.86,196.2 L 226.86,202.2 L 235.86,205.2 L 235.86,252" style="stroke:#16232e;fill:none;stroke-width:2.0;stroke-dasharray:-;stroke-linecap:round;stroke-linejoin:round;" /><path d="M 235.85999999999996,252.0 L 235.86,266.4 L 226.86,266.4 L 244.86,266.4 M 229.56,270.72 L 242.16,270.72 M 234.06,275.04 L 237.66,275.04" style="stroke:#16232e;fill:none;stroke-width:2.0;stroke-dasharray:-;stroke-linecap:round;stroke-linejoin:round;" /><path d="M 235.86,122.39999999999999 L 266.46,122.4 L 297.06,122.4" style="stroke:#16232e;fill:none;stroke-width:2.0;stroke-dasharray:-;stroke-linecap:round;stroke-linejoin:round;" /><path d="M 297.06,122.39999999999999 L 310.26,122.4" style="stroke:#16232e;fill:none;stroke-width:2.0;stroke-dasharray:-;stroke-linecap:round;stroke-linejoin:round;" /><path d="M 310.26000000000005,109.19999999999999 L 310.26,135.6" style="stroke:#16232e;fill:none;stroke-width:2.0;stroke-dasharray:-;stroke-linecap:round;stroke-linejoin:round;" /><path d="M 310.26000000000005,115.80000000000001 L 324.12,103.92 L 324.12,97.32" style="stroke:#16232e;fill:none;stroke-width:2.0;stroke-dasharray:-;stroke-linecap:round;stroke-linejoin:round;" /><path d="M 310.26000000000005,129.0 L 324.12,140.88 L 324.12,147.48" style="stroke:#16232e;fill:none;stroke-width:2.0;stroke-dasharray:-;stroke-linecap:round;stroke-linejoin:round;" /><path d="M 324.12,103.92 L 317.093,109.943" style="stroke:#16232e;fill:none;stroke-width:2.0;stroke-dasharray:-;stroke-linecap:round;stroke-linejoin:round;" /><path d="M 311.779 114.498 L 314.75 107.21 L 319.436 112.676 Z" style="stroke:#16232e;fill:#16232e;stroke-linecap:butt;stroke-linejoin:miter;" /><path d="M 324.12,147.48 L 324.12,199.74 L 324.12,252" style="stroke:#16232e;fill:none;stroke-width:2.0;stroke-dasharray:-;stroke-linecap:round;stroke-linejoin:round;" /><path d="M 324.12,252.0 L 324.12,266.4 L 315.12,266.4 L 333.12,266.4 M 317.82,270.72 L 330.42,270.72 M 322.32,275.04 L 325.92,275.04" style="stroke:#16232e;fill:none;stroke-width:2.0;stroke-dasharray:-;stroke-linecap:round;stroke-linejoin:round;" /><path d="M 324.12,97.32 L 333.12,97.32 L 342.12,97.32" style="stroke:#16232e;fill:none;stroke-width:2.0;stroke-dasharray:-;stroke-linecap:round;stroke-linejoin:round;" /><path d="M 342.12,97.32 L 370.92,97.32 L 373.92,88.32 L 379.92,106.32 L 385.92,88.32 L 391.92,106.32 L 397.92,88.32 L 403.92,106.32 L 406.92,97.32 L 435.72,97.32" style="stroke:#16232e;fill:none;stroke-width:2.0;stroke-dasharray:-;stroke-linecap:round;stroke-linejoin:round;" /><path d="M 545.46,-0.0 L 545.46,43.2 L 554.46,46.2 L 536.46,52.2 L 554.46,58.2 L 536.46,64.2 L 554.46,70.2 L 536.46,76.2 L 545.46,79.2 L 545.46,122.4" style="stroke:#16232e;fill:none;stroke-width:2.0;stroke-dasharray:-;stroke-linecap:round;stroke-linejoin:round;" /><path d="M 545.46,122.39999999999999 L 545.46,169.2 L 554.46,172.2 L 536.46,178.2 L 554.46,184.2 L 536.46,190.2 L 554.46,196.2 L 536.46,202.2 L 545.46,205.2 L 545.46,252" style="stroke:#16232e;fill:none;stroke-width:2.0;stroke-dasharray:-;stroke-linecap:round;stroke-linejoin:round;" /><path d="M 545.46,252.0 L 545.46,266.4 L 536.46,266.4 L 554.46,266.4 M 539.16,270.72 L 551.76,270.72 M 543.66,275.04 L 547.26,275.04" style="stroke:#16232e;fill:none;stroke-width:2.0;stroke-dasharray:-;stroke-linecap:round;stroke-linejoin:round;" /><path d="M 545.46,122.39999999999999 L 514.86,122.4 L 484.26,122.4" style="stroke:#16232e;fill:none;stroke-width:2.0;stroke-dasharray:-;stroke-linecap:round;stroke-linejoin:round;" /><path d="M 484.26000000000005,122.39999999999999 L 484.26,183.96 M 493.26,183.96 L 475.26,183.96 M 493.26,190.44 L 475.26,190.44 M 484.26,190.44 L 484.26,252" style="stroke:#16232e;fill:none;stroke-width:2.0;stroke-dasharray:-;stroke-linecap:round;stroke-linejoin:round;" /><path d="M 484.26000000000005,252.0 L 484.26,266.4 L 475.26,266.4 L 493.26,266.4 M 477.96,270.72 L 490.56,270.72 M 482.46,275.04 L 486.06,275.04" style="stroke:#16232e;fill:none;stroke-width:2.0;stroke-dasharray:-;stroke-linecap:round;stroke-linejoin:round;" /><path d="M 545.46,122.39999999999999 L 576.06,122.4 L 606.66,122.4" style="stroke:#16232e;fill:none;stroke-width:2.0;stroke-dasharray:-;stroke-linecap:round;stroke-linejoin:round;" /><path d="M 606.66,122.39999999999999 L 619.86,122.4" style="stroke:#16232e;fill:none;stroke-width:2.0;stroke-dasharray:-;stroke-linecap:round;stroke-linejoin:round;" /><path d="M 619.86,109.19999999999999 L 619.86,135.6" style="stroke:#16232e;fill:none;stroke-width:2.0;stroke-dasharray:-;stroke-linecap:round;stroke-linejoin:round;" /><path d="M 619.86,115.80000000000001 L 633.72,103.92 L 633.72,97.32" style="stroke:#16232e;fill:none;stroke-width:2.0;stroke-dasharray:-;stroke-linecap:round;stroke-linejoin:round;" /><path d="M 619.86,129.0 L 633.72,140.88 L 633.72,147.48" style="stroke:#16232e;fill:none;stroke-width:2.0;stroke-dasharray:-;stroke-linecap:round;stroke-linejoin:round;" /><path d="M 633.7199999999999,103.92 L 626.693,109.943" style="stroke:#16232e;fill:none;stroke-width:2.0;stroke-dasharray:-;stroke-linecap:round;stroke-linejoin:round;" /><path d="M 621.379 114.498 L 624.35 107.21 L 629.036 112.676 Z" style="stroke:#16232e;fill:#16232e;stroke-linecap:butt;stroke-linejoin:miter;" /><path d="M 633.7199999999999,147.48 L 633.72,199.74 L 633.72,252" style="stroke:#16232e;fill:none;stroke-width:2.0;stroke-dasharray:-;stroke-linecap:round;stroke-linejoin:round;" /><path d="M 633.7199999999999,252.0 L 633.72,266.4 L 624.72,266.4 L 642.72,266.4 M 627.42,270.72 L 640.02,270.72 M 631.92,275.04 L 635.52,275.04" style="stroke:#16232e;fill:none;stroke-width:2.0;stroke-dasharray:-;stroke-linecap:round;stroke-linejoin:round;" /><path d="M 633.7199999999999,97.32 L 642.72,97.32 L 651.72,97.32" style="stroke:#16232e;fill:none;stroke-width:2.0;stroke-dasharray:-;stroke-linecap:round;stroke-linejoin:round;" /><path d="M 651.7199999999999,97.32 L 680.52,97.32 L 683.52,88.32 L 689.52,106.32 L 695.52,88.32 L 701.52,106.32 L 707.52,88.32 L 713.52,106.32 L 716.52,97.32 L 745.32,97.32" style="stroke:#16232e;fill:none;stroke-width:2.0;stroke-dasharray:-;stroke-linecap:round;stroke-linejoin:round;" /><text x="-399.59999999999997" y="-138.0" dominant-baseline="central" fill="#555" font-size="12" font-family="sans" text-anchor="middle"><tspan x="-399.59999999999997" dy="12">J1  ·  Neutrik XLR3</tspan></text><text x="-388.8" y="-101.0" dominant-baseline="ideographic" fill="#16232e" font-size="11" font-family="sans" text-anchor="middle"><tspan x="-388.8" dy="11">2</tspan></text><text x="-336.59999999999997" y="-98.39999999999999" dominant-baseline="central" fill="#8a1c1c" font-size="12" font-family="sans" text-anchor="middle"><tspan x="-336.59999999999997" dy="12">P2</tspan></text><text x="-388.8" y="-43.4" dominant-baseline="ideographic" fill="#16232e" font-size="11" font-family="sans" text-anchor="middle"><tspan x="-388.8" dy="11">3</tspan></text><text x="-336.59999999999997" y="-40.8" dominant-baseline="central" fill="#8a1c1c" font-size="12" font-family="sans" text-anchor="middle"><tspan x="-336.59999999999997" dy="12">P3</tspan></text><text x="-394.2" y="25.0" dominant-baseline="hanging" fill="#16232e" font-size="11" font-family="sans" text-anchor="middle"><tspan x="-394.2" dy="11">1</tspan></text><text x="-351.0" y="-120.0" dominant-baseline="central" fill="#8a1c1c" font-size="12" font-family="sans" text-anchor="middle"><tspan x="-351.0" dy="12">P3</tspan></text><text x="-266.40000000000003" y="-148.60000000000002" dominant-baseline="ideographic" fill="#16232e" font-size="14" font-family="sans" text-anchor="middle"><tspan x="-266.40000000000003" dy="14">R9</tspan><tspan x="-266.40000000000003" dy="14">100k</tspan></text><text x="-210.60000000000002" y="-177.6" dominant-baseline="central" fill="#8a1c1c" font-size="12" font-family="sans" text-anchor="middle"><tspan x="-210.60000000000002" dy="12">VREF</tspan></text><text x="-252.00000000000003" y="-24.799999999999994" dominant-baseline="hanging" fill="#16232e" font-size="14" font-family="sans" text-anchor="middle"><tspan x="-252.00000000000003" dy="14">D1</tspan><tspan x="-252.00000000000003" dy="14">8.2V</tspan></text><text x="-208.79999999999998" y="-139.60000000000002" dominant-baseline="ideographic" fill="#16232e" font-size="14" font-family="sans" text-anchor="middle"><tspan x="-208.79999999999998" dy="14">C4</tspan><tspan x="-208.79999999999998" dy="14">22µF</tspan></text><text x="-162.0" y="-148.60000000000002" dominant-baseline="ideographic" fill="#16232e" font-size="14" font-family="sans" text-anchor="middle"><tspan x="-162.0" dy="14">R8</tspan><tspan x="-162.0" dy="14">10k</tspan></text><text x="-71.99999999999999" y="-128.7" dominant-baseline="central" fill="#16232e" font-size="14" font-family="sans" text-anchor="start"><tspan x="-71.99999999999999" dy="14">Q1</tspan><tspan x="-71.99999999999999" dy="14">MMBT3904</tspan></text><text x="-88.14" y="-236.88000000000002" dominant-baseline="central" fill="#8a1c1c" font-size="12" font-family="sans" text-anchor="middle"><tspan x="-88.14" dy="12">P3</tspan></text><text x="-88.14" y="-32.0" dominant-baseline="ideographic" fill="#8a1c1c" font-size="14" font-family="sans" text-anchor="middle"><tspan x="-88.14" dy="14">VPIP</tspan></text><text x="-34.140000000000015" y="83.2" dominant-baseline="hanging" fill="#16232e" font-size="14" font-family="sans" text-anchor="middle"><tspan x="-34.140000000000015" dy="14">C1</tspan><tspan x="-34.140000000000015" dy="14">22µF</tspan></text><text x="19.859999999999985" y="83.2" dominant-baseline="hanging" fill="#16232e" font-size="14" font-family="sans" text-anchor="middle"><tspan x="19.859999999999985" dy="14">C5</tspan><tspan x="19.859999999999985" dy="14">10µF</tspan></text><text x="99.06" y="-31.6" dominant-baseline="ideographic" fill="#16232e" font-size="14" font-family="sans" text-anchor="middle"><tspan x="99.06" dy="14">R10</tspan><tspan x="99.06" dy="14">6.8k</tspan></text><text x="97.26000000000002" y="87.0" dominant-baseline="central" fill="#8a1c1c" font-size="12" font-family="sans" text-anchor="middle"><tspan x="97.26000000000002" dy="12">MICOUT</tspan></text><text x="61.26000000000002" y="169.2" dominant-baseline="central" fill="#16232e" font-size="12" font-family="sans" text-anchor="middle"><tspan x="61.26000000000002" dy="12">MIC1</tspan><tspan x="61.26000000000002" dy="12">AOM-5024</tspan></text><text x="167.46000000000004" y="81.8" dominant-baseline="ideographic" fill="#16232e" font-size="14" font-family="sans" text-anchor="middle"><tspan x="167.46000000000004" dy="14">C2</tspan><tspan x="167.46000000000004" dy="14">22µF</tspan></text><text x="235.85999999999996" y="112.0" dominant-baseline="hanging" fill="#16232e" font-size="14" font-family="sans" text-anchor="middle"><tspan x="235.85999999999996" dy="14">R3</tspan><tspan x="235.85999999999996" dy="14">100k</tspan></text><text x="235.85999999999996" y="241.60000000000002" dominant-baseline="hanging" fill="#16232e" font-size="14" font-family="sans" text-anchor="middle"><tspan x="235.85999999999996" dy="14">R4</tspan><tspan x="235.85999999999996" dy="14">100k</tspan></text><text x="327.72" y="38.099999999999994" dominant-baseline="central" fill="#16232e" font-size="13" font-family="sans" text-anchor="middle"><tspan x="327.72" dy="13">Q2</tspan><tspan x="327.72" dy="13">MMBT3906</tspan></text><text x="388.9200000000001" y="56.719999999999985" dominant-baseline="ideographic" fill="#16232e" font-size="14" font-family="sans" text-anchor="middle"><tspan x="388.9200000000001" dy="14">R1</tspan><tspan x="388.9200000000001" dy="14">10k</tspan></text><text x="462.72" y="85.32" dominant-baseline="central" fill="#8a1c1c" font-size="12" font-family="sans" text-anchor="middle"><tspan x="462.72" dy="12">P2</tspan></text><text x="545.46" y="112.0" dominant-baseline="hanging" fill="#16232e" font-size="14" font-family="sans" text-anchor="middle"><tspan x="545.46" dy="14">R6</tspan><tspan x="545.46" dy="14">100k</tspan></text><text x="545.46" y="241.60000000000002" dominant-baseline="hanging" fill="#16232e" font-size="14" font-family="sans" text-anchor="middle"><tspan x="545.46" dy="14">R7</tspan><tspan x="545.46" dy="14">100k</tspan></text><text x="484.26000000000005" y="241.60000000000002" dominant-baseline="hanging" fill="#16232e" font-size="14" font-family="sans" text-anchor="middle"><tspan x="484.26000000000005" dy="14">C3</tspan><tspan x="484.26000000000005" dy="14">22µF</tspan></text><text x="637.3199999999999" y="38.099999999999994" dominant-baseline="central" fill="#16232e" font-size="13" font-family="sans" text-anchor="middle"><tspan x="637.3199999999999" dy="13">Q3</tspan><tspan x="637.3199999999999" dy="13">MMBT3906</tspan></text><text x="698.52" y="56.719999999999985" dominant-baseline="ideographic" fill="#16232e" font-size="14" font-family="sans" text-anchor="middle"><tspan x="698.52" dy="14">R2</tspan><tspan x="698.52" dy="14">10k</tspan></text><text x="772.3199999999999" y="85.32" dominant-baseline="central" fill="#8a1c1c" font-size="12" font-family="sans" text-anchor="middle"><tspan x="772.3199999999999" dy="12">P3</tspan></text><text x="257.46" y="286.8" dominant-baseline="central" fill="#666" font-size="12" font-family="sans" text-anchor="middle"><tspan x="257.46" dy="12">P48 → 8 V PIP adapter   ·   impedance-balanced two-transistor buffer   ·   nets per netlist.py</tspan></text><circle cx="-414" cy="-86.4" r="2.7" style="stroke:#16232e;fill:white;stroke-width:2.0;stroke-dasharray:-;" /><circle cx="-414" cy="-28.8" r="2.7" style="stroke:#16232e;fill:white;stroke-width:2.0;stroke-dasharray:-;" /><circle cx="-414" cy="32.4" r="2.7" style="stroke:#16232e;fill:white;stroke-width:2.0;stroke-dasharray:-;" /><circle cx="-208.8" cy="-108" r="2.7" style="stroke:#16232e;fill:#16232e;stroke-width:2.0;stroke-dasharray:-;" /><circle cx="-88.14" cy="-0" r="2.7" style="stroke:#16232e;fill:#16232e;stroke-width:2.0;stroke-dasharray:-;" /><circle cx="-34.14" cy="-0" r="2.7" style="stroke:#16232e;fill:#16232e;stroke-width:2.0;stroke-dasharray:-;" /><circle cx="19.86" cy="-0" r="2.7" style="stroke:#16232e;fill:#16232e;stroke-width:2.0;stroke-dasharray:-;" /><circle cx="99.06" cy="-0" r="2.7" style="stroke:#16232e;fill:#16232e;stroke-width:2.0;stroke-dasharray:-;" /><circle cx="99.06" cy="122.4" r="2.7" style="stroke:#16232e;fill:#16232e;stroke-width:2.0;stroke-dasharray:-;" /><circle cx="235.86" cy="122.4" r="2.7" style="stroke:#16232e;fill:#16232e;stroke-width:2.0;stroke-dasharray:-;" /><circle cx="235.86" cy="-0" r="2.7" style="stroke:#16232e;fill:#16232e;stroke-width:2.0;stroke-dasharray:-;" /><circle cx="545.46" cy="122.4" r="2.7" style="stroke:#16232e;fill:#16232e;stroke-width:2.0;stroke-dasharray:-;" /><circle cx="545.46" cy="-0" r="2.7" style="stroke:#16232e;fill:#16232e;stroke-width:2.0;stroke-dasharray:-;" /></svg>