%TF.GenerationSoftware,KiCad,Pcbnew,10.0.3*%
%TF.CreationDate,2026-07-06T19:24:51+03:00*%
%TF.ProjectId,p48_pip_adapter,7034385f-7069-4705-9f61-646170746572,rev?*%
%TF.SameCoordinates,Original*%
%TF.FileFunction,Soldermask,Top*%
%TF.FilePolarity,Negative*%
%FSLAX46Y46*%
G04 Gerber Fmt 4.6, Leading zero omitted, Abs format (unit mm)*
G04 Created by KiCad (PCBNEW 10.0.3) date 2026-07-06 19:24:51*
%MOMM*%
%LPD*%
G01*
G04 APERTURE LIST*
G04 Aperture macros list*
%AMRoundRect*
0 Rectangle with rounded corners*
0 $1 Rounding radius*
0 $2 $3 $4 $5 $6 $7 $8 $9 X,Y pos of 4 corners*
0 Add a 4 corners polygon primitive as box body*
4,1,4,$2,$3,$4,$5,$6,$7,$8,$9,$2,$3,0*
0 Add four circle primitives for the rounded corners*
1,1,$1+$1,$2,$3*
1,1,$1+$1,$4,$5*
1,1,$1+$1,$6,$7*
1,1,$1+$1,$8,$9*
0 Add four rect primitives between the rounded corners*
20,1,$1+$1,$2,$3,$4,$5,0*
20,1,$1+$1,$4,$5,$6,$7,0*
20,1,$1+$1,$6,$7,$8,$9,0*
20,1,$1+$1,$8,$9,$2,$3,0*%
G04 Aperture macros list end*
%ADD10RoundRect,0.200000X-0.200000X-0.275000X0.200000X-0.275000X0.200000X0.275000X-0.200000X0.275000X0*%
%ADD11RoundRect,0.150000X-0.587500X-0.150000X0.587500X-0.150000X0.587500X0.150000X-0.587500X0.150000X0*%
%ADD12RoundRect,0.250000X-0.325000X-0.650000X0.325000X-0.650000X0.325000X0.650000X-0.325000X0.650000X0*%
%ADD13RoundRect,0.250000X-0.312500X-0.625000X0.312500X-0.625000X0.312500X0.625000X-0.312500X0.625000X0*%
%ADD14RoundRect,0.112500X-0.187500X-0.112500X0.187500X-0.112500X0.187500X0.112500X-0.187500X0.112500X0*%
%ADD15RoundRect,0.500000X-0.500000X-3.500000X0.500000X-3.500000X0.500000X3.500000X-0.500000X3.500000X0*%
%ADD16C,1.400000*%
%ADD17RoundRect,0.250000X-0.250000X-0.475000X0.250000X-0.475000X0.250000X0.475000X-0.250000X0.475000X0*%
G04 APERTURE END LIST*
D10*
%TO.C,R7*%
X2175000Y-20840000D03*
X3825000Y-20840000D03*
%TD*%
D11*
%TO.C,Q3*%
X2062500Y-22045000D03*
X2062500Y-23945000D03*
X3937500Y-22995000D03*
%TD*%
D12*
%TO.C,CB2*%
X1525000Y-10690000D03*
X4475000Y-10690000D03*
%TD*%
D10*
%TO.C,R4*%
X7275000Y-6055000D03*
X8925000Y-6055000D03*
%TD*%
%TO.C,R8*%
X7275000Y-14200000D03*
X8925000Y-14200000D03*
%TD*%
D13*
%TO.C,R1*%
X6637500Y-8160000D03*
X9562500Y-8160000D03*
%TD*%
D11*
%TO.C,Q2*%
X2062500Y-7210000D03*
X2062500Y-9110000D03*
X3937500Y-8160000D03*
%TD*%
D14*
%TO.C,D1*%
X7050000Y-12445000D03*
X9150000Y-12445000D03*
%TD*%
D12*
%TO.C,C2*%
X6625000Y-4300000D03*
X9575000Y-4300000D03*
%TD*%
%TO.C,C1*%
X6625000Y-16730000D03*
X9575000Y-16730000D03*
%TD*%
D15*
%TO.C,J1*%
X1900000Y-30925000D03*
X9519999Y-30925000D03*
%TD*%
D16*
%TO.C,MIC1*%
X3550000Y-2000000D03*
X7550000Y-2000000D03*
%TD*%
D11*
%TO.C,Q1*%
X2062500Y-15780000D03*
X2062500Y-17680000D03*
X3937500Y-16730000D03*
%TD*%
D17*
%TO.C,C5*%
X2050000Y-19085000D03*
X3950000Y-19085000D03*
%TD*%
D10*
%TO.C,RB2*%
X7275000Y-10690000D03*
X8925000Y-10690000D03*
%TD*%
D12*
%TO.C,C4*%
X1525000Y-14200000D03*
X4475000Y-14200000D03*
%TD*%
D10*
%TO.C,R3*%
X2175000Y-6055000D03*
X3825000Y-6055000D03*
%TD*%
%TO.C,R9*%
X2175000Y-12445000D03*
X3825000Y-12445000D03*
%TD*%
D12*
%TO.C,CB3*%
X1525000Y-25525000D03*
X4475000Y-25525000D03*
%TD*%
D13*
%TO.C,R2*%
X6637500Y-22995000D03*
X9562500Y-22995000D03*
%TD*%
D10*
%TO.C,R6*%
X7275000Y-19085000D03*
X8925000Y-19085000D03*
%TD*%
%TO.C,RB3*%
X7275000Y-25525000D03*
X8925000Y-25525000D03*
%TD*%
%TO.C,R10*%
X2175000Y-4300000D03*
X3825000Y-4300000D03*
%TD*%
D12*
%TO.C,C3*%
X6625000Y-20840000D03*
X9575000Y-20840000D03*
%TD*%
M02*
