M48
; DRILL file KiCad 10.0.3 date 2026-07-06T19:24:51
; FORMAT={-:-/ absolute / metric / decimal}
; #@! TF.CreationDate,2026-07-06T19:24:51+03:00
; #@! TF.GenerationSoftware,Kicad,Pcbnew,10.0.3
; #@! TF.FileFunction,Plated,1,4,PTH
FMAT,2
METRIC
; #@! TA.AperFunction,Plated,PTH,ViaDrill
T1C0.300
; #@! TA.AperFunction,Plated,PTH,ComponentDrill
T2C0.800
%
G90
G05
T1
X1.0Y-3.5
X1.0Y-5.5
X1.0Y-19.5
X1.106Y-16.941
X2.859Y-11.761
X2.922Y-5.418
X3.112Y-15.252
X3.938Y-15.973
X4.775Y-20.84
X5.0Y-3.5
X5.0Y-5.5
X5.0Y-19.5
X5.138Y-8.16
X5.138Y-22.995
X5.675Y-14.2
X5.8Y-9.5
X5.8Y-11.5
X5.8Y-13.5
X5.8Y-19.5
X5.8Y-25.5
X6.6Y-9.5
X7.4Y-9.5
X7.581Y-24.617
X7.669Y-7.96
X7.981Y-18.397
X8.069Y-28.648
X8.2Y-9.5
X8.825Y-15.116
X9.0Y-9.5
X9.575Y-15.23
X9.8Y-9.5
X9.8Y-11.5
X9.8Y-13.5
X9.8Y-19.5
X9.8Y-25.5
X9.875Y-6.055
T2
X3.55Y-2.0
X7.55Y-2.0
M30
