%TF.GenerationSoftware,KiCad,Pcbnew,10.0.3*%
%TF.CreationDate,2026-07-05T19:37:45+03:00*%
%TF.ProjectId,p48_pip_adapter,7034385f-7069-4705-9f61-646170746572,rev?*%
%TF.SameCoordinates,Original*%
%TF.FileFunction,Copper,L1,Top*%
%TF.FilePolarity,Positive*%
%FSLAX46Y46*%
G04 Gerber Fmt 4.6, Leading zero omitted, Abs format (unit mm)*
G04 Created by KiCad (PCBNEW 10.0.3) date 2026-07-05 19:37:45*
%MOMM*%
%LPD*%
G01*
G04 APERTURE LIST*
G04 Aperture macros list*
%AMRoundRect*
0 Rectangle with rounded corners*
0 $1 Rounding radius*
0 $2 $3 $4 $5 $6 $7 $8 $9 X,Y pos of 4 corners*
0 Add a 4 corners polygon primitive as box body*
4,1,4,$2,$3,$4,$5,$6,$7,$8,$9,$2,$3,0*
0 Add four circle primitives for the rounded corners*
1,1,$1+$1,$2,$3*
1,1,$1+$1,$4,$5*
1,1,$1+$1,$6,$7*
1,1,$1+$1,$8,$9*
0 Add four rect primitives between the rounded corners*
20,1,$1+$1,$2,$3,$4,$5,0*
20,1,$1+$1,$4,$5,$6,$7,0*
20,1,$1+$1,$6,$7,$8,$9,0*
20,1,$1+$1,$8,$9,$2,$3,0*%
G04 Aperture macros list end*
%TA.AperFunction,SMDPad,CuDef*%
%ADD10RoundRect,0.200000X-0.200000X-0.275000X0.200000X-0.275000X0.200000X0.275000X-0.200000X0.275000X0*%
%TD*%
%TA.AperFunction,SMDPad,CuDef*%
%ADD11RoundRect,0.500000X-0.500000X-3.500000X0.500000X-3.500000X0.500000X3.500000X-0.500000X3.500000X0*%
%TD*%
%TA.AperFunction,SMDPad,CuDef*%
%ADD12RoundRect,0.250000X-0.250000X-0.475000X0.250000X-0.475000X0.250000X0.475000X-0.250000X0.475000X0*%
%TD*%
%TA.AperFunction,SMDPad,CuDef*%
%ADD13RoundRect,0.250000X-0.325000X-0.650000X0.325000X-0.650000X0.325000X0.650000X-0.325000X0.650000X0*%
%TD*%
%TA.AperFunction,SMDPad,CuDef*%
%ADD14RoundRect,0.112500X-0.187500X-0.112500X0.187500X-0.112500X0.187500X0.112500X-0.187500X0.112500X0*%
%TD*%
%TA.AperFunction,SMDPad,CuDef*%
%ADD15RoundRect,0.150000X-0.587500X-0.150000X0.587500X-0.150000X0.587500X0.150000X-0.587500X0.150000X0*%
%TD*%
%TA.AperFunction,ComponentPad*%
%ADD16C,1.400000*%
%TD*%
%TA.AperFunction,ViaPad*%
%ADD17C,0.600000*%
%TD*%
%TA.AperFunction,Conductor*%
%ADD18C,0.150000*%
%TD*%
G04 APERTURE END LIST*
D10*
%TO.P,R10,1*%
%TO.N,VPIP*%
X2175000Y-4300000D03*
%TO.P,R10,2*%
%TO.N,MICOUT*%
X3825000Y-4300000D03*
%TD*%
D11*
%TO.P,J1,1*%
%TO.N,GND*%
X1900000Y-28015000D03*
%TO.P,J1,2*%
%TO.N,P2*%
X9519999Y-28015000D03*
%TD*%
D10*
%TO.P,R1,1*%
%TO.N,P2*%
X7275000Y-8160000D03*
%TO.P,R1,2*%
%TO.N,Q2E*%
X8925000Y-8160000D03*
%TD*%
D12*
%TO.P,C5,1*%
%TO.N,VPIP*%
X2050000Y-16904999D03*
%TO.P,C5,2*%
%TO.N,GND*%
X3950000Y-16904999D03*
%TD*%
D10*
%TO.P,R3,1*%
%TO.N,VPIP*%
X2175000Y-6055000D03*
%TO.P,R3,2*%
%TO.N,Q2B*%
X3825000Y-6055000D03*
%TD*%
%TO.P,R4,1*%
%TO.N,Q2B*%
X7275000Y-6055000D03*
%TO.P,R4,2*%
%TO.N,GND*%
X8925000Y-6055000D03*
%TD*%
D13*
%TO.P,C1,1*%
%TO.N,VPIP*%
X6625000Y-14549999D03*
%TO.P,C1,2*%
%TO.N,GND*%
X9575000Y-14549999D03*
%TD*%
%TO.P,C2,1*%
%TO.N,MICOUT*%
X6625000Y-4300000D03*
%TO.P,C2,2*%
%TO.N,Q2B*%
X9575000Y-4300000D03*
%TD*%
D10*
%TO.P,R2,1*%
%TO.N,P3*%
X7275000Y-20764999D03*
%TO.P,R2,2*%
%TO.N,Q3E*%
X8925000Y-20764999D03*
%TD*%
D13*
%TO.P,C3,1*%
%TO.N,Q3B*%
X6625000Y-18659999D03*
%TO.P,C3,2*%
%TO.N,GND*%
X9575000Y-18659999D03*
%TD*%
D14*
%TO.P,D1,1*%
%TO.N,VREF*%
X7050000Y-10265000D03*
%TO.P,D1,2*%
%TO.N,GND*%
X9150000Y-10265000D03*
%TD*%
D10*
%TO.P,R8,1*%
%TO.N,VREF*%
X7275000Y-12020000D03*
%TO.P,R8,2*%
%TO.N,Q1B*%
X8925000Y-12020000D03*
%TD*%
D13*
%TO.P,C4,1*%
%TO.N,VREF*%
X1525000Y-12020000D03*
%TO.P,C4,2*%
%TO.N,GND*%
X4475000Y-12020000D03*
%TD*%
D10*
%TO.P,R6,1*%
%TO.N,VPIP*%
X7275000Y-16904999D03*
%TO.P,R6,2*%
%TO.N,Q3B*%
X8925000Y-16904999D03*
%TD*%
D15*
%TO.P,Q2,1*%
%TO.N,Q2B*%
X2062500Y-7210000D03*
%TO.P,Q2,2*%
%TO.N,Q2E*%
X2062500Y-9110000D03*
%TO.P,Q2,3*%
%TO.N,GND*%
X3937500Y-8160000D03*
%TD*%
D10*
%TO.P,R9,1*%
%TO.N,P3*%
X2175000Y-10265000D03*
%TO.P,R9,2*%
%TO.N,VREF*%
X3825000Y-10265000D03*
%TD*%
D16*
%TO.P,MIC1,1*%
%TO.N,MICOUT*%
X3550000Y-2000000D03*
%TO.P,MIC1,2*%
%TO.N,GND*%
X7550000Y-2000000D03*
%TD*%
D15*
%TO.P,Q1,1*%
%TO.N,Q1B*%
X2062500Y-13599999D03*
%TO.P,Q1,2*%
%TO.N,VPIP*%
X2062500Y-15499999D03*
%TO.P,Q1,3*%
%TO.N,P3*%
X3937500Y-14549999D03*
%TD*%
%TO.P,Q3,1*%
%TO.N,Q3B*%
X2062500Y-19814999D03*
%TO.P,Q3,2*%
%TO.N,Q3E*%
X2062500Y-21714999D03*
%TO.P,Q3,3*%
%TO.N,GND*%
X3937500Y-20764999D03*
%TD*%
D10*
%TO.P,R7,1*%
%TO.N,Q3B*%
X2175000Y-18659999D03*
%TO.P,R7,2*%
%TO.N,GND*%
X3825000Y-18659999D03*
%TD*%
D17*
%TO.N,P2*%
X7593600Y-9068600D03*
X8091200Y-26586200D03*
%TO.N,P3*%
X3317800Y-15298900D03*
X6331900Y-19988200D03*
X1337900Y-10264800D03*
%TD*%
%TO.N,VPIP*%
D18*
X1973500Y-6055000D02*
X2175000Y-6055000D01*
X3155900Y-14035700D02*
X6110700Y-14035700D01*
X6625000Y-14550000D02*
X7275000Y-15200000D01*
X714900Y-7313600D02*
X1973500Y-6055000D01*
X2199200Y-14992400D02*
X714900Y-13508200D01*
X2175000Y-6055000D02*
X2175000Y-4300000D01*
X714900Y-13508200D02*
X714900Y-7313600D01*
X2062500Y-15129100D02*
X2199200Y-14992400D01*
X6110700Y-14035700D02*
X6625000Y-14550000D01*
X2062500Y-15500000D02*
X2050000Y-15512500D01*
X2199200Y-14992400D02*
X3155900Y-14035700D01*
X2050000Y-15512500D02*
X2050000Y-16905000D01*
X7275000Y-15200000D02*
X7275000Y-16905000D01*
X2062500Y-15500000D02*
X2062500Y-15129100D01*
%TO.N,MICOUT*%
X3550000Y-2000000D02*
X3825000Y-2275000D01*
X6625000Y-4300000D02*
X3825000Y-4300000D01*
X3825000Y-2275000D02*
X3825000Y-4300000D01*
%TO.N,GND*%
X1107900Y-21412200D02*
X1755100Y-20765000D01*
X4641100Y-21468600D02*
X3937500Y-20765000D01*
X9575900Y-9839100D02*
X9575900Y-6162400D01*
X5463800Y-9831000D02*
X8716000Y-9831000D01*
X9468500Y-6055000D02*
X8925000Y-6055000D01*
X10355400Y-3433900D02*
X10355400Y-5168100D01*
X7550000Y-2000000D02*
X8921500Y-2000000D01*
X10355400Y-5168100D02*
X9468500Y-6055000D01*
X9575000Y-18660000D02*
X8100000Y-20135000D01*
X8921500Y-2000000D02*
X10355400Y-3433900D01*
X3937500Y-20765000D02*
X3937500Y-18772500D01*
X5463800Y-9686300D02*
X3937500Y-8160000D01*
X8100000Y-21046400D02*
X7677800Y-21468600D01*
X5463800Y-11031200D02*
X5463800Y-9831000D01*
X1107900Y-27222900D02*
X1107900Y-21412200D01*
X9575000Y-18660000D02*
X9575000Y-14550000D01*
X3825000Y-17030000D02*
X3825000Y-18660000D01*
X9575900Y-6162400D02*
X9468500Y-6055000D01*
X3937500Y-18772500D02*
X3825000Y-18660000D01*
X8716000Y-9831000D02*
X9150000Y-10265000D01*
X1900000Y-28015000D02*
X1107900Y-27222900D01*
X5463800Y-9831000D02*
X5463800Y-9686300D01*
X9575000Y-10690000D02*
X9575000Y-14550000D01*
X8100000Y-20135000D02*
X8100000Y-21046400D01*
X7677800Y-21468600D02*
X4641100Y-21468600D01*
X9150000Y-10265000D02*
X9575000Y-10690000D01*
X4475000Y-12020000D02*
X5463800Y-11031200D01*
X1755100Y-20765000D02*
X3937500Y-20765000D01*
X3950000Y-16905000D02*
X3825000Y-17030000D01*
X9150000Y-10265000D02*
X9575900Y-9839100D01*
%TO.N,P2*%
X7275000Y-8750000D02*
X7275000Y-8160000D01*
X9520000Y-28015000D02*
X8091200Y-26586200D01*
X7593600Y-9068600D02*
X7275000Y-8750000D01*
%TO.N,P3*%
X1337900Y-10264800D02*
X2174800Y-10264800D01*
X7108700Y-20765000D02*
X7275000Y-20765000D01*
X3317800Y-15169700D02*
X3317800Y-15298900D01*
X6331900Y-19988200D02*
X7108700Y-20765000D01*
X2174800Y-10264800D02*
X2175000Y-10265000D01*
X3937500Y-14550000D02*
X3317800Y-15169700D01*
%TO.N,Q2E*%
X2062500Y-8771400D02*
X2062500Y-9110000D01*
X3411100Y-7422800D02*
X2062500Y-8771400D01*
X8925000Y-8160000D02*
X8187800Y-7422800D01*
X8187800Y-7422800D02*
X3411100Y-7422800D01*
%TO.N,Q2B*%
X2062500Y-7210000D02*
X2670000Y-7210000D01*
X9030000Y-4300000D02*
X7275000Y-6055000D01*
X9575000Y-4300000D02*
X9030000Y-4300000D01*
X7275000Y-6055000D02*
X3825000Y-6055000D01*
X2670000Y-7210000D02*
X3825000Y-6055000D01*
%TO.N,Q3E*%
X7885900Y-21804100D02*
X2151600Y-21804100D01*
X8925000Y-20765000D02*
X7885900Y-21804100D01*
X2151600Y-21804100D02*
X2062500Y-21715000D01*
%TO.N,Q3B*%
X2062500Y-19815000D02*
X2175000Y-19702500D01*
X4457100Y-15977300D02*
X6625000Y-18145200D01*
X6625000Y-18660000D02*
X7170000Y-18660000D01*
X3085900Y-17749100D02*
X3085900Y-16335000D01*
X7170000Y-18660000D02*
X8925000Y-16905000D01*
X2175000Y-18660000D02*
X3085900Y-17749100D01*
X6625000Y-18145200D02*
X6625000Y-18660000D01*
X3085900Y-16335000D02*
X3443600Y-15977300D01*
X2175000Y-19702500D02*
X2175000Y-18660000D01*
X3443600Y-15977300D02*
X4457100Y-15977300D01*
%TO.N,VREF*%
X3629000Y-12793400D02*
X3629000Y-10461000D01*
X3629000Y-10461000D02*
X3825000Y-10265000D01*
X3990100Y-13154500D02*
X3629000Y-12793400D01*
X7050000Y-11795000D02*
X5690500Y-13154500D01*
X1525000Y-12020000D02*
X3280000Y-10265000D01*
X7050000Y-10265000D02*
X7050000Y-11795000D01*
X7050000Y-11795000D02*
X7275000Y-12020000D01*
X5690500Y-13154500D02*
X3990100Y-13154500D01*
X3280000Y-10265000D02*
X3825000Y-10265000D01*
%TO.N,Q1B*%
X8009100Y-12935900D02*
X6623800Y-12935900D01*
X8925000Y-12020000D02*
X8009100Y-12935900D01*
X5959700Y-13600000D02*
X2062500Y-13600000D01*
X6623800Y-12935900D02*
X5959700Y-13600000D01*
%TD*%
M02*
