%TF.GenerationSoftware,KiCad,Pcbnew,10.0.3*%
%TF.CreationDate,2026-07-05T19:37:45+03:00*%
%TF.ProjectId,p48_pip_adapter,7034385f-7069-4705-9f61-646170746572,rev?*%
%TF.SameCoordinates,Original*%
%TF.FileFunction,Legend,Top*%
%TF.FilePolarity,Positive*%
%FSLAX46Y46*%
G04 Gerber Fmt 4.6, Leading zero omitted, Abs format (unit mm)*
G04 Created by KiCad (PCBNEW 10.0.3) date 2026-07-05 19:37:45*
%MOMM*%
%LPD*%
G01*
G04 APERTURE LIST*
G04 Aperture macros list*
%AMRoundRect*
0 Rectangle with rounded corners*
0 $1 Rounding radius*
0 $2 $3 $4 $5 $6 $7 $8 $9 X,Y pos of 4 corners*
0 Add a 4 corners polygon primitive as box body*
4,1,4,$2,$3,$4,$5,$6,$7,$8,$9,$2,$3,0*
0 Add four circle primitives for the rounded corners*
1,1,$1+$1,$2,$3*
1,1,$1+$1,$4,$5*
1,1,$1+$1,$6,$7*
1,1,$1+$1,$8,$9*
0 Add four rect primitives between the rounded corners*
20,1,$1+$1,$2,$3,$4,$5,0*
20,1,$1+$1,$4,$5,$6,$7,0*
20,1,$1+$1,$6,$7,$8,$9,0*
20,1,$1+$1,$8,$9,$2,$3,0*%
G04 Aperture macros list end*
%ADD10C,0.120000*%
%ADD11RoundRect,0.200000X-0.200000X-0.275000X0.200000X-0.275000X0.200000X0.275000X-0.200000X0.275000X0*%
%ADD12RoundRect,0.500000X-0.500000X-3.500000X0.500000X-3.500000X0.500000X3.500000X-0.500000X3.500000X0*%
%ADD13RoundRect,0.250000X-0.250000X-0.475000X0.250000X-0.475000X0.250000X0.475000X-0.250000X0.475000X0*%
%ADD14RoundRect,0.250000X-0.325000X-0.650000X0.325000X-0.650000X0.325000X0.650000X-0.325000X0.650000X0*%
%ADD15RoundRect,0.112500X-0.187500X-0.112500X0.187500X-0.112500X0.187500X0.112500X-0.187500X0.112500X0*%
%ADD16RoundRect,0.150000X-0.587500X-0.150000X0.587500X-0.150000X0.587500X0.150000X-0.587500X0.150000X0*%
%ADD17C,1.400000*%
G04 APERTURE END LIST*
%TO.C,R10*%
D10*
X2762742Y-3777500D02*
X3237258Y-3777500D01*
X2762742Y-4822500D02*
X3237258Y-4822500D01*
%TO.C,R1*%
X7862742Y-7637500D02*
X8337258Y-7637500D01*
X7862742Y-8682500D02*
X8337258Y-8682500D01*
%TO.C,C5*%
X2738748Y-16169999D02*
X3261252Y-16169999D01*
X2738748Y-17639999D02*
X3261252Y-17639999D01*
%TO.C,R3*%
X2762742Y-5532500D02*
X3237258Y-5532500D01*
X2762742Y-6577500D02*
X3237258Y-6577500D01*
%TO.C,R4*%
X7862742Y-5532500D02*
X8337258Y-5532500D01*
X7862742Y-6577500D02*
X8337258Y-6577500D01*
%TO.C,C1*%
X7388748Y-13639999D02*
X8811252Y-13639999D01*
X7388748Y-15459999D02*
X8811252Y-15459999D01*
%TO.C,C2*%
X7388748Y-3390000D02*
X8811252Y-3390000D01*
X7388748Y-5210000D02*
X8811252Y-5210000D01*
%TO.C,R2*%
X7862742Y-20242499D02*
X8337258Y-20242499D01*
X7862742Y-21287499D02*
X8337258Y-21287499D01*
%TO.C,C3*%
X7388748Y-17749999D02*
X8811252Y-17749999D01*
X7388748Y-19569999D02*
X8811252Y-19569999D01*
%TO.C,D1*%
X6490000Y-9415000D02*
X6490000Y-11115000D01*
X6490000Y-9415000D02*
X9150000Y-9415000D01*
X6490000Y-11115000D02*
X9150000Y-11115000D01*
%TO.C,R8*%
X7862742Y-11497500D02*
X8337258Y-11497500D01*
X7862742Y-12542500D02*
X8337258Y-12542500D01*
%TO.C,C4*%
X2288748Y-11110000D02*
X3711252Y-11110000D01*
X2288748Y-12930000D02*
X3711252Y-12930000D01*
%TO.C,R6*%
X7862742Y-16382499D02*
X8337258Y-16382499D01*
X7862742Y-17427499D02*
X8337258Y-17427499D01*
%TO.C,Q2*%
X2240000Y-6600000D02*
X3760000Y-6600000D01*
X2240000Y-6650000D02*
X2240000Y-6600000D01*
X2240000Y-8550000D02*
X2240000Y-7770000D01*
X2240000Y-9720000D02*
X2240000Y-9670000D01*
X3760000Y-6600000D02*
X3760000Y-7600000D01*
X3760000Y-8720000D02*
X3760000Y-9720000D01*
X3760000Y-9720000D02*
X2240000Y-9720000D01*
X1700000Y-7780000D02*
X1940000Y-8110000D01*
X1460000Y-8110000D01*
X1700000Y-7780000D01*
G36*
X1940000Y-8110000D02*
G01*
X1460000Y-8110000D01*
X1700000Y-7780000D01*
X1940000Y-8110000D01*
G37*
%TO.C,R9*%
X2762742Y-9742500D02*
X3237258Y-9742500D01*
X2762742Y-10787500D02*
X3237258Y-10787500D01*
%TO.C,Q1*%
X2240000Y-12989999D02*
X3760000Y-12989999D01*
X2240000Y-13039999D02*
X2240000Y-12989999D01*
X2240000Y-14939999D02*
X2240000Y-14159999D01*
X2240000Y-16109999D02*
X2240000Y-16059999D01*
X3760000Y-12989999D02*
X3760000Y-13989999D01*
X3760000Y-15109999D02*
X3760000Y-16109999D01*
X3760000Y-16109999D02*
X2240000Y-16109999D01*
X1700000Y-14169999D02*
X1940000Y-14499999D01*
X1460000Y-14499999D01*
X1700000Y-14169999D01*
G36*
X1940000Y-14499999D02*
G01*
X1460000Y-14499999D01*
X1700000Y-14169999D01*
X1940000Y-14499999D01*
G37*
%TO.C,Q3*%
X2240000Y-19204999D02*
X3760000Y-19204999D01*
X2240000Y-19254999D02*
X2240000Y-19204999D01*
X2240000Y-21154999D02*
X2240000Y-20374999D01*
X2240000Y-22324999D02*
X2240000Y-22274999D01*
X3760000Y-19204999D02*
X3760000Y-20204999D01*
X3760000Y-21324999D02*
X3760000Y-22324999D01*
X3760000Y-22324999D02*
X2240000Y-22324999D01*
X1700000Y-20384999D02*
X1940000Y-20714999D01*
X1460000Y-20714999D01*
X1700000Y-20384999D01*
G36*
X1940000Y-20714999D02*
G01*
X1460000Y-20714999D01*
X1700000Y-20384999D01*
X1940000Y-20714999D01*
G37*
%TO.C,R7*%
X2762742Y-18137499D02*
X3237258Y-18137499D01*
X2762742Y-19182499D02*
X3237258Y-19182499D01*
%TD*%
%LPC*%
D11*
%TO.C,R10*%
X2175000Y-4300000D03*
X3825000Y-4300000D03*
%TD*%
D12*
%TO.C,J1*%
X1900000Y-28015000D03*
X9519999Y-28015000D03*
%TD*%
D11*
%TO.C,R1*%
X7275000Y-8160000D03*
X8925000Y-8160000D03*
%TD*%
D13*
%TO.C,C5*%
X2050000Y-16904999D03*
X3950000Y-16904999D03*
%TD*%
D11*
%TO.C,R3*%
X2175000Y-6055000D03*
X3825000Y-6055000D03*
%TD*%
%TO.C,R4*%
X7275000Y-6055000D03*
X8925000Y-6055000D03*
%TD*%
D14*
%TO.C,C1*%
X6625000Y-14549999D03*
X9575000Y-14549999D03*
%TD*%
%TO.C,C2*%
X6625000Y-4300000D03*
X9575000Y-4300000D03*
%TD*%
D11*
%TO.C,R2*%
X7275000Y-20764999D03*
X8925000Y-20764999D03*
%TD*%
D14*
%TO.C,C3*%
X6625000Y-18659999D03*
X9575000Y-18659999D03*
%TD*%
D15*
%TO.C,D1*%
X7050000Y-10265000D03*
X9150000Y-10265000D03*
%TD*%
D11*
%TO.C,R8*%
X7275000Y-12020000D03*
X8925000Y-12020000D03*
%TD*%
D14*
%TO.C,C4*%
X1525000Y-12020000D03*
X4475000Y-12020000D03*
%TD*%
D11*
%TO.C,R6*%
X7275000Y-16904999D03*
X8925000Y-16904999D03*
%TD*%
D16*
%TO.C,Q2*%
X2062500Y-7210000D03*
X2062500Y-9110000D03*
X3937500Y-8160000D03*
%TD*%
D11*
%TO.C,R9*%
X2175000Y-10265000D03*
X3825000Y-10265000D03*
%TD*%
D17*
%TO.C,MIC1*%
X3550000Y-2000000D03*
X7550000Y-2000000D03*
%TD*%
D16*
%TO.C,Q1*%
X2062500Y-13599999D03*
X2062500Y-15499999D03*
X3937500Y-14549999D03*
%TD*%
%TO.C,Q3*%
X2062500Y-19814999D03*
X2062500Y-21714999D03*
X3937500Y-20764999D03*
%TD*%
D11*
%TO.C,R7*%
X2175000Y-18659999D03*
X3825000Y-18659999D03*
%TD*%
%LPD*%
M02*
