%TF.GenerationSoftware,KiCad,Pcbnew,10.0.3*%
%TF.CreationDate,2026-07-05T19:37:45+03:00*%
%TF.ProjectId,p48_pip_adapter,7034385f-7069-4705-9f61-646170746572,rev?*%
%TF.SameCoordinates,Original*%
%TF.FileFunction,Drillmap*%
%TF.FilePolarity,Positive*%
%FSLAX45Y45*%
G04 Gerber Fmt 4.5, Leading zero omitted, Abs format (unit mm)*
G04 Created by KiCad (PCBNEW 10.0.3) date 2026-07-05 19:37:45*
%MOMM*%
%LPD*%
G01*
G04 APERTURE LIST*
%ADD10C,0.100000*%
%ADD11C,0.200000*%
G04 APERTURE END LIST*
D10*
X0Y0D02*
X1110000Y0D01*
X0Y-3241500D02*
X0Y0D01*
X1110000Y0D02*
X1110000Y-3241500D01*
X1110000Y-3241500D02*
X0Y-3241500D01*
D11*
D10*
X118790Y-1011480D02*
X148790Y-1041480D01*
X148790Y-1011480D02*
X118790Y-1041480D01*
X316780Y-1514890D02*
X346780Y-1544890D01*
X346780Y-1514890D02*
X316780Y-1544890D01*
X618190Y-1983820D02*
X648190Y-2013820D01*
X648190Y-1983820D02*
X618190Y-2013820D01*
X744360Y-891860D02*
X774360Y-921860D01*
X774360Y-891860D02*
X744360Y-921860D01*
X794120Y-2643620D02*
X824120Y-2673620D01*
X824120Y-2643620D02*
X794120Y-2673620D01*
X395000Y-200000D02*
G75*
G02*
X315000Y-200000I-40000J0D01*
G01*
X315000Y-200000D02*
G75*
G02*
X395000Y-200000I40000J0D01*
G01*
X795000Y-200000D02*
G75*
G02*
X715000Y-200000I-40000J0D01*
G01*
X715000Y-200000D02*
G75*
G02*
X795000Y-200000I40000J0D01*
G01*
D11*
X255777Y-3557984D02*
X255777Y-3357984D01*
X255777Y-3357984D02*
X303396Y-3357984D01*
X303396Y-3357984D02*
X331967Y-3367508D01*
X331967Y-3367508D02*
X351015Y-3386555D01*
X351015Y-3386555D02*
X360539Y-3405603D01*
X360539Y-3405603D02*
X370062Y-3443698D01*
X370062Y-3443698D02*
X370062Y-3472269D01*
X370062Y-3472269D02*
X360539Y-3510365D01*
X360539Y-3510365D02*
X351015Y-3529412D01*
X351015Y-3529412D02*
X331967Y-3548460D01*
X331967Y-3548460D02*
X303396Y-3557984D01*
X303396Y-3557984D02*
X255777Y-3557984D01*
X455777Y-3557984D02*
X455777Y-3424650D01*
X455777Y-3462746D02*
X465301Y-3443698D01*
X465301Y-3443698D02*
X474824Y-3434174D01*
X474824Y-3434174D02*
X493872Y-3424650D01*
X493872Y-3424650D02*
X512920Y-3424650D01*
X579586Y-3557984D02*
X579586Y-3424650D01*
X579586Y-3357984D02*
X570063Y-3367508D01*
X570063Y-3367508D02*
X579586Y-3377031D01*
X579586Y-3377031D02*
X589110Y-3367508D01*
X589110Y-3367508D02*
X579586Y-3357984D01*
X579586Y-3357984D02*
X579586Y-3377031D01*
X703396Y-3557984D02*
X684348Y-3548460D01*
X684348Y-3548460D02*
X674824Y-3529412D01*
X674824Y-3529412D02*
X674824Y-3357984D01*
X808158Y-3557984D02*
X789110Y-3548460D01*
X789110Y-3548460D02*
X779586Y-3529412D01*
X779586Y-3529412D02*
X779586Y-3357984D01*
X1036729Y-3557984D02*
X1036729Y-3357984D01*
X1036729Y-3357984D02*
X1103396Y-3500841D01*
X1103396Y-3500841D02*
X1170063Y-3357984D01*
X1170063Y-3357984D02*
X1170063Y-3557984D01*
X1351015Y-3557984D02*
X1351015Y-3453222D01*
X1351015Y-3453222D02*
X1341491Y-3434174D01*
X1341491Y-3434174D02*
X1322444Y-3424650D01*
X1322444Y-3424650D02*
X1284348Y-3424650D01*
X1284348Y-3424650D02*
X1265301Y-3434174D01*
X1351015Y-3548460D02*
X1331967Y-3557984D01*
X1331967Y-3557984D02*
X1284348Y-3557984D01*
X1284348Y-3557984D02*
X1265301Y-3548460D01*
X1265301Y-3548460D02*
X1255777Y-3529412D01*
X1255777Y-3529412D02*
X1255777Y-3510365D01*
X1255777Y-3510365D02*
X1265301Y-3491317D01*
X1265301Y-3491317D02*
X1284348Y-3481793D01*
X1284348Y-3481793D02*
X1331967Y-3481793D01*
X1331967Y-3481793D02*
X1351015Y-3472269D01*
X1446253Y-3424650D02*
X1446253Y-3624650D01*
X1446253Y-3434174D02*
X1465301Y-3424650D01*
X1465301Y-3424650D02*
X1503396Y-3424650D01*
X1503396Y-3424650D02*
X1522443Y-3434174D01*
X1522443Y-3434174D02*
X1531967Y-3443698D01*
X1531967Y-3443698D02*
X1541491Y-3462746D01*
X1541491Y-3462746D02*
X1541491Y-3519888D01*
X1541491Y-3519888D02*
X1531967Y-3538936D01*
X1531967Y-3538936D02*
X1522443Y-3548460D01*
X1522443Y-3548460D02*
X1503396Y-3557984D01*
X1503396Y-3557984D02*
X1465301Y-3557984D01*
X1465301Y-3557984D02*
X1446253Y-3548460D01*
X1627205Y-3538936D02*
X1636729Y-3548460D01*
X1636729Y-3548460D02*
X1627205Y-3557984D01*
X1627205Y-3557984D02*
X1617682Y-3548460D01*
X1617682Y-3548460D02*
X1627205Y-3538936D01*
X1627205Y-3538936D02*
X1627205Y-3557984D01*
X1627205Y-3434174D02*
X1636729Y-3443698D01*
X1636729Y-3443698D02*
X1627205Y-3453222D01*
X1627205Y-3453222D02*
X1617682Y-3443698D01*
X1617682Y-3443698D02*
X1627205Y-3434174D01*
X1627205Y-3434174D02*
X1627205Y-3453222D01*
D10*
X-35000Y-3871500D02*
X-5000Y-3901500D01*
X-5000Y-3871500D02*
X-35000Y-3901500D01*
D11*
X293872Y-3777984D02*
X312920Y-3777984D01*
X312920Y-3777984D02*
X331967Y-3787508D01*
X331967Y-3787508D02*
X341491Y-3797031D01*
X341491Y-3797031D02*
X351015Y-3816079D01*
X351015Y-3816079D02*
X360539Y-3854174D01*
X360539Y-3854174D02*
X360539Y-3901793D01*
X360539Y-3901793D02*
X351015Y-3939888D01*
X351015Y-3939888D02*
X341491Y-3958936D01*
X341491Y-3958936D02*
X331967Y-3968460D01*
X331967Y-3968460D02*
X312920Y-3977984D01*
X312920Y-3977984D02*
X293872Y-3977984D01*
X293872Y-3977984D02*
X274824Y-3968460D01*
X274824Y-3968460D02*
X265301Y-3958936D01*
X265301Y-3958936D02*
X255777Y-3939888D01*
X255777Y-3939888D02*
X246253Y-3901793D01*
X246253Y-3901793D02*
X246253Y-3854174D01*
X246253Y-3854174D02*
X255777Y-3816079D01*
X255777Y-3816079D02*
X265301Y-3797031D01*
X265301Y-3797031D02*
X274824Y-3787508D01*
X274824Y-3787508D02*
X293872Y-3777984D01*
X455777Y-3968460D02*
X455777Y-3977984D01*
X455777Y-3977984D02*
X446253Y-3997031D01*
X446253Y-3997031D02*
X436729Y-4006555D01*
X522443Y-3777984D02*
X646253Y-3777984D01*
X646253Y-3777984D02*
X579586Y-3854174D01*
X579586Y-3854174D02*
X608158Y-3854174D01*
X608158Y-3854174D02*
X627205Y-3863698D01*
X627205Y-3863698D02*
X636729Y-3873222D01*
X636729Y-3873222D02*
X646253Y-3892269D01*
X646253Y-3892269D02*
X646253Y-3939888D01*
X646253Y-3939888D02*
X636729Y-3958936D01*
X636729Y-3958936D02*
X627205Y-3968460D01*
X627205Y-3968460D02*
X608158Y-3977984D01*
X608158Y-3977984D02*
X551015Y-3977984D01*
X551015Y-3977984D02*
X531967Y-3968460D01*
X531967Y-3968460D02*
X522443Y-3958936D01*
X770062Y-3777984D02*
X789110Y-3777984D01*
X789110Y-3777984D02*
X808158Y-3787508D01*
X808158Y-3787508D02*
X817682Y-3797031D01*
X817682Y-3797031D02*
X827205Y-3816079D01*
X827205Y-3816079D02*
X836729Y-3854174D01*
X836729Y-3854174D02*
X836729Y-3901793D01*
X836729Y-3901793D02*
X827205Y-3939888D01*
X827205Y-3939888D02*
X817682Y-3958936D01*
X817682Y-3958936D02*
X808158Y-3968460D01*
X808158Y-3968460D02*
X789110Y-3977984D01*
X789110Y-3977984D02*
X770062Y-3977984D01*
X770062Y-3977984D02*
X751015Y-3968460D01*
X751015Y-3968460D02*
X741491Y-3958936D01*
X741491Y-3958936D02*
X731967Y-3939888D01*
X731967Y-3939888D02*
X722443Y-3901793D01*
X722443Y-3901793D02*
X722443Y-3854174D01*
X722443Y-3854174D02*
X731967Y-3816079D01*
X731967Y-3816079D02*
X741491Y-3797031D01*
X741491Y-3797031D02*
X751015Y-3787508D01*
X751015Y-3787508D02*
X770062Y-3777984D01*
X960539Y-3777984D02*
X979586Y-3777984D01*
X979586Y-3777984D02*
X998634Y-3787508D01*
X998634Y-3787508D02*
X1008158Y-3797031D01*
X1008158Y-3797031D02*
X1017682Y-3816079D01*
X1017682Y-3816079D02*
X1027205Y-3854174D01*
X1027205Y-3854174D02*
X1027205Y-3901793D01*
X1027205Y-3901793D02*
X1017682Y-3939888D01*
X1017682Y-3939888D02*
X1008158Y-3958936D01*
X1008158Y-3958936D02*
X998634Y-3968460D01*
X998634Y-3968460D02*
X979586Y-3977984D01*
X979586Y-3977984D02*
X960539Y-3977984D01*
X960539Y-3977984D02*
X941491Y-3968460D01*
X941491Y-3968460D02*
X931967Y-3958936D01*
X931967Y-3958936D02*
X922443Y-3939888D01*
X922443Y-3939888D02*
X912920Y-3901793D01*
X912920Y-3901793D02*
X912920Y-3854174D01*
X912920Y-3854174D02*
X922443Y-3816079D01*
X922443Y-3816079D02*
X931967Y-3797031D01*
X931967Y-3797031D02*
X941491Y-3787508D01*
X941491Y-3787508D02*
X960539Y-3777984D01*
X1112920Y-3977984D02*
X1112920Y-3844650D01*
X1112920Y-3863698D02*
X1122444Y-3854174D01*
X1122444Y-3854174D02*
X1141491Y-3844650D01*
X1141491Y-3844650D02*
X1170063Y-3844650D01*
X1170063Y-3844650D02*
X1189110Y-3854174D01*
X1189110Y-3854174D02*
X1198634Y-3873222D01*
X1198634Y-3873222D02*
X1198634Y-3977984D01*
X1198634Y-3873222D02*
X1208158Y-3854174D01*
X1208158Y-3854174D02*
X1227205Y-3844650D01*
X1227205Y-3844650D02*
X1255777Y-3844650D01*
X1255777Y-3844650D02*
X1274825Y-3854174D01*
X1274825Y-3854174D02*
X1284348Y-3873222D01*
X1284348Y-3873222D02*
X1284348Y-3977984D01*
X1379586Y-3977984D02*
X1379586Y-3844650D01*
X1379586Y-3863698D02*
X1389110Y-3854174D01*
X1389110Y-3854174D02*
X1408158Y-3844650D01*
X1408158Y-3844650D02*
X1436729Y-3844650D01*
X1436729Y-3844650D02*
X1455777Y-3854174D01*
X1455777Y-3854174D02*
X1465301Y-3873222D01*
X1465301Y-3873222D02*
X1465301Y-3977984D01*
X1465301Y-3873222D02*
X1474824Y-3854174D01*
X1474824Y-3854174D02*
X1493872Y-3844650D01*
X1493872Y-3844650D02*
X1522443Y-3844650D01*
X1522443Y-3844650D02*
X1541491Y-3854174D01*
X1541491Y-3854174D02*
X1551015Y-3873222D01*
X1551015Y-3873222D02*
X1551015Y-3977984D01*
X1941491Y-3768460D02*
X1770063Y-4025603D01*
X2198634Y-3777984D02*
X2217682Y-3777984D01*
X2217682Y-3777984D02*
X2236729Y-3787508D01*
X2236729Y-3787508D02*
X2246253Y-3797031D01*
X2246253Y-3797031D02*
X2255777Y-3816079D01*
X2255777Y-3816079D02*
X2265301Y-3854174D01*
X2265301Y-3854174D02*
X2265301Y-3901793D01*
X2265301Y-3901793D02*
X2255777Y-3939888D01*
X2255777Y-3939888D02*
X2246253Y-3958936D01*
X2246253Y-3958936D02*
X2236729Y-3968460D01*
X2236729Y-3968460D02*
X2217682Y-3977984D01*
X2217682Y-3977984D02*
X2198634Y-3977984D01*
X2198634Y-3977984D02*
X2179587Y-3968460D01*
X2179587Y-3968460D02*
X2170063Y-3958936D01*
X2170063Y-3958936D02*
X2160539Y-3939888D01*
X2160539Y-3939888D02*
X2151015Y-3901793D01*
X2151015Y-3901793D02*
X2151015Y-3854174D01*
X2151015Y-3854174D02*
X2160539Y-3816079D01*
X2160539Y-3816079D02*
X2170063Y-3797031D01*
X2170063Y-3797031D02*
X2179587Y-3787508D01*
X2179587Y-3787508D02*
X2198634Y-3777984D01*
X2360539Y-3968460D02*
X2360539Y-3977984D01*
X2360539Y-3977984D02*
X2351015Y-3997031D01*
X2351015Y-3997031D02*
X2341491Y-4006555D01*
X2484348Y-3777984D02*
X2503396Y-3777984D01*
X2503396Y-3777984D02*
X2522444Y-3787508D01*
X2522444Y-3787508D02*
X2531968Y-3797031D01*
X2531968Y-3797031D02*
X2541491Y-3816079D01*
X2541491Y-3816079D02*
X2551015Y-3854174D01*
X2551015Y-3854174D02*
X2551015Y-3901793D01*
X2551015Y-3901793D02*
X2541491Y-3939888D01*
X2541491Y-3939888D02*
X2531968Y-3958936D01*
X2531968Y-3958936D02*
X2522444Y-3968460D01*
X2522444Y-3968460D02*
X2503396Y-3977984D01*
X2503396Y-3977984D02*
X2484348Y-3977984D01*
X2484348Y-3977984D02*
X2465301Y-3968460D01*
X2465301Y-3968460D02*
X2455777Y-3958936D01*
X2455777Y-3958936D02*
X2446253Y-3939888D01*
X2446253Y-3939888D02*
X2436729Y-3901793D01*
X2436729Y-3901793D02*
X2436729Y-3854174D01*
X2436729Y-3854174D02*
X2446253Y-3816079D01*
X2446253Y-3816079D02*
X2455777Y-3797031D01*
X2455777Y-3797031D02*
X2465301Y-3787508D01*
X2465301Y-3787508D02*
X2484348Y-3777984D01*
X2741491Y-3977984D02*
X2627206Y-3977984D01*
X2684348Y-3977984D02*
X2684348Y-3777984D01*
X2684348Y-3777984D02*
X2665301Y-3806555D01*
X2665301Y-3806555D02*
X2646253Y-3825603D01*
X2646253Y-3825603D02*
X2627206Y-3835127D01*
X2931967Y-3977984D02*
X2817682Y-3977984D01*
X2874825Y-3977984D02*
X2874825Y-3777984D01*
X2874825Y-3777984D02*
X2855777Y-3806555D01*
X2855777Y-3806555D02*
X2836729Y-3825603D01*
X2836729Y-3825603D02*
X2817682Y-3835127D01*
X3046253Y-3863698D02*
X3027206Y-3854174D01*
X3027206Y-3854174D02*
X3017682Y-3844650D01*
X3017682Y-3844650D02*
X3008158Y-3825603D01*
X3008158Y-3825603D02*
X3008158Y-3816079D01*
X3008158Y-3816079D02*
X3017682Y-3797031D01*
X3017682Y-3797031D02*
X3027206Y-3787508D01*
X3027206Y-3787508D02*
X3046253Y-3777984D01*
X3046253Y-3777984D02*
X3084348Y-3777984D01*
X3084348Y-3777984D02*
X3103396Y-3787508D01*
X3103396Y-3787508D02*
X3112920Y-3797031D01*
X3112920Y-3797031D02*
X3122444Y-3816079D01*
X3122444Y-3816079D02*
X3122444Y-3825603D01*
X3122444Y-3825603D02*
X3112920Y-3844650D01*
X3112920Y-3844650D02*
X3103396Y-3854174D01*
X3103396Y-3854174D02*
X3084348Y-3863698D01*
X3084348Y-3863698D02*
X3046253Y-3863698D01*
X3046253Y-3863698D02*
X3027206Y-3873222D01*
X3027206Y-3873222D02*
X3017682Y-3882746D01*
X3017682Y-3882746D02*
X3008158Y-3901793D01*
X3008158Y-3901793D02*
X3008158Y-3939888D01*
X3008158Y-3939888D02*
X3017682Y-3958936D01*
X3017682Y-3958936D02*
X3027206Y-3968460D01*
X3027206Y-3968460D02*
X3046253Y-3977984D01*
X3046253Y-3977984D02*
X3084348Y-3977984D01*
X3084348Y-3977984D02*
X3103396Y-3968460D01*
X3103396Y-3968460D02*
X3112920Y-3958936D01*
X3112920Y-3958936D02*
X3122444Y-3939888D01*
X3122444Y-3939888D02*
X3122444Y-3901793D01*
X3122444Y-3901793D02*
X3112920Y-3882746D01*
X3112920Y-3882746D02*
X3103396Y-3873222D01*
X3103396Y-3873222D02*
X3084348Y-3863698D01*
X3198634Y-3777984D02*
X3198634Y-3816079D01*
X3274825Y-3777984D02*
X3274825Y-3816079D01*
X3570063Y-4054174D02*
X3560539Y-4044650D01*
X3560539Y-4044650D02*
X3541491Y-4016079D01*
X3541491Y-4016079D02*
X3531968Y-3997031D01*
X3531968Y-3997031D02*
X3522444Y-3968460D01*
X3522444Y-3968460D02*
X3512920Y-3920841D01*
X3512920Y-3920841D02*
X3512920Y-3882746D01*
X3512920Y-3882746D02*
X3522444Y-3835127D01*
X3522444Y-3835127D02*
X3531968Y-3806555D01*
X3531968Y-3806555D02*
X3541491Y-3787508D01*
X3541491Y-3787508D02*
X3560539Y-3758936D01*
X3560539Y-3758936D02*
X3570063Y-3749412D01*
X3741491Y-3777984D02*
X3646253Y-3777984D01*
X3646253Y-3777984D02*
X3636729Y-3873222D01*
X3636729Y-3873222D02*
X3646253Y-3863698D01*
X3646253Y-3863698D02*
X3665301Y-3854174D01*
X3665301Y-3854174D02*
X3712920Y-3854174D01*
X3712920Y-3854174D02*
X3731968Y-3863698D01*
X3731968Y-3863698D02*
X3741491Y-3873222D01*
X3741491Y-3873222D02*
X3751015Y-3892269D01*
X3751015Y-3892269D02*
X3751015Y-3939888D01*
X3751015Y-3939888D02*
X3741491Y-3958936D01*
X3741491Y-3958936D02*
X3731968Y-3968460D01*
X3731968Y-3968460D02*
X3712920Y-3977984D01*
X3712920Y-3977984D02*
X3665301Y-3977984D01*
X3665301Y-3977984D02*
X3646253Y-3968460D01*
X3646253Y-3968460D02*
X3636729Y-3958936D01*
X3989110Y-3977984D02*
X3989110Y-3777984D01*
X4074825Y-3977984D02*
X4074825Y-3873222D01*
X4074825Y-3873222D02*
X4065301Y-3854174D01*
X4065301Y-3854174D02*
X4046253Y-3844650D01*
X4046253Y-3844650D02*
X4017682Y-3844650D01*
X4017682Y-3844650D02*
X3998634Y-3854174D01*
X3998634Y-3854174D02*
X3989110Y-3863698D01*
X4198634Y-3977984D02*
X4179587Y-3968460D01*
X4179587Y-3968460D02*
X4170063Y-3958936D01*
X4170063Y-3958936D02*
X4160539Y-3939888D01*
X4160539Y-3939888D02*
X4160539Y-3882746D01*
X4160539Y-3882746D02*
X4170063Y-3863698D01*
X4170063Y-3863698D02*
X4179587Y-3854174D01*
X4179587Y-3854174D02*
X4198634Y-3844650D01*
X4198634Y-3844650D02*
X4227206Y-3844650D01*
X4227206Y-3844650D02*
X4246253Y-3854174D01*
X4246253Y-3854174D02*
X4255777Y-3863698D01*
X4255777Y-3863698D02*
X4265301Y-3882746D01*
X4265301Y-3882746D02*
X4265301Y-3939888D01*
X4265301Y-3939888D02*
X4255777Y-3958936D01*
X4255777Y-3958936D02*
X4246253Y-3968460D01*
X4246253Y-3968460D02*
X4227206Y-3977984D01*
X4227206Y-3977984D02*
X4198634Y-3977984D01*
X4379587Y-3977984D02*
X4360539Y-3968460D01*
X4360539Y-3968460D02*
X4351015Y-3949412D01*
X4351015Y-3949412D02*
X4351015Y-3777984D01*
X4531968Y-3968460D02*
X4512920Y-3977984D01*
X4512920Y-3977984D02*
X4474825Y-3977984D01*
X4474825Y-3977984D02*
X4455777Y-3968460D01*
X4455777Y-3968460D02*
X4446253Y-3949412D01*
X4446253Y-3949412D02*
X4446253Y-3873222D01*
X4446253Y-3873222D02*
X4455777Y-3854174D01*
X4455777Y-3854174D02*
X4474825Y-3844650D01*
X4474825Y-3844650D02*
X4512920Y-3844650D01*
X4512920Y-3844650D02*
X4531968Y-3854174D01*
X4531968Y-3854174D02*
X4541492Y-3873222D01*
X4541492Y-3873222D02*
X4541492Y-3892269D01*
X4541492Y-3892269D02*
X4446253Y-3911317D01*
X4617682Y-3968460D02*
X4636730Y-3977984D01*
X4636730Y-3977984D02*
X4674825Y-3977984D01*
X4674825Y-3977984D02*
X4693873Y-3968460D01*
X4693873Y-3968460D02*
X4703396Y-3949412D01*
X4703396Y-3949412D02*
X4703396Y-3939888D01*
X4703396Y-3939888D02*
X4693873Y-3920841D01*
X4693873Y-3920841D02*
X4674825Y-3911317D01*
X4674825Y-3911317D02*
X4646253Y-3911317D01*
X4646253Y-3911317D02*
X4627206Y-3901793D01*
X4627206Y-3901793D02*
X4617682Y-3882746D01*
X4617682Y-3882746D02*
X4617682Y-3873222D01*
X4617682Y-3873222D02*
X4627206Y-3854174D01*
X4627206Y-3854174D02*
X4646253Y-3844650D01*
X4646253Y-3844650D02*
X4674825Y-3844650D01*
X4674825Y-3844650D02*
X4693873Y-3854174D01*
X4770063Y-4054174D02*
X4779587Y-4044650D01*
X4779587Y-4044650D02*
X4798634Y-4016079D01*
X4798634Y-4016079D02*
X4808158Y-3997031D01*
X4808158Y-3997031D02*
X4817682Y-3968460D01*
X4817682Y-3968460D02*
X4827206Y-3920841D01*
X4827206Y-3920841D02*
X4827206Y-3882746D01*
X4827206Y-3882746D02*
X4817682Y-3835127D01*
X4817682Y-3835127D02*
X4808158Y-3806555D01*
X4808158Y-3806555D02*
X4798634Y-3787508D01*
X4798634Y-3787508D02*
X4779587Y-3758936D01*
X4779587Y-3758936D02*
X4770063Y-3749412D01*
D10*
X-5000Y-4150500D02*
G75*
G02*
X-85000Y-4150500I-40000J0D01*
G01*
X-85000Y-4150500D02*
G75*
G02*
X-5000Y-4150500I40000J0D01*
G01*
D11*
X293872Y-4041984D02*
X312920Y-4041984D01*
X312920Y-4041984D02*
X331967Y-4051508D01*
X331967Y-4051508D02*
X341491Y-4061031D01*
X341491Y-4061031D02*
X351015Y-4080079D01*
X351015Y-4080079D02*
X360539Y-4118174D01*
X360539Y-4118174D02*
X360539Y-4165793D01*
X360539Y-4165793D02*
X351015Y-4203889D01*
X351015Y-4203889D02*
X341491Y-4222936D01*
X341491Y-4222936D02*
X331967Y-4232460D01*
X331967Y-4232460D02*
X312920Y-4241984D01*
X312920Y-4241984D02*
X293872Y-4241984D01*
X293872Y-4241984D02*
X274824Y-4232460D01*
X274824Y-4232460D02*
X265301Y-4222936D01*
X265301Y-4222936D02*
X255777Y-4203889D01*
X255777Y-4203889D02*
X246253Y-4165793D01*
X246253Y-4165793D02*
X246253Y-4118174D01*
X246253Y-4118174D02*
X255777Y-4080079D01*
X255777Y-4080079D02*
X265301Y-4061031D01*
X265301Y-4061031D02*
X274824Y-4051508D01*
X274824Y-4051508D02*
X293872Y-4041984D01*
X455777Y-4232460D02*
X455777Y-4241984D01*
X455777Y-4241984D02*
X446253Y-4261031D01*
X446253Y-4261031D02*
X436729Y-4270555D01*
X570063Y-4127698D02*
X551015Y-4118174D01*
X551015Y-4118174D02*
X541491Y-4108650D01*
X541491Y-4108650D02*
X531967Y-4089603D01*
X531967Y-4089603D02*
X531967Y-4080079D01*
X531967Y-4080079D02*
X541491Y-4061031D01*
X541491Y-4061031D02*
X551015Y-4051508D01*
X551015Y-4051508D02*
X570063Y-4041984D01*
X570063Y-4041984D02*
X608158Y-4041984D01*
X608158Y-4041984D02*
X627205Y-4051508D01*
X627205Y-4051508D02*
X636729Y-4061031D01*
X636729Y-4061031D02*
X646253Y-4080079D01*
X646253Y-4080079D02*
X646253Y-4089603D01*
X646253Y-4089603D02*
X636729Y-4108650D01*
X636729Y-4108650D02*
X627205Y-4118174D01*
X627205Y-4118174D02*
X608158Y-4127698D01*
X608158Y-4127698D02*
X570063Y-4127698D01*
X570063Y-4127698D02*
X551015Y-4137222D01*
X551015Y-4137222D02*
X541491Y-4146746D01*
X541491Y-4146746D02*
X531967Y-4165793D01*
X531967Y-4165793D02*
X531967Y-4203889D01*
X531967Y-4203889D02*
X541491Y-4222936D01*
X541491Y-4222936D02*
X551015Y-4232460D01*
X551015Y-4232460D02*
X570063Y-4241984D01*
X570063Y-4241984D02*
X608158Y-4241984D01*
X608158Y-4241984D02*
X627205Y-4232460D01*
X627205Y-4232460D02*
X636729Y-4222936D01*
X636729Y-4222936D02*
X646253Y-4203889D01*
X646253Y-4203889D02*
X646253Y-4165793D01*
X646253Y-4165793D02*
X636729Y-4146746D01*
X636729Y-4146746D02*
X627205Y-4137222D01*
X627205Y-4137222D02*
X608158Y-4127698D01*
X770062Y-4041984D02*
X789110Y-4041984D01*
X789110Y-4041984D02*
X808158Y-4051508D01*
X808158Y-4051508D02*
X817682Y-4061031D01*
X817682Y-4061031D02*
X827205Y-4080079D01*
X827205Y-4080079D02*
X836729Y-4118174D01*
X836729Y-4118174D02*
X836729Y-4165793D01*
X836729Y-4165793D02*
X827205Y-4203889D01*
X827205Y-4203889D02*
X817682Y-4222936D01*
X817682Y-4222936D02*
X808158Y-4232460D01*
X808158Y-4232460D02*
X789110Y-4241984D01*
X789110Y-4241984D02*
X770062Y-4241984D01*
X770062Y-4241984D02*
X751015Y-4232460D01*
X751015Y-4232460D02*
X741491Y-4222936D01*
X741491Y-4222936D02*
X731967Y-4203889D01*
X731967Y-4203889D02*
X722443Y-4165793D01*
X722443Y-4165793D02*
X722443Y-4118174D01*
X722443Y-4118174D02*
X731967Y-4080079D01*
X731967Y-4080079D02*
X741491Y-4061031D01*
X741491Y-4061031D02*
X751015Y-4051508D01*
X751015Y-4051508D02*
X770062Y-4041984D01*
X960539Y-4041984D02*
X979586Y-4041984D01*
X979586Y-4041984D02*
X998634Y-4051508D01*
X998634Y-4051508D02*
X1008158Y-4061031D01*
X1008158Y-4061031D02*
X1017682Y-4080079D01*
X1017682Y-4080079D02*
X1027205Y-4118174D01*
X1027205Y-4118174D02*
X1027205Y-4165793D01*
X1027205Y-4165793D02*
X1017682Y-4203889D01*
X1017682Y-4203889D02*
X1008158Y-4222936D01*
X1008158Y-4222936D02*
X998634Y-4232460D01*
X998634Y-4232460D02*
X979586Y-4241984D01*
X979586Y-4241984D02*
X960539Y-4241984D01*
X960539Y-4241984D02*
X941491Y-4232460D01*
X941491Y-4232460D02*
X931967Y-4222936D01*
X931967Y-4222936D02*
X922443Y-4203889D01*
X922443Y-4203889D02*
X912920Y-4165793D01*
X912920Y-4165793D02*
X912920Y-4118174D01*
X912920Y-4118174D02*
X922443Y-4080079D01*
X922443Y-4080079D02*
X931967Y-4061031D01*
X931967Y-4061031D02*
X941491Y-4051508D01*
X941491Y-4051508D02*
X960539Y-4041984D01*
X1112920Y-4241984D02*
X1112920Y-4108650D01*
X1112920Y-4127698D02*
X1122444Y-4118174D01*
X1122444Y-4118174D02*
X1141491Y-4108650D01*
X1141491Y-4108650D02*
X1170063Y-4108650D01*
X1170063Y-4108650D02*
X1189110Y-4118174D01*
X1189110Y-4118174D02*
X1198634Y-4137222D01*
X1198634Y-4137222D02*
X1198634Y-4241984D01*
X1198634Y-4137222D02*
X1208158Y-4118174D01*
X1208158Y-4118174D02*
X1227205Y-4108650D01*
X1227205Y-4108650D02*
X1255777Y-4108650D01*
X1255777Y-4108650D02*
X1274825Y-4118174D01*
X1274825Y-4118174D02*
X1284348Y-4137222D01*
X1284348Y-4137222D02*
X1284348Y-4241984D01*
X1379586Y-4241984D02*
X1379586Y-4108650D01*
X1379586Y-4127698D02*
X1389110Y-4118174D01*
X1389110Y-4118174D02*
X1408158Y-4108650D01*
X1408158Y-4108650D02*
X1436729Y-4108650D01*
X1436729Y-4108650D02*
X1455777Y-4118174D01*
X1455777Y-4118174D02*
X1465301Y-4137222D01*
X1465301Y-4137222D02*
X1465301Y-4241984D01*
X1465301Y-4137222D02*
X1474824Y-4118174D01*
X1474824Y-4118174D02*
X1493872Y-4108650D01*
X1493872Y-4108650D02*
X1522443Y-4108650D01*
X1522443Y-4108650D02*
X1541491Y-4118174D01*
X1541491Y-4118174D02*
X1551015Y-4137222D01*
X1551015Y-4137222D02*
X1551015Y-4241984D01*
X1941491Y-4032460D02*
X1770063Y-4289603D01*
X2198634Y-4041984D02*
X2217682Y-4041984D01*
X2217682Y-4041984D02*
X2236729Y-4051508D01*
X2236729Y-4051508D02*
X2246253Y-4061031D01*
X2246253Y-4061031D02*
X2255777Y-4080079D01*
X2255777Y-4080079D02*
X2265301Y-4118174D01*
X2265301Y-4118174D02*
X2265301Y-4165793D01*
X2265301Y-4165793D02*
X2255777Y-4203889D01*
X2255777Y-4203889D02*
X2246253Y-4222936D01*
X2246253Y-4222936D02*
X2236729Y-4232460D01*
X2236729Y-4232460D02*
X2217682Y-4241984D01*
X2217682Y-4241984D02*
X2198634Y-4241984D01*
X2198634Y-4241984D02*
X2179587Y-4232460D01*
X2179587Y-4232460D02*
X2170063Y-4222936D01*
X2170063Y-4222936D02*
X2160539Y-4203889D01*
X2160539Y-4203889D02*
X2151015Y-4165793D01*
X2151015Y-4165793D02*
X2151015Y-4118174D01*
X2151015Y-4118174D02*
X2160539Y-4080079D01*
X2160539Y-4080079D02*
X2170063Y-4061031D01*
X2170063Y-4061031D02*
X2179587Y-4051508D01*
X2179587Y-4051508D02*
X2198634Y-4041984D01*
X2360539Y-4232460D02*
X2360539Y-4241984D01*
X2360539Y-4241984D02*
X2351015Y-4261031D01*
X2351015Y-4261031D02*
X2341491Y-4270555D01*
X2484348Y-4041984D02*
X2503396Y-4041984D01*
X2503396Y-4041984D02*
X2522444Y-4051508D01*
X2522444Y-4051508D02*
X2531968Y-4061031D01*
X2531968Y-4061031D02*
X2541491Y-4080079D01*
X2541491Y-4080079D02*
X2551015Y-4118174D01*
X2551015Y-4118174D02*
X2551015Y-4165793D01*
X2551015Y-4165793D02*
X2541491Y-4203889D01*
X2541491Y-4203889D02*
X2531968Y-4222936D01*
X2531968Y-4222936D02*
X2522444Y-4232460D01*
X2522444Y-4232460D02*
X2503396Y-4241984D01*
X2503396Y-4241984D02*
X2484348Y-4241984D01*
X2484348Y-4241984D02*
X2465301Y-4232460D01*
X2465301Y-4232460D02*
X2455777Y-4222936D01*
X2455777Y-4222936D02*
X2446253Y-4203889D01*
X2446253Y-4203889D02*
X2436729Y-4165793D01*
X2436729Y-4165793D02*
X2436729Y-4118174D01*
X2436729Y-4118174D02*
X2446253Y-4080079D01*
X2446253Y-4080079D02*
X2455777Y-4061031D01*
X2455777Y-4061031D02*
X2465301Y-4051508D01*
X2465301Y-4051508D02*
X2484348Y-4041984D01*
X2617682Y-4041984D02*
X2741491Y-4041984D01*
X2741491Y-4041984D02*
X2674825Y-4118174D01*
X2674825Y-4118174D02*
X2703396Y-4118174D01*
X2703396Y-4118174D02*
X2722444Y-4127698D01*
X2722444Y-4127698D02*
X2731968Y-4137222D01*
X2731968Y-4137222D02*
X2741491Y-4156269D01*
X2741491Y-4156269D02*
X2741491Y-4203889D01*
X2741491Y-4203889D02*
X2731968Y-4222936D01*
X2731968Y-4222936D02*
X2722444Y-4232460D01*
X2722444Y-4232460D02*
X2703396Y-4241984D01*
X2703396Y-4241984D02*
X2646253Y-4241984D01*
X2646253Y-4241984D02*
X2627206Y-4232460D01*
X2627206Y-4232460D02*
X2617682Y-4222936D01*
X2931967Y-4241984D02*
X2817682Y-4241984D01*
X2874825Y-4241984D02*
X2874825Y-4041984D01*
X2874825Y-4041984D02*
X2855777Y-4070555D01*
X2855777Y-4070555D02*
X2836729Y-4089603D01*
X2836729Y-4089603D02*
X2817682Y-4099127D01*
X3112920Y-4041984D02*
X3017682Y-4041984D01*
X3017682Y-4041984D02*
X3008158Y-4137222D01*
X3008158Y-4137222D02*
X3017682Y-4127698D01*
X3017682Y-4127698D02*
X3036729Y-4118174D01*
X3036729Y-4118174D02*
X3084348Y-4118174D01*
X3084348Y-4118174D02*
X3103396Y-4127698D01*
X3103396Y-4127698D02*
X3112920Y-4137222D01*
X3112920Y-4137222D02*
X3122444Y-4156269D01*
X3122444Y-4156269D02*
X3122444Y-4203889D01*
X3122444Y-4203889D02*
X3112920Y-4222936D01*
X3112920Y-4222936D02*
X3103396Y-4232460D01*
X3103396Y-4232460D02*
X3084348Y-4241984D01*
X3084348Y-4241984D02*
X3036729Y-4241984D01*
X3036729Y-4241984D02*
X3017682Y-4232460D01*
X3017682Y-4232460D02*
X3008158Y-4222936D01*
X3198634Y-4041984D02*
X3198634Y-4080079D01*
X3274825Y-4041984D02*
X3274825Y-4080079D01*
X3570063Y-4318174D02*
X3560539Y-4308650D01*
X3560539Y-4308650D02*
X3541491Y-4280079D01*
X3541491Y-4280079D02*
X3531968Y-4261031D01*
X3531968Y-4261031D02*
X3522444Y-4232460D01*
X3522444Y-4232460D02*
X3512920Y-4184841D01*
X3512920Y-4184841D02*
X3512920Y-4146746D01*
X3512920Y-4146746D02*
X3522444Y-4099127D01*
X3522444Y-4099127D02*
X3531968Y-4070555D01*
X3531968Y-4070555D02*
X3541491Y-4051508D01*
X3541491Y-4051508D02*
X3560539Y-4022936D01*
X3560539Y-4022936D02*
X3570063Y-4013412D01*
X3636729Y-4061031D02*
X3646253Y-4051508D01*
X3646253Y-4051508D02*
X3665301Y-4041984D01*
X3665301Y-4041984D02*
X3712920Y-4041984D01*
X3712920Y-4041984D02*
X3731968Y-4051508D01*
X3731968Y-4051508D02*
X3741491Y-4061031D01*
X3741491Y-4061031D02*
X3751015Y-4080079D01*
X3751015Y-4080079D02*
X3751015Y-4099127D01*
X3751015Y-4099127D02*
X3741491Y-4127698D01*
X3741491Y-4127698D02*
X3627206Y-4241984D01*
X3627206Y-4241984D02*
X3751015Y-4241984D01*
X3989110Y-4241984D02*
X3989110Y-4041984D01*
X4074825Y-4241984D02*
X4074825Y-4137222D01*
X4074825Y-4137222D02*
X4065301Y-4118174D01*
X4065301Y-4118174D02*
X4046253Y-4108650D01*
X4046253Y-4108650D02*
X4017682Y-4108650D01*
X4017682Y-4108650D02*
X3998634Y-4118174D01*
X3998634Y-4118174D02*
X3989110Y-4127698D01*
X4198634Y-4241984D02*
X4179587Y-4232460D01*
X4179587Y-4232460D02*
X4170063Y-4222936D01*
X4170063Y-4222936D02*
X4160539Y-4203889D01*
X4160539Y-4203889D02*
X4160539Y-4146746D01*
X4160539Y-4146746D02*
X4170063Y-4127698D01*
X4170063Y-4127698D02*
X4179587Y-4118174D01*
X4179587Y-4118174D02*
X4198634Y-4108650D01*
X4198634Y-4108650D02*
X4227206Y-4108650D01*
X4227206Y-4108650D02*
X4246253Y-4118174D01*
X4246253Y-4118174D02*
X4255777Y-4127698D01*
X4255777Y-4127698D02*
X4265301Y-4146746D01*
X4265301Y-4146746D02*
X4265301Y-4203889D01*
X4265301Y-4203889D02*
X4255777Y-4222936D01*
X4255777Y-4222936D02*
X4246253Y-4232460D01*
X4246253Y-4232460D02*
X4227206Y-4241984D01*
X4227206Y-4241984D02*
X4198634Y-4241984D01*
X4379587Y-4241984D02*
X4360539Y-4232460D01*
X4360539Y-4232460D02*
X4351015Y-4213412D01*
X4351015Y-4213412D02*
X4351015Y-4041984D01*
X4531968Y-4232460D02*
X4512920Y-4241984D01*
X4512920Y-4241984D02*
X4474825Y-4241984D01*
X4474825Y-4241984D02*
X4455777Y-4232460D01*
X4455777Y-4232460D02*
X4446253Y-4213412D01*
X4446253Y-4213412D02*
X4446253Y-4137222D01*
X4446253Y-4137222D02*
X4455777Y-4118174D01*
X4455777Y-4118174D02*
X4474825Y-4108650D01*
X4474825Y-4108650D02*
X4512920Y-4108650D01*
X4512920Y-4108650D02*
X4531968Y-4118174D01*
X4531968Y-4118174D02*
X4541492Y-4137222D01*
X4541492Y-4137222D02*
X4541492Y-4156269D01*
X4541492Y-4156269D02*
X4446253Y-4175317D01*
X4617682Y-4232460D02*
X4636730Y-4241984D01*
X4636730Y-4241984D02*
X4674825Y-4241984D01*
X4674825Y-4241984D02*
X4693873Y-4232460D01*
X4693873Y-4232460D02*
X4703396Y-4213412D01*
X4703396Y-4213412D02*
X4703396Y-4203889D01*
X4703396Y-4203889D02*
X4693873Y-4184841D01*
X4693873Y-4184841D02*
X4674825Y-4175317D01*
X4674825Y-4175317D02*
X4646253Y-4175317D01*
X4646253Y-4175317D02*
X4627206Y-4165793D01*
X4627206Y-4165793D02*
X4617682Y-4146746D01*
X4617682Y-4146746D02*
X4617682Y-4137222D01*
X4617682Y-4137222D02*
X4627206Y-4118174D01*
X4627206Y-4118174D02*
X4646253Y-4108650D01*
X4646253Y-4108650D02*
X4674825Y-4108650D01*
X4674825Y-4108650D02*
X4693873Y-4118174D01*
X4770063Y-4318174D02*
X4779587Y-4308650D01*
X4779587Y-4308650D02*
X4798634Y-4280079D01*
X4798634Y-4280079D02*
X4808158Y-4261031D01*
X4808158Y-4261031D02*
X4817682Y-4232460D01*
X4817682Y-4232460D02*
X4827206Y-4184841D01*
X4827206Y-4184841D02*
X4827206Y-4146746D01*
X4827206Y-4146746D02*
X4817682Y-4099127D01*
X4817682Y-4099127D02*
X4808158Y-4070555D01*
X4808158Y-4070555D02*
X4798634Y-4051508D01*
X4798634Y-4051508D02*
X4779587Y-4022936D01*
X4779587Y-4022936D02*
X4770063Y-4013412D01*
M02*
